<?xml version="1.0" standalone="no"?>
<!DOCTYPE svg PUBLIC "-//W3C//DTD SVG 20010904//EN"
 "http://www.w3.org/TR/2001/REC-SVG-20010904/DTD/svg10.dtd">
<svg version="1.0" xmlns="http://www.w3.org/2000/svg"
 width="1215.000000pt" height="411.000000pt" viewBox="0 0 1215.000000 411.000000"
 preserveAspectRatio="xMidYMid meet">
<metadata>
Created by potrace 1.15, written by Peter Selinger 2001-2017
</metadata>
<g transform="translate(0.000000,411.000000) scale(0.100000,-0.100000)"
fill="#000000" stroke="none">
<path d="M0 2055 l0 -2055 3465 0 c1906 0 3465 3 3465 7 0 4 -22 53 -50 109
l-50 100 51 54 c61 65 108 164 109 228 0 12 0 30 1 40 1 9 23 33 51 52 27 19
77 56 111 81 234 172 663 472 694 486 21 8 67 22 103 29 36 8 74 18 85 23 11
5 42 15 70 21 116 27 264 128 328 225 56 86 162 227 193 259 18 19 159 123
311 232 153 108 316 225 363 259 47 34 128 91 180 128 52 36 147 103 212 149
336 239 427 305 473 338 128 95 294 210 301 210 5 0 41 -16 80 -35 50 -25 88
-36 124 -38 50 -2 54 -4 98 -57 26 -30 93 -108 150 -172 87 -100 102 -121 96
-140 -4 -13 -7 -33 -5 -45 4 -35 -17 -27 -24 9 -4 18 -32 72 -62 120 -73 119
-151 186 -306 265 -67 35 -127 63 -132 63 -11 0 -55 -30 -176 -120 -41 -30
-82 -59 -91 -65 -40 -25 -140 -94 -208 -145 -41 -30 -82 -59 -91 -65 -36 -22
-202 -138 -355 -248 -17 -12 -83 -56 -145 -98 -132 -89 -273 -214 -265 -236 3
-8 1 -11 -4 -8 -17 10 -82 -68 -155 -185 l-27 -45 33 31 c66 59 73 58 20 -3
-29 -35 -50 -63 -47 -63 3 0 48 37 99 83 221 199 463 358 758 500 154 74 247
112 255 104 3 -2 -6 -17 -20 -32 -26 -28 -146 -218 -187 -295 -13 -25 -30 -53
-38 -63 -13 -16 -12 -17 15 -12 166 28 365 71 421 90 76 26 72 14 -37 -105
-75 -82 -309 -301 -367 -342 -17 -13 -57 -43 -89 -68 -108 -82 -211 -146 -367
-226 -97 -49 -106 -70 -25 -60 27 4 59 11 71 16 12 4 45 15 74 24 48 15 185
73 227 97 38 22 4 -13 -44 -44 -45 -30 -472 -342 -531 -388 -15 -12 -60 -29
-100 -39 -144 -36 -224 -62 -259 -82 -19 -11 -55 -32 -80 -46 -76 -42 -110
-81 -255 -296 -33 -49 -71 -96 -85 -105 -88 -57 -620 -446 -620 -453 0 -5 981
-8 2180 -8 l2180 0 0 2055 0 2055 -6075 0 -6075 0 0 -2055z m4894 891 c76 -23
155 -76 177 -118 48 -93 -1 -438 -62 -438 -23 0 -49 48 -49 90 0 17 14 85 30
150 39 154 39 184 0 220 -17 16 -51 35 -77 44 -163 56 -268 -32 -369 -310 -73
-203 -105 -410 -85 -543 13 -85 27 -115 72 -159 40 -39 83 -52 169 -52 133 0
311 66 382 141 39 41 64 44 52 6 -16 -54 -110 -122 -225 -164 -63 -23 -91 -27
-189 -27 -100 -1 -122 2 -165 22 -88 40 -152 119 -175 214 -7 26 -16 46 -20
43 -5 -3 -16 -29 -26 -58 -37 -114 -71 -176 -106 -193 -25 -12 -39 -13 -61 -5
-63 24 -85 119 -66 286 6 55 14 134 17 175 l7 75 38 3 c33 3 37 1 37 -21 0
-13 -6 -46 -14 -73 -33 -114 -51 -288 -36 -342 12 -48 43 -71 66 -51 42 35
123 266 159 455 33 174 75 305 132 417 50 96 124 185 175 210 42 21 148 22
212 3z m1357 -17 c33 -17 37 -47 17 -138 -26 -122 -65 -367 -78 -495 -6 -60
-13 -113 -16 -117 -2 -4 0 -10 5 -13 5 -3 37 48 71 114 84 163 123 190 189
134 27 -22 31 -32 31 -72 0 -56 -21 -105 -84 -198 -37 -55 -46 -77 -46 -112 0
-68 19 -128 51 -158 25 -24 32 -26 54 -16 14 6 38 33 55 58 25 40 47 104 137
393 23 73 47 101 86 101 18 0 47 -9 65 -20 31 -19 32 -22 32 -82 0 -94 -48
-225 -126 -350 -31 -49 -30 -66 7 -111 l30 -37 -28 0 c-52 0 -84 49 -108 163
-7 34 -21 28 -30 -13 -9 -43 -53 -118 -75 -130 -10 -6 -42 -10 -70 -10 -65 0
-91 26 -116 116 -9 36 -21 67 -26 70 -4 3 -26 -5 -48 -17 -44 -25 -53 -45 -54
-121 -1 -42 -4 -48 -23 -48 -28 0 -32 7 -39 72 -6 53 -13 72 -20 53 -3 -5 -18
-34 -35 -63 -32 -56 -78 -92 -119 -92 -65 0 -129 81 -130 162 0 57 -16 54 -40
-9 -30 -82 -56 -119 -91 -133 -57 -24 -111 27 -125 117 -3 24 -9 43 -13 43 -3
0 -21 -32 -39 -70 -41 -87 -66 -107 -114 -87 -71 30 -73 36 -76 263 l-4 204
-30 25 c-16 14 -35 25 -42 25 -7 0 -20 -30 -30 -72 -24 -101 -48 -143 -68
-122 -4 3 5 47 19 97 25 94 25 117 2 215 -11 46 -11 57 2 80 16 30 36 37 59
22 11 -7 15 -29 15 -87 l0 -77 65 -37 c96 -54 98 -60 77 -226 -23 -182 -22
-234 2 -264 28 -34 48 -19 91 67 55 110 98 250 106 342 l7 82 38 0 c35 0 39
-3 39 -26 0 -14 -4 -33 -9 -43 -15 -27 -51 -251 -51 -312 0 -54 27 -119 50
-119 36 0 98 135 160 351 12 41 25 81 30 89 6 8 16 29 24 47 21 46 52 73 84
73 51 0 104 -80 77 -116 -12 -17 -17 -17 -50 -6 -48 18 -60 7 -87 -82 -17 -55
-22 -97 -22 -186 -1 -105 1 -118 22 -147 44 -62 97 -36 154 74 48 93 76 182
87 283 6 47 19 163 31 258 11 95 22 229 25 298 5 148 15 171 66 143z m853
-185 c0 -21 -2 -54 -5 -73 l-4 -34 174 -3 c178 -3 251 -10 251 -24 0 -4 -43
-15 -96 -25 -92 -17 -152 -16 -287 1 -27 3 -53 2 -57 -2 -5 -5 -19 -83 -30
-174 -29 -219 -26 -486 4 -519 55 -61 116 35 185 291 21 78 32 104 46 107 16
3 17 -2 12 -40 -8 -57 -72 -249 -104 -314 -47 -94 -85 -119 -147 -95 -32 12
-51 48 -66 128 -7 34 -16 62 -20 62 -4 0 -18 -27 -30 -60 -35 -94 -75 -150
-105 -150 l-26 0 21 30 c35 50 86 169 124 290 26 86 39 155 52 273 9 87 14
160 11 163 -9 10 -117 13 -168 5 -41 -7 -58 -5 -80 8 -16 9 -29 19 -29 23 0 3
48 9 108 13 140 8 172 11 177 17 2 2 5 37 6 78 2 41 7 78 13 82 5 3 24 1 40
-6 27 -11 31 -17 30 -52z m-1485 -1291 c39 -51 71 -94 71 -97 0 -15 -275 -166
-430 -236 -492 -222 -953 -332 -1457 -347 -106 -3 -193 -9 -193 -12 1 -3 9
-41 19 -84 10 -42 15 -77 12 -77 -4 0 -77 38 -163 84 -87 47 -198 106 -248
132 -73 38 -88 50 -78 59 20 19 391 287 404 292 6 2 15 -44 25 -129 l14 -133
140 -7 c177 -9 488 6 658 32 517 81 893 275 1106 573 19 26 38 46 42 45 4 -2
39 -44 78 -95z"/>
<path d="M6353 2368 c-36 -39 -139 -264 -145 -319 -9 -77 92 22 157 154 55
110 66 180 30 185 -12 2 -30 -7 -42 -20z"/>
<path d="M6711 2308 c-28 -88 -51 -208 -51 -270 0 -47 2 -51 15 -37 46 46 117
300 96 345 -18 41 -38 28 -60 -38z"/>
<path d="M9950 2358 c-173 -77 -350 -169 -450 -233 -62 -40 -204 -135 -237
-159 -79 -58 -221 -186 -226 -205 -3 -12 -2 -21 1 -21 4 0 48 37 97 83 149
136 339 275 490 356 33 18 64 37 70 42 17 17 22 9 40 -73 l18 -83 13 62 c14
70 44 142 65 159 8 7 46 24 84 39 72 28 101 46 75 44 -8 0 -26 -5 -40 -11z"/>
<path d="M10172 2015 c-54 -54 -83 -76 -108 -81 -37 -7 -158 1 -187 12 -10 3
-17 1 -17 -5 0 -6 6 -11 13 -11 7 0 29 -9 50 -20 20 -11 43 -20 50 -20 7 0 22
-6 32 -14 19 -14 18 -16 -26 -55 -177 -156 -378 -291 -559 -378 -36 -17 -73
-33 -82 -37 -26 -8 -22 -26 5 -26 27 0 61 15 162 73 248 141 465 319 700 575
73 80 49 70 -33 -13z"/>
<path d="M7294 741 c-27 -21 -101 -73 -164 -116 -63 -43 -117 -80 -120 -82 -2
-2 -3 -23 -3 -45 1 -23 -3 -48 -9 -55 -5 -7 -8 -19 -5 -28 4 -8 2 -17 -2 -20
-5 -2 -18 -24 -29 -47 -11 -24 -40 -62 -63 -86 l-43 -43 27 -55 27 -55 28 33
c46 54 112 147 112 156 0 5 16 29 35 53 19 24 35 52 35 61 0 9 4 19 9 23 5 3
27 40 48 83 20 42 48 90 60 105 13 16 23 34 23 40 0 6 21 33 47 59 26 26 44
50 41 53 -3 3 -27 -12 -54 -34z"/>
<path d="M7850 120 c-30 -16 -66 -29 -78 -30 -13 0 -38 -6 -55 -14 -18 -8 -52
-19 -77 -25 -88 -19 -174 -42 -179 -47 -10 -9 114 -1 127 9 7 6 12 6 12 0 0
-22 65 -12 92 14 14 14 32 23 40 21 8 -3 2 -11 -17 -21 -27 -14 -28 -16 -11
-23 10 -4 24 -3 31 2 7 5 48 36 91 68 43 32 83 63 89 67 18 17 -10 8 -65 -21z"/>
</g>
</svg>
