<?xml version="1.0" standalone="no"?>
<!DOCTYPE svg PUBLIC "-//W3C//DTD SVG 20010904//EN"
 "http://www.w3.org/TR/2001/REC-SVG-20010904/DTD/svg10.dtd">
<svg version="1.0" xmlns="http://www.w3.org/2000/svg"
 width="1215.000000pt" height="411.000000pt" viewBox="0 0 1215.000000 411.000000"
 preserveAspectRatio="xMidYMid meet">
<metadata>
Created by potrace 1.15, written by Peter Selinger 2001-2017
</metadata>
<g transform="translate(0.000000,411.000000) scale(0.100000,-0.100000)"
fill="#000000" stroke="none">
<path d="M0 2923 c0 -652 2 -1184 5 -1181 3 3 62 117 131 254 69 137 131 255
138 264 8 9 12 28 9 46 -3 20 1 35 11 43 12 10 13 18 5 33 -7 12 -7 24 -1 31
14 17 -1 115 -37 241 -20 70 -31 130 -30 170 0 33 -5 77 -10 96 -6 19 -11 60
-11 90 l0 55 73 70 c40 38 97 82 127 98 30 15 71 37 90 48 30 17 46 20 104 14
l69 -5 32 35 c18 19 38 35 44 35 11 0 30 -37 37 -68 4 -22 25 -41 108 -99 45
-32 106 -77 136 -101 30 -25 66 -49 80 -55 14 -6 48 -32 75 -59 l50 -47 141
-7 c153 -8 169 -3 140 41 -9 13 -16 29 -16 36 0 6 -23 38 -51 70 -49 57 -51
60 -34 79 17 19 13 40 -8 40 -7 1 -25 11 -41 25 l-29 24 32 65 32 66 113 0
c86 0 126 -5 172 -20 l60 -21 96 45 c86 40 108 46 205 54 102 9 113 12 191 56
45 25 90 46 98 46 14 0 15 2 3 16 -12 15 -11 16 11 9 13 -4 31 -14 39 -22 9
-10 25 -13 47 -9 37 7 39 6 48 -48 7 -38 7 -38 -18 -32 -18 4 -26 2 -26 -7 0
-24 -21 -37 -42 -26 -35 19 -30 2 23 -67 58 -77 118 -197 144 -292 19 -68 26
-72 95 -52 19 6 64 13 99 15 52 4 111 24 111 38 0 24 -24 123 -35 144 -8 16
-15 33 -15 39 0 6 -9 23 -20 37 -24 31 -16 38 30 28 39 -8 116 3 136 20 11 9
10 17 -3 45 -15 31 -16 36 -1 50 21 21 86 10 67 -12 -8 -10 -7 -17 5 -29 9 -9
16 -20 16 -25 0 -5 10 -12 22 -16 12 -3 28 -13 36 -20 7 -8 20 -14 28 -14 26
0 14 -15 -26 -34 -38 -18 -40 -21 -40 -65 0 -41 4 -49 33 -68 18 -13 48 -23
65 -23 18 0 32 -4 32 -10 0 -14 -20 -12 -71 5 -31 11 -40 12 -31 3 10 -10 7
-15 -20 -24 -17 -5 -33 -15 -34 -20 -2 -5 35 -33 82 -63 115 -75 236 -190 319
-304 38 -53 70 -95 71 -94 2 1 -17 42 -42 91 -24 48 -44 97 -44 107 0 11 -9
38 -21 61 -24 46 -14 63 31 53 14 -4 56 -11 93 -17 58 -8 71 -7 93 7 14 9 23
22 20 30 -2 7 4 21 15 31 23 21 24 28 3 49 -23 23 -12 28 57 27 47 0 66 -5 83
-21 12 -12 26 -21 30 -21 5 0 17 -11 27 -24 11 -13 48 -41 84 -60 35 -20 71
-43 80 -52 14 -14 22 -12 88 22 l72 37 65 -29 c36 -16 75 -36 86 -44 32 -23
72 -90 85 -143 6 -26 15 -49 19 -52 4 -2 17 18 30 45 15 33 30 50 47 54 28 8
63 -9 63 -29 0 -8 7 -15 15 -15 25 0 17 13 -40 67 -59 57 -67 83 -34 111 11 9
35 32 53 50 26 26 40 32 74 32 63 0 55 22 -18 47 l-35 13 45 -6 c25 -3 48 -12
53 -19 5 -9 24 -15 49 -15 l40 0 -23 20 -24 19 28 1 c26 0 27 2 16 23 -26 48
-76 84 -137 97 -58 12 -63 11 -141 -19 -44 -17 -85 -31 -91 -31 -14 0 -13 26
2 50 10 16 10 23 -5 37 -10 10 -17 12 -17 6 0 -7 -21 -24 -46 -39 -30 -18 -51
-39 -60 -60 -11 -25 -18 -32 -32 -27 -13 4 -14 3 -6 -6 14 -15 6 -103 -10
-113 -6 -4 -16 3 -23 15 -12 21 -12 21 -14 2 -1 -11 -1 -23 0 -27 4 -24 -62
16 -93 56 l-27 36 23 0 c43 1 107 37 114 64 6 26 5 30 -21 76 -14 24 -13 26
20 42 18 10 36 22 40 28 3 5 25 7 49 4 27 -4 46 -2 50 5 5 7 -3 12 -21 13 -15
0 -33 2 -39 2 -6 1 -27 22 -47 47 l-35 47 20 20 c21 20 16 48 -5 35 -8 -4 -7
-1 1 9 9 12 10 18 2 23 -8 5 -8 11 1 21 7 9 16 11 21 6 10 -10 48 -4 48 7 0 4
-4 11 -9 17 -6 5 -3 15 7 24 14 13 15 12 9 -4 -5 -13 -3 -17 10 -14 10 2 19
11 21 20 2 12 -13 22 -58 39 -33 12 -59 27 -57 33 2 6 18 19 37 28 18 9 38 22
43 27 19 19 -13 12 -49 -10 -36 -22 -40 -17 -23 28 16 44 69 92 114 104 22 5
87 33 144 62 l105 52 100 0 c84 0 110 -4 152 -23 l50 -23 127 31 c122 29 149
31 222 13 15 -3 17 -2 6 5 -12 9 -12 12 1 25 13 13 16 13 26 -3 8 -13 8 -20
-1 -29 -8 -8 -5 -11 12 -11 14 0 25 7 28 20 4 13 14 20 30 20 22 0 24 -2 12
-16 -11 -13 -9 -14 16 -8 21 5 26 4 20 -6 -5 -7 -18 -10 -37 -6 -21 4 -28 2
-26 -7 6 -17 56 -21 75 -6 13 11 17 10 28 -4 7 -10 33 -24 57 -33 56 -19 89
-48 81 -72 -6 -17 -63 -76 -63 -66 0 3 9 17 20 31 18 23 19 29 7 47 -27 43
-84 60 -205 64 -181 6 -297 -25 -408 -109 -36 -27 -69 -49 -73 -49 -5 0 -12
-16 -15 -35 -5 -26 -13 -36 -31 -41 -26 -6 -33 -28 -14 -40 6 -3 15 0 20 7 6
10 8 7 7 -11 -3 -22 1 -25 31 -28 22 -2 31 0 26 7 -8 15 3 51 17 51 12 0 48
39 48 52 0 15 43 8 59 -10 9 -11 32 -22 51 -26 19 -3 42 -11 50 -17 13 -8 12
-12 -7 -26 -13 -8 -23 -23 -23 -33 0 -12 -11 -20 -34 -24 -19 -4 -36 -12 -39
-19 -3 -9 -11 -9 -35 -1 -27 10 -32 10 -36 -5 -7 -22 -2 -46 13 -65 7 -8 10
-19 7 -24 -7 -12 31 -45 154 -134 155 -112 239 -207 305 -346 20 -42 41 -87
47 -99 9 -19 20 -23 54 -23 l42 0 -8 35 c-4 19 -24 69 -43 112 -20 43 -39 88
-42 101 -4 12 -17 34 -29 50 -29 35 -38 60 -23 65 8 3 3 14 -13 32 -16 18 -21
29 -13 32 8 3 8 14 -3 41 l-15 37 26 -30 c14 -16 24 -38 21 -47 -7 -30 61 -69
126 -72 18 -1 33 -6 33 -11 0 -15 15 -35 26 -35 19 0 0 218 -25 281 -10 22 58
41 120 33 l49 -6 -25 18 c-14 9 -27 19 -30 21 -2 2 7 15 20 28 54 53 63 71 30
62 -18 -4 -20 -2 -14 16 3 12 12 29 19 37 8 8 14 20 15 25 1 6 4 12 7 15 4 3
3 -1 -1 -7 -4 -7 -2 -13 3 -13 6 0 11 11 11 25 0 14 4 25 9 25 5 0 7 -9 4 -20
-4 -13 2 -29 15 -43 47 -50 81 -174 52 -192 -20 -12 -9 -21 60 -44 l69 -24
128 28 c204 43 206 44 198 63 -15 36 -17 52 -6 52 11 0 15 -13 12 -37 -2 -14
38 -43 58 -43 11 0 8 5 -7 16 -31 22 -27 40 11 50 l32 8 -33 3 c-24 3 -32 8
-28 19 7 17 -6 18 -22 2 -6 -6 -14 -9 -18 -6 -13 14 9 46 51 72 50 32 50 33
33 73 -18 46 -15 68 10 69 16 1 21 -3 18 -13 -4 -8 -1 -13 5 -11 6 2 10 6 9 8
-1 3 5 23 14 45 16 37 16 40 -1 52 -16 12 -14 16 17 43 51 45 73 51 201 57
120 6 133 3 134 -37 0 -11 14 -16 53 -18 35 -2 52 -7 52 -16 0 -14 -46 -21
-200 -31 -71 -5 -158 -21 -177 -33 -6 -4 -13 -16 -15 -26 -2 -16 7 -22 47 -33
28 -7 65 -11 83 -9 17 3 32 2 32 -2 -1 -14 -52 -44 -66 -38 -14 5 -20 -9 -6
-17 4 -2 1 -2 -6 0 -8 2 -18 0 -24 -3 -6 -4 23 -17 63 -30 61 -19 87 -22 149
-17 89 7 105 14 126 54 8 17 11 28 5 24 -11 -6 -47 22 -39 30 3 3 29 9 58 15
65 12 82 26 57 45 -13 10 -15 15 -6 21 9 5 4 14 -17 31 -26 20 -27 23 -8 23
24 0 54 -30 78 -78 21 -41 11 -57 -45 -74 -22 -6 -39 -15 -39 -20 0 -4 -17
-27 -37 -50 l-38 -42 33 23 c19 13 55 30 80 37 44 13 45 14 10 10 -52 -6 -48
7 10 34 26 12 64 31 84 42 79 41 318 31 406 -17 34 -19 72 -51 72 -62 1 -18
48 -65 54 -54 22 35 -88 123 -190 153 l-73 22 57 40 c68 49 213 164 227 181 5
6 37 32 70 57 33 25 71 58 84 72 l24 26 -3911 0 -3912 0 0 -1187z m6675 1117
c-11 -5 -37 -9 -57 -9 -20 -1 -40 -5 -43 -11 -3 -5 -19 -10 -35 -10 -16 0 -31
-4 -34 -9 -7 -10 16 -21 47 -21 22 -1 22 -1 3 -15 -11 -8 -16 -15 -11 -15 5 0
-6 -13 -24 -30 -26 -23 -40 -28 -62 -23 -18 3 -29 1 -29 -6 0 -13 -36 -15 -45
-2 -3 5 4 26 16 46 16 27 26 34 40 30 10 -4 27 -1 36 5 15 9 13 10 -10 5 -39
-8 -26 10 25 36 45 23 104 37 163 37 31 1 35 -1 20 -8z m-3949 -70 c111 -24
181 -51 229 -90 94 -74 88 -72 212 -81 85 -5 120 -12 132 -24 14 -14 14 -17 1
-25 -22 -14 -40 -12 -34 4 8 20 -49 28 -116 17 -30 -5 -102 -21 -160 -35 -91
-23 -126 -26 -265 -26 -166 1 -180 7 -60 30 39 7 75 16 80 20 12 10 132 36
205 45 41 6 50 10 35 15 -12 4 -27 15 -34 24 -12 14 -11 16 5 11 10 -3 6 1
-11 9 -21 10 -35 11 -48 4 -15 -7 -23 -5 -38 11 -19 20 -28 21 -137 16 -132
-5 -169 -16 -227 -69 l-39 -36 40 -1 39 -1 -50 -13 c-28 -6 -60 -17 -72 -23
-12 -7 -37 -13 -55 -15 -29 -2 -33 -6 -36 -35 -2 -18 1 -32 7 -32 6 0 11 -4
11 -8 0 -12 -97 -45 -109 -37 -21 12 -32 83 -21 128 25 99 39 113 173 182 75
38 82 40 186 43 59 1 130 -2 157 -8z m-1641 -174 c108 -17 165 -46 224 -116
23 -27 47 -50 53 -50 14 0 68 -40 68 -51 0 -5 -7 -9 -15 -9 -8 0 -15 4 -15 10
0 17 -77 50 -150 62 -93 16 -141 5 -305 -67 -121 -54 -133 -57 -187 -52 -52 5
-59 3 -75 -18 -10 -13 -31 -27 -48 -30 -27 -6 -28 -5 -13 8 14 11 16 20 8 48
-6 19 -10 52 -10 74 0 35 6 45 56 92 40 38 69 56 107 67 29 8 75 21 102 29 65
19 91 20 200 3z m2460 -211 c72 -5 172 -28 249 -58 42 -16 83 -54 102 -93 23
-47 49 -58 189 -79 159 -23 156 -21 122 -50 -37 -32 -117 -55 -193 -55 -59 0
-352 44 -362 55 -3 3 19 5 49 5 66 0 182 36 172 53 -15 28 -36 45 -48 41 -7
-3 -15 4 -17 14 -6 21 -70 39 -116 34 -13 -2 -21 2 -20 9 2 7 -8 16 -22 20
-38 11 -168 10 -175 -1 -3 -5 -16 -9 -28 -8 -39 3 -121 -25 -167 -58 -39 -27
-49 -30 -74 -21 -19 6 -30 6 -35 -1 -9 -15 -74 -9 -88 8 -20 24 -15 48 10 52
12 2 21 9 20 16 -3 14 67 67 116 88 18 8 48 14 65 14 17 1 42 7 56 15 16 9 42
13 70 10 25 -2 81 -7 125 -10z"/>
<path d="M8459 4018 c-111 -167 -273 -366 -308 -379 -11 -4 -5 -8 19 -13 210
-42 263 -67 297 -136 12 -25 25 -66 28 -93 7 -43 6 -47 -11 -40 -11 4 -35 19
-54 34 -72 58 -179 89 -305 89 -118 0 -206 -15 -278 -47 -59 -27 -77 -46 -77
-82 0 -12 -6 -21 -12 -21 -35 -1 -42 -17 -28 -64 11 -39 16 -45 32 -40 17 5
18 3 9 -14 -15 -29 -14 -32 14 -32 24 0 35 23 16 34 -5 3 -6 27 -3 53 4 37 12
54 39 80 39 36 69 37 113 2 l25 -19 -28 0 c-15 0 -30 -6 -33 -14 -3 -8 -15
-16 -26 -19 -11 -3 -17 -10 -13 -16 3 -6 17 -8 32 -5 21 6 25 4 20 -9 -12 -31
102 -45 136 -18 16 13 19 13 27 1 25 -39 -2 -85 -43 -75 -28 7 -35 19 -17 30
17 11 11 28 -7 20 -10 -4 -38 -12 -63 -17 -61 -13 -110 -39 -110 -60 0 -18 45
-58 65 -58 20 0 24 -66 5 -78 -9 -5 -40 -49 -70 -98 -59 -97 -125 -196 -195
-289 -107 -144 -109 -148 -87 -141 24 8 74 -13 65 -27 -7 -12 -113 0 -158 18
-44 19 -56 19 -49 0 4 -10 0 -15 -12 -15 -36 0 -5 -10 90 -30 54 -11 124 -20
156 -20 33 0 76 -8 101 -18 32 -13 61 -17 105 -14 l61 4 0 37 c0 69 15 173 29
207 16 37 5 77 -19 69 -38 -11 -67 -14 -67 -6 0 4 18 11 41 15 22 4 58 15 79
26 43 22 101 86 94 105 -3 7 7 18 23 24 15 6 70 37 120 69 76 47 102 69 143
126 28 38 53 80 56 93 5 16 16 26 36 30 17 3 41 20 56 39 15 19 35 34 44 34 9
0 20 5 24 11 5 9 -1 10 -20 5 -23 -6 -26 -3 -26 18 0 16 7 26 23 30 38 10 43
6 17 -14 -19 -15 -21 -20 -8 -20 9 0 28 4 41 9 19 8 23 15 20 35 -5 26 -21 33
-38 17 -17 -15 -73 -23 -80 -11 -4 6 8 25 25 42 27 25 38 29 66 25 32 -5 33
-5 23 19 -19 51 -2 63 20 13 15 -35 44 -36 49 -1 3 16 10 22 29 22 26 0 26 0
7 -21 -15 -17 -16 -22 -4 -29 16 -10 15 -12 -22 -28 -17 -7 -30 -8 -33 -2 -4
6 -11 10 -17 10 -6 0 -3 -9 7 -20 10 -11 24 -20 32 -20 10 0 12 -6 8 -20 -5
-14 -2 -20 10 -20 9 0 13 5 10 10 -11 18 22 10 50 -11 22 -18 29 -20 37 -8 7
11 11 11 15 2 6 -16 35 -17 51 -1 9 9 17 8 37 -2 21 -11 30 -11 57 3 18 9 40
18 49 20 9 3 22 26 29 51 19 70 46 80 30 12 -8 -38 -54 -97 -74 -95 -18 2 -56
-13 -56 -21 0 -4 -21 -11 -47 -15 -28 -4 -41 -10 -34 -14 7 -5 31 -4 54 1 23
5 74 11 113 12 39 2 78 7 88 13 16 9 15 11 -7 26 -23 15 -25 20 -16 52 6 19
12 56 13 81 2 25 8 50 14 56 6 6 8 27 5 47 -4 32 -3 34 9 19 8 -9 23 -16 34
-15 22 2 54 38 54 62 0 10 -6 15 -17 13 -10 -2 -17 -11 -17 -21 2 -19 -4 -21
-25 -8 -10 7 -8 12 9 24 17 11 19 19 12 33 -5 11 -14 32 -18 49 -9 29 -23 40
-94 70 -19 8 -27 13 -17 10 32 -9 17 5 -23 21 -23 9 -39 19 -36 21 2 3 33 -9
68 -25 34 -17 64 -29 66 -27 8 8 -12 26 -51 47 -34 18 -63 23 -152 25 l-110 4
80 -29 c103 -38 239 -93 245 -99 3 -3 -21 -3 -53 0 -36 3 -90 20 -145 46 -143
65 -233 81 -320 56 -78 -23 -143 -65 -136 -87 7 -22 -6 -23 -32 -3 -19 14 -18
15 6 35 14 11 42 29 62 40 20 11 40 24 43 30 23 38 235 94 334 88 l54 -3 53
100 c29 55 53 103 54 108 0 4 -124 7 -275 7 l-274 0 -62 -92z m128 -344 c13
-4 20 -11 16 -20 -3 -9 2 -14 13 -15 17 -1 17 -2 2 -6 -28 -7 -21 -22 10 -20
18 1 26 -2 24 -12 -2 -11 7 -12 40 -8 24 3 54 9 67 13 22 6 23 5 18 -18 -8
-29 1 -42 19 -27 8 7 14 7 19 -1 3 -5 15 -10 26 -10 39 0 17 -18 -31 -24 -55
-7 -97 0 -121 21 -15 13 -19 12 -30 -5 -8 -11 -18 -20 -24 -22 -20 -5 -45 -27
-38 -33 3 -4 1 -7 -7 -7 -10 0 -10 -3 0 -15 7 -8 9 -22 6 -32 -5 -13 -10 -10
-25 18 -12 23 -28 36 -46 39 -26 5 -27 8 -29 62 0 32 3 57 8 57 13 -1 26 23
26 49 0 23 15 27 57 16z"/>
<path d="M9475 4090 c-11 -13 -18 -33 -17 -51 1 -16 -2 -29 -8 -29 -6 0 -10
-6 -9 -12 1 -7 -3 -26 -9 -41 -7 -16 -12 -34 -12 -42 0 -8 -4 -17 -10 -20 -5
-3 -10 -13 -10 -22 0 -8 -17 -62 -37 -119 -31 -86 -41 -106 -61 -111 -12 -3
-21 -7 -19 -9 2 -2 38 3 81 11 94 18 166 19 269 3 57 -8 80 -9 85 -1 4 6 24
14 45 18 37 7 42 3 38 -31 -2 -17 57 -64 80 -64 10 0 19 6 19 14 0 7 7 19 15
26 8 7 18 28 21 49 4 20 18 53 31 73 12 21 23 44 23 52 0 26 29 84 45 90 23 9
24 8 18 -16 -5 -19 -3 -21 8 -10 42 39 192 -17 224 -84 11 -24 14 -43 8 -55
-11 -27 -173 -100 -263 -119 -56 -12 -74 -20 -71 -31 2 -8 3 -24 3 -35 -1 -14
22 -46 67 -91 76 -78 78 -84 80 -220 2 -103 -1 -107 -57 -73 -18 11 -47 20
-64 20 l-32 0 22 20 c12 12 22 27 22 34 0 7 10 26 22 41 l21 27 -20 17 c-11 9
-24 29 -27 45 -6 25 -11 28 -34 23 -18 -4 -50 4 -87 20 -33 13 -93 36 -133 49
-131 43 -297 27 -406 -40 -47 -28 -56 -56 -20 -56 15 0 23 -4 19 -10 -4 -7 2
-9 17 -5 19 5 27 1 35 -18 6 -13 26 -28 44 -34 19 -6 26 -11 16 -12 -24 -1
-11 -21 14 -21 27 0 24 -17 -6 -24 -26 -7 -75 -54 -75 -73 0 -6 6 -14 13 -16
9 -4 9 -8 -2 -15 -8 -6 -11 -17 -7 -27 5 -14 2 -16 -16 -12 -27 8 -48 -8 -48
-37 0 -11 -7 -30 -15 -40 -8 -11 -15 -27 -15 -36 0 -9 -11 -31 -25 -50 -14
-19 -25 -40 -25 -48 0 -8 -35 -87 -78 -176 -42 -88 -100 -214 -127 -278 -28
-65 -54 -116 -59 -115 -6 2 -19 16 -30 30 -18 24 -19 31 -7 49 10 15 10 23 1
32 -9 8 -19 3 -40 -22 -27 -33 -29 -33 -68 -21 -36 10 -45 10 -69 -6 -15 -10
-34 -26 -40 -36 -7 -9 -35 -31 -63 -48 -57 -35 -62 -48 -22 -58 34 -8 92 -43
73 -43 -8 0 -41 5 -73 12 -45 9 -61 9 -70 0 -20 -20 3 -32 105 -58 182 -46
349 -168 424 -310 29 -55 205 -555 198 -562 -2 -2 -70 -10 -152 -18 -108 -11
-199 -28 -341 -65 -111 -28 -215 -49 -245 -49 -131 0 -174 100 -131 302 30
143 5 196 -150 320 -131 104 -249 234 -268 296 -19 59 -25 60 -259 69 l-177 6
-12 -23 c-8 -16 -11 -45 -7 -86 4 -45 3 -66 -6 -71 -22 -14 -68 -94 -72 -125
-4 -35 -16 -45 -62 -54 -30 -6 -33 -10 -33 -43 0 -20 -7 -45 -15 -55 -13 -18
-14 -11 -11 65 6 112 34 197 100 302 l55 87 -88 0 c-49 0 -116 3 -149 6 -61 7
-62 7 -59 36 2 27 -2 31 -53 49 -30 12 -64 23 -75 27 -18 5 -19 4 -5 -13 11
-14 12 -19 3 -22 -7 -3 -13 -11 -13 -19 0 -10 13 -13 52 -11 48 2 53 0 66 -25
7 -16 20 -28 28 -28 7 0 15 -6 16 -12 0 -7 2 -17 2 -23 1 -5 5 -15 8 -21 13
-20 21 -94 11 -94 -6 0 -15 -39 -22 -86 -26 -184 -111 -347 -207 -395 -48 -24
-52 -24 -334 -23 -217 0 -310 4 -388 17 -127 21 -142 28 -141 70 l1 32 13 -30
c11 -24 14 -26 16 -10 2 38 -3 90 -11 100 -20 27 -19 96 5 206 29 140 33 149
51 142 25 -9 15 6 -13 21 -26 14 -27 15 -5 16 19 0 22 5 22 36 0 23 4 34 12
32 15 -5 22 -20 45 -92 10 -32 20 -51 21 -42 2 10 -4 35 -12 57 -28 71 4 138
67 139 20 0 27 5 27 19 0 19 25 35 40 26 4 -3 10 5 13 16 4 15 0 23 -14 26
-23 6 -25 26 -4 43 8 7 15 20 15 30 0 10 10 20 23 24 33 9 45 6 22 -5 -15 -7
-10 -8 20 -4 50 6 304 -14 327 -26 25 -13 28 -12 28 11 0 18 -7 20 -63 20 -34
0 -117 7 -182 15 -66 8 -123 15 -127 15 -5 0 -8 5 -8 11 0 7 11 9 27 6 39 -7
66 6 28 14 -16 4 15 5 70 2 106 -5 253 -41 276 -69 9 -11 43 -14 161 -14 l150
0 -17 -26 c-14 -22 -15 -28 -4 -35 35 -22 46 -10 57 62 6 39 19 88 30 109 19
38 19 40 1 45 -11 4 -19 10 -19 14 0 4 -25 18 -55 30 -62 26 -69 39 -25 48 26
5 30 10 30 39 0 25 7 38 27 51 14 10 40 33 58 51 17 17 36 32 42 32 6 0 15 15
18 33 13 57 42 111 85 154 l42 41 -51 67 -52 67 59 62 c32 33 64 71 71 84 14
26 6 46 -16 38 -12 -5 -14 -1 -10 15 3 12 -2 28 -13 39 -17 17 -17 18 1 34 11
9 19 12 19 8 1 -4 9 3 20 16 11 13 21 18 25 12 13 -20 31 -9 48 31 10 22 15
44 12 49 -3 5 -1 11 5 15 22 14 9 56 -30 94 -54 52 -127 74 -228 70 -72 -4
-87 -9 -227 -77 -83 -39 -157 -72 -166 -72 -19 0 -79 -52 -79 -69 0 -17 12
-13 54 19 32 24 49 30 92 30 29 0 56 -4 59 -10 3 -5 -6 -21 -22 -34 l-28 -24
28 -7 c15 -4 27 -10 27 -14 0 -12 68 -30 92 -24 19 4 20 3 8 -6 -8 -6 -26 -11
-40 -11 -14 0 -41 -13 -60 -28 -19 -16 -45 -34 -57 -41 -12 -6 -28 -23 -35
-39 -10 -20 -21 -27 -41 -27 -24 1 -27 -2 -22 -20 4 -11 8 -40 9 -65 2 -25 15
-83 29 -131 35 -109 34 -118 0 -111 -16 2 -33 11 -40 19 -6 8 -17 12 -23 8 -6
-3 -24 -1 -40 7 l-30 13 6 165 c3 91 7 171 10 178 2 6 -3 12 -11 12 -8 0 -22
11 -31 25 -19 29 -54 34 -54 7 0 -10 7 -27 14 -38 8 -12 17 -47 20 -80 3 -32
8 -80 12 -106 5 -38 4 -48 -7 -48 -11 0 -11 -2 1 -10 8 -5 11 -10 7 -10 -4 0
-3 -9 3 -19 7 -13 7 -22 0 -26 -17 -10 -12 -77 7 -90 10 -7 12 -14 6 -18 -6
-4 -22 2 -35 13 -26 20 -123 30 -148 15 -17 -11 -160 -6 -179 6 -11 7 8 9 62
7 59 -3 76 0 73 9 -3 7 2 13 10 13 8 0 12 -4 9 -10 -3 -5 3 -10 14 -10 11 0
25 9 31 20 6 11 21 20 35 20 13 0 26 3 29 8 6 10 -176 6 -272 -5 -40 -5 -75
-6 -78 -1 -3 4 -17 8 -32 8 l-26 0 22 16 c12 8 22 22 22 30 0 11 -11 9 -47
-10 -27 -14 -60 -29 -75 -35 -16 -6 -38 -15 -50 -20 -30 -13 -84 -23 -132 -26
-27 -2 -44 -9 -56 -25 -10 -13 -33 -25 -55 -29 -45 -7 -56 -27 -23 -40 18 -8
19 -10 5 -10 -10 -1 -27 3 -37 9 -13 7 -32 3 -75 -19 -31 -16 -57 -32 -58 -36
-1 -5 49 -9 111 -10 149 -2 150 -3 133 -122 -7 -48 -20 -112 -29 -142 l-16
-54 -131 7 c-71 4 -166 14 -210 22 -44 7 -84 14 -89 14 -5 0 -6 -42 -2 -99 l7
-99 -84 -163 c-219 -427 -282 -533 -375 -627 -42 -42 -90 -79 -127 -98 -55
-27 -68 -29 -160 -28 -97 2 -357 42 -606 95 l-107 23 21 28 c15 21 29 28 53
28 21 0 43 9 60 25 17 16 39 25 59 25 17 0 40 6 50 14 18 13 18 14 0 42 -12
19 -14 29 -6 32 18 6 44 63 34 73 -6 6 -32 -3 -66 -21 -59 -31 -113 -38 -148
-19 -29 15 -15 26 49 39 31 7 65 17 76 22 17 9 16 11 -10 25 -19 10 -43 13
-71 9 -48 -6 -51 -2 -23 34 11 14 19 39 19 55 l0 30 -49 -53 c-27 -28 -53 -52
-58 -52 -5 0 -28 51 -50 113 -44 120 -50 119 -27 -8 8 -44 17 -96 21 -117 l6
-36 -61 -23 c-34 -12 -64 -26 -67 -30 -3 -5 -18 -9 -35 -9 -19 0 -29 -5 -29
-15 0 -8 -27 -43 -60 -78 -57 -61 -70 -89 -29 -64 16 10 21 9 28 -2 5 -7 13
-11 19 -7 6 3 28 0 49 -8 21 -8 65 -20 97 -25 61 -11 84 -21 50 -21 -10 -1
-30 -7 -44 -15 -24 -14 -22 -14 40 -16 82 -2 55 -8 -84 -17 l-109 -7 -22 -100
c-51 -227 -134 -367 -239 -401 -42 -14 -78 -16 -231 -11 -227 7 -568 33 -705
52 -58 8 -174 24 -257 35 l-153 20 -60 48 c-40 32 -60 54 -60 69 0 12 -5 33
-11 46 -9 20 -5 36 30 104 23 44 56 127 75 184 33 100 126 303 175 382 42 68
14 50 -47 -30 -139 -183 -306 -309 -462 -349 -53 -13 -75 -14 -142 -4 -77 11
-401 94 -487 124 -24 9 -49 16 -56 16 -6 0 -26 -31 -43 -69 -65 -143 -102
-164 -281 -162 -81 0 -121 -3 -111 -9 31 -20 0 -20 -39 0 -39 20 -44 20 -88 5
-45 -15 -71 -12 -43 5 8 5 12 11 10 13 -3 3 -72 12 -155 21 -82 9 -190 23
-240 31 -50 8 -96 14 -102 15 -10 0 -13 -103 -13 -484 l0 -483 31 -7 c17 -3
67 -6 110 -6 l79 0 26 42 c19 30 31 69 41 137 8 53 22 137 33 188 21 107 16
184 -24 317 -22 77 -38 137 -50 198 -8 35 8 44 22 13 7 -14 18 -25 27 -25 8 0
15 -5 15 -10 0 -6 18 -27 39 -48 22 -20 41 -48 43 -62 2 -14 17 -34 37 -47
l34 -23 -45 0 c-28 0 -50 6 -58 15 -19 22 -30 18 -30 -11 0 -23 3 -25 25 -20
14 4 25 2 25 -4 0 -5 21 -10 48 -11 l47 -1 -38 -10 c-20 -6 -37 -14 -37 -18 0
-4 20 -22 45 -38 52 -34 48 -46 -8 -27 -20 7 -37 11 -37 8 0 -2 12 -20 26 -39
23 -29 24 -35 10 -40 -15 -6 -15 -9 -1 -30 8 -13 11 -24 5 -24 -6 0 -22 25
-36 55 -15 30 -30 55 -35 55 -18 0 -9 -60 11 -77 11 -10 20 -22 20 -29 0 -18
38 -47 68 -50 45 -5 122 -28 122 -36 0 -5 11 -8 25 -8 14 0 25 -4 25 -10 0
-32 -221 31 -245 70 -16 27 -25 3 -24 -67 0 -74 1 -77 16 -56 8 13 23 23 32
23 9 0 23 5 31 10 11 7 2 8 -28 4 -47 -7 -52 -1 -20 25 21 17 23 17 76 -10 30
-16 61 -29 69 -29 28 0 3 -17 -34 -24 -21 -3 -66 -19 -101 -35 -47 -23 -62
-35 -62 -51 0 -12 -5 -30 -10 -41 -16 -29 0 -24 80 25 70 44 198 101 207 93 2
-2 -65 -41 -149 -87 -84 -45 -156 -85 -160 -88 -4 -4 -10 -19 -13 -35 l-7 -27
50 34 c31 20 69 36 99 40 26 4 56 9 66 12 9 3 17 1 17 -5 0 -5 -22 -17 -50
-26 -30 -10 -57 -27 -69 -44 -19 -27 -19 -27 0 -39 28 -17 24 -42 -6 -42 -14
0 -25 5 -25 10 0 6 -7 10 -15 10 -10 0 -15 -10 -15 -34 0 -33 -23 -56 -35 -36
-16 25 -27 7 -23 -35 6 -49 -7 -53 -17 -5 -12 56 -25 30 -25 -50 0 -47 6 -95
14 -114 8 -19 14 -65 14 -103 -1 -118 -11 -113 222 -113 l199 0 17 33 c22 43
22 43 38 22 12 -17 16 -17 46 -5 19 8 53 29 77 47 24 18 43 29 43 24 0 -13
-58 -55 -125 -89 l-60 -31 742 0 741 -1 24 38 c12 20 37 53 54 72 17 19 34 47
38 62 3 15 41 62 84 104 71 71 74 81 17 58 -19 -8 -19 -7 -4 16 10 16 35 30
65 39 88 24 179 60 157 60 -12 1 -24 5 -27 10 -8 13 20 21 52 15 28 -6 82 10
82 23 0 5 -35 5 -77 1 -151 -13 -188 -20 -210 -41 -30 -26 -39 -16 -17 18 18
27 54 52 54 37 0 -5 33 0 72 10 40 10 98 22 128 26 l55 7 0 55 c-1 30 -4 69
-8 85 -6 26 -5 26 7 -5 8 -19 15 -49 15 -67 1 -51 10 -64 38 -57 17 5 30 1 43
-14 23 -24 17 -32 -24 -33 -27 -1 -28 -2 -8 -7 28 -8 30 -26 3 -30 -11 -2 -22
-9 -25 -17 -4 -11 5 -13 47 -9 72 7 41 -10 -48 -26 -38 -7 -85 -19 -104 -27
-36 -14 -100 -77 -153 -150 -31 -42 -75 -76 -133 -102 -16 -8 -25 -16 -18 -18
7 -2 22 1 35 8 23 12 23 12 5 -9 -10 -11 -48 -33 -83 -48 -35 -15 -64 -31 -64
-36 0 -12 15 -10 60 8 63 25 59 9 -6 -24 l-59 -30 193 -1 c177 -2 196 0 225
18 18 11 40 29 49 40 19 23 81 29 108 11 13 -9 9 -15 -20 -40 l-34 -30 406 0
c389 0 406 1 411 19 2 11 20 24 43 31 22 7 59 23 83 36 24 13 46 22 49 19 10
-9 -21 -33 -88 -70 l-65 -34 3838 -1 c2408 0 3837 3 3837 9 0 6 -5 13 -11 16
-6 4 -8 13 -5 21 3 7 1 16 -5 19 -5 4 -6 12 -2 18 4 6 6 24 5 39 -1 14 2 29 8
33 5 3 43 3 85 -1 71 -6 75 -8 75 -31 0 -24 -1 -25 -75 -21 -41 2 -75 0 -75
-4 0 -4 35 -8 78 -10 69 -3 77 -5 79 -23 0 -11 4 -30 8 -43 7 -22 7 -22 241
-22 149 0 234 4 234 10 0 6 9 10 20 10 11 0 20 -4 20 -10 0 -5 7 -10 15 -10 8
0 14 6 12 12 -3 19 40 21 65 4 12 -9 30 -16 40 -16 17 0 18 35 18 681 l0 682
-32 -6 c-18 -3 -82 -15 -143 -26 -163 -30 -319 -43 -515 -45 -164 -1 -178 0
-227 23 -29 13 -71 43 -93 67 -61 66 -135 185 -166 266 -15 40 -29 75 -30 77
-2 2 -45 -39 -96 -91 -90 -92 -218 -195 -272 -219 -22 -11 -24 -15 -13 -28 7
-9 24 -61 37 -116 12 -55 43 -156 68 -225 l45 -125 7 -260 c7 -237 10 -274 39
-412 28 -136 32 -208 11 -172 -6 8 -54 13 -154 17 l-147 5 -14 35 c-11 25 -15
75 -15 177 0 104 -4 152 -15 179 -15 36 -19 38 -99 54 -38 7 -40 10 -53 62 -8
30 -18 84 -24 120 -5 36 -12 72 -15 80 -3 8 -9 68 -14 133 -4 65 -10 121 -14
124 -3 4 -21 -7 -39 -25 -104 -100 -207 -60 -421 166 -109 116 -234 299 -291
427 -14 33 -34 96 -44 140 l-17 80 -145 5 -144 5 -3 33 c-2 18 4 67 12 108 9
42 16 100 16 130 l0 54 63 -1 c34 0 98 -4 142 -8 96 -10 106 -4 108 65 1 32 8
53 18 61 9 7 20 25 23 40 12 49 77 225 124 338 42 102 134 241 187 285 9 8 25
31 36 52 11 21 23 38 28 38 5 0 23 15 41 33 29 29 32 31 44 15 16 -22 170 -81
213 -81 57 -1 111 54 66 66 -10 3 -4 5 14 6 17 0 35 6 39 12 3 6 27 24 52 40
43 27 53 29 156 30 76 1 100 4 76 9 -19 4 -26 8 -16 9 11 0 16 4 13 7 -4 4 2
19 13 34 11 16 20 36 20 45 0 9 13 30 29 46 23 23 26 29 13 30 -9 1 3 7 28 15
41 12 42 13 10 10 -38 -4 -130 20 -130 33 0 5 9 20 20 33 19 24 110 58 157 58
29 0 36 25 18 66 -17 42 -10 61 36 97 31 24 32 24 88 9 31 -8 66 -14 79 -14
15 1 21 -2 16 -10 -5 -8 2 -9 26 -5 18 4 51 7 74 8 37 0 39 1 19 11 -20 10
-43 60 -43 95 0 27 32 43 85 43 75 0 85 6 85 49 0 27 12 51 45 95 47 61 53 76
34 76 -11 0 -9 17 6 68 l7 23 -162 -3 -163 -3 -24 -44 c-13 -25 -30 -52 -38
-61 -8 -9 -15 -20 -15 -25 0 -5 -7 -16 -15 -25 -14 -15 -13 -19 3 -41 20 -27
20 -32 4 -71 -13 -32 -75 -57 -96 -38 -17 14 -16 76 3 108 11 21 10 26 -8 43
-12 11 -21 26 -21 35 0 32 -52 114 -76 120 -32 8 -83 -14 -115 -49 -24 -26
-33 -29 -87 -28 -70 1 -107 13 -121 40 -14 26 -80 31 -522 37 -341 5 -346 4
-364 -16z m944 -453 c18 -8 41 -28 51 -45 17 -27 23 -30 52 -26 24 4 40 0 58
-14 l25 -21 -22 -20 c-12 -12 -20 -27 -17 -35 3 -8 0 -18 -8 -22 -18 -11 -47
-12 -45 -1 1 5 -14 11 -33 13 -19 2 -59 21 -90 42 -64 44 -78 84 -41 121 25
25 29 25 70 8z m-3321 -980 c38 -53 47 -99 19 -105 -9 -2 -50 13 -90 32 -67
33 -75 35 -107 24 -19 -7 -37 -14 -39 -15 -3 -2 10 -19 41 -53 16 -18 14 -19
-45 -24 -34 -2 -118 -10 -187 -15 -172 -15 -160 -17 -150 20 5 18 7 35 5 40
-21 34 59 74 168 84 67 6 80 5 98 -11 18 -16 19 -16 13 -1 -5 15 -3 16 20 7
15 -5 25 -6 22 -1 -3 5 13 9 37 9 68 0 73 2 108 32 19 16 38 28 44 26 5 -1 25
-23 43 -49z m-592 -23 c-19 -11 -25 -19 -17 -23 9 -6 8 -15 -4 -37 -8 -16 -15
-24 -15 -19 -1 20 -40 -41 -40 -62 0 -13 -4 -23 -10 -23 -25 0 -6 -29 28 -44
l37 -17 -48 4 c-26 3 -50 1 -53 -4 -3 -5 -31 -9 -64 -9 -44 0 -59 4 -64 16 -5
13 -1 15 19 12 14 -3 25 -1 25 3 0 5 -12 9 -27 9 l-28 1 28 15 c15 8 27 23 27
34 0 11 5 20 11 20 5 0 8 4 4 9 -3 5 -1 12 5 16 5 3 10 1 10 -4 0 -6 5 -11 11
-11 8 0 7 5 -2 16 -7 8 -20 13 -28 11 -83 -26 -83 -26 -72 -13 7 8 7 16 1 22
-13 13 33 62 63 68 75 15 138 23 182 24 l50 1 -29 -15z m-402 -620 c3 -9 6
-23 6 -33 0 -10 12 -28 26 -42 23 -21 25 -29 19 -69 -4 -25 -13 -52 -21 -61
-8 -9 -17 -40 -20 -70 -3 -29 -9 -56 -14 -59 -4 -3 -11 -22 -15 -42 -5 -25
-14 -39 -27 -44 -17 -5 -18 -8 -7 -16 14 -10 -169 -2 -196 8 -17 7 -4 54 24
90 12 15 21 36 21 48 1 32 61 87 98 88 34 1 32 -4 53 123 14 87 37 121 53 79z
m5255 -899 c6 -33 29 -150 51 -260 31 -151 41 -217 38 -271 l-3 -71 -64 -72
c-35 -40 -67 -68 -71 -64 -4 4 -24 70 -44 146 l-37 138 15 135 c20 176 78 407
96 387 4 -4 13 -35 19 -68z m-10454 -613 c-8 -14 -29 -34 -46 -43 l-33 -16 23
-13 c20 -10 28 -9 50 8 14 10 28 32 31 48 6 34 33 39 38 8 2 -15 -22 -44 -87
-106 -50 -48 -93 -83 -95 -79 -3 4 2 34 10 67 15 58 20 87 23 132 1 27 21 29
28 2 3 -11 12 -20 20 -20 11 0 13 7 9 24 -6 26 11 40 31 24 8 -7 8 -16 -2 -36z
m2900 -172 c-19 -21 -8 -29 13 -8 6 6 15 8 19 4 4 -4 0 -12 -11 -18 -30 -17
-81 -66 -75 -72 3 -3 28 10 56 29 46 31 63 35 63 14 0 -4 -36 -30 -79 -58 -75
-48 -103 -71 -84 -71 4 0 46 21 92 45 91 49 101 52 101 30 0 -16 -60 -63 -130
-101 -25 -14 -63 -36 -85 -49 -48 -30 -70 -32 -60 -7 4 9 10 40 14 67 5 43 10
52 36 63 26 12 75 69 75 88 0 3 -17 -8 -37 -25 -21 -17 -41 -31 -45 -31 -22 0
-2 23 57 66 35 26 67 54 70 62 4 12 9 12 17 4 9 -9 7 -17 -7 -32z"/>
<path d="M11545 4093 c-5 -10 -7 -28 -6 -40 3 -28 -31 -62 -69 -70 -36 -7 -46
-34 -25 -67 19 -28 23 -100 7 -119 -6 -7 -35 -19 -64 -26 -70 -18 -88 -28 -88
-49 0 -22 -47 -68 -75 -74 -12 -3 4 -10 40 -18 33 -7 67 -19 75 -25 8 -7 33
-22 55 -33 22 -12 48 -32 57 -45 22 -32 34 -77 19 -77 -6 0 -13 10 -16 23 -4
14 -25 32 -59 50 -29 15 -58 39 -64 53 -14 30 -43 31 -107 3 -47 -21 -86 -22
-187 -4 -36 7 -38 6 -38 -18 0 -18 -7 -28 -22 -33 -22 -7 -22 -7 -3 -15 17 -6
15 -8 -10 -9 -25 -2 -22 -4 15 -11 42 -8 163 -50 202 -70 10 -5 39 -9 65 -10
43 0 45 -1 23 -11 -14 -5 -68 -10 -120 -11 -89 0 -104 3 -223 46 -153 56 -224
62 -297 25 -60 -31 -64 -54 -11 -63 23 -4 60 -4 84 0 36 5 40 4 25 -8 -18 -14
-13 -30 15 -40 9 -3 17 -13 17 -21 0 -10 6 -13 15 -10 9 4 15 0 15 -10 0 -12
10 -16 44 -16 30 0 46 -5 50 -15 7 -18 -3 -45 -16 -45 -6 0 -8 -7 -4 -15 3 -8
1 -15 -5 -15 -6 0 -8 -4 -5 -9 6 -9 -16 -21 -39 -21 -12 0 -11 6 1 36 8 20 13
38 11 40 -13 13 -76 -27 -77 -48 0 -16 62 -77 78 -77 30 1 136 -11 140 -16 2
-2 -13 -7 -34 -10 -64 -11 -68 -13 -54 -30 7 -8 19 -15 26 -15 24 0 15 -14
-16 -28 -42 -19 -55 -46 -35 -76 14 -21 14 -24 0 -30 -27 -10 -33 44 -10 98
15 34 -10 10 -90 -87 -41 -50 -82 -99 -90 -108 -8 -9 -15 -19 -15 -23 0 -4 -9
-16 -19 -27 -11 -12 -32 -52 -48 -89 -31 -77 -25 -75 -141 -43 -39 11 -57 12
-65 4 -6 -6 -22 -11 -35 -11 -21 0 -22 -2 -12 -15 7 -9 8 -15 2 -15 -19 0 -23
-32 -5 -46 10 -7 13 -14 7 -14 -21 0 -23 -38 -3 -56 10 -9 19 -29 19 -43 0
-28 41 -61 74 -61 9 0 16 -8 16 -19 0 -10 6 -21 14 -24 8 -3 16 -18 19 -34 4
-27 4 -27 22 15 10 23 21 41 24 40 4 -2 42 -16 86 -33 44 -16 86 -35 93 -42
28 -28 39 -15 76 90 16 43 36 87 45 98 l16 20 85 -20 c47 -12 90 -21 96 -21 7
0 22 26 34 58 48 122 132 274 242 438 64 94 119 181 123 193 5 15 1 29 -11 42
-26 28 -11 23 55 -19 32 -22 72 -43 88 -49 108 -39 224 -71 259 -71 23 1 48
-3 55 -8 8 -5 42 -10 75 -11 48 -2 77 -11 129 -38 36 -20 70 -33 76 -30 5 4 9
167 9 406 l0 401 -40 15 c-33 13 -42 23 -50 54 -15 57 14 111 65 121 18 3 20
12 23 81 l3 77 -196 0 -195 0 6 -27 c4 -16 12 -35 19 -43 6 -8 17 -34 25 -57
12 -39 11 -45 -5 -63 -24 -26 -73 -26 -130 2 -51 25 -65 51 -41 77 9 10 16 26
16 37 0 11 5 25 12 32 9 9 3 15 -25 27 -48 20 -83 19 -92 -2z m390 -375 c16
-7 25 -19 25 -33 0 -13 7 -28 15 -35 21 -17 19 -55 -2 -57 -28 -1 -135 -49
-144 -64 -5 -8 -7 -30 -3 -50 5 -31 1 -40 -22 -58 -30 -24 -65 -27 -115 -10
-48 17 -69 38 -69 71 0 21 -6 31 -23 37 -33 13 -77 68 -77 95 0 47 66 76 145
65 28 -4 83 -8 122 -8 71 -1 73 0 88 29 17 33 23 35 60 18z"/>
<path d="M4780 3833 c-14 -2 -43 -10 -65 -18 -22 -8 -70 -17 -107 -20 -38 -4
-68 -11 -68 -17 0 -6 -13 -7 -32 -3 -25 5 -29 4 -18 -4 13 -9 12 -11 -6 -11
-11 0 -51 -26 -88 -57 -38 -32 -76 -62 -84 -68 -27 -17 -42 -33 -42 -44 0 -13
47 -15 54 -2 3 5 24 19 47 30 29 15 45 19 53 12 8 -7 24 -7 47 -1 18 6 45 10
59 9 21 0 17 -3 -17 -17 -68 -28 -73 -39 -19 -47 55 -9 116 0 157 20 35 19 64
19 81 2 23 -24 40 -9 21 19 -15 23 -15 26 4 47 11 12 26 38 33 57 7 19 18 41
24 48 7 10 6 16 -3 22 -8 5 -9 10 -3 14 6 3 12 0 15 -6 3 -9 9 -7 20 7 14 18
14 21 -1 27 -19 7 -25 7 -62 1z"/>
<path d="M9054 3215 c-3 -8 -3 -19 1 -25 9 -15 -13 -40 -36 -40 -10 0 -25 10
-34 23 -9 12 -15 15 -14 7 3 -16 -21 -60 -32 -60 -4 0 -7 15 -7 34 0 19 -3 39
-7 45 -9 16 -25 13 -25 -4 0 -8 -13 -21 -29 -29 -16 -9 -31 -24 -34 -36 -7
-26 -37 -26 -37 0 0 17 -3 18 -25 8 -20 -9 -34 -9 -59 0 -57 21 -114 10 -75
-14 20 -12 -18 -26 -40 -14 -27 14 -38 13 -44 -4 -4 -11 9 -20 46 -32 29 -9
64 -24 79 -32 21 -13 30 -13 42 -3 20 16 175 5 197 -15 18 -16 166 -27 175
-12 4 5 16 7 28 4 20 -5 21 -2 20 47 -1 47 1 52 20 53 12 1 37 11 56 22 l33
21 -26 12 c-14 6 -38 9 -52 5 -26 -7 -26 -8 -9 -21 11 -7 16 -16 13 -19 -8 -8
-79 5 -79 15 0 5 21 19 47 33 l48 24 -40 11 c-55 15 -95 14 -101 -4z"/>
<path d="M6180 3164 c0 -10 -6 -14 -15 -10 -8 3 -37 8 -63 12 -37 5 -52 2 -64
-9 -8 -9 -28 -17 -44 -20 -17 -2 -6 -5 26 -6 l55 -1 -30 -20 c-16 -11 -41 -20
-55 -20 -14 0 -32 -5 -40 -10 -11 -7 -1 -10 35 -11 28 0 70 -4 95 -8 l45 -8
-60 -3 c-33 -2 -101 -2 -152 -1 -76 2 -99 -1 -133 -19 -43 -22 -70 -16 -70 16
0 17 -32 34 -62 34 -22 -1 -22 -2 8 -28 45 -38 57 -67 50 -116 -6 -40 -6 -42
31 -59 26 -11 39 -13 44 -5 4 6 12 7 19 3 9 -6 9 -9 -1 -16 -11 -7 -10 -9 3
-9 9 0 26 15 37 33 11 18 30 42 41 52 20 18 20 20 3 27 -11 5 -7 6 12 2 112
-22 124 -22 168 5 24 14 52 31 62 37 10 6 23 19 29 29 6 11 19 26 28 35 18 16
41 88 32 102 -9 14 -34 9 -34 -8z"/>
<path d="M2905 2990 c-3 -5 -26 -9 -51 -8 -25 0 -51 -5 -57 -11 -8 -8 -7 -11
4 -11 21 -1 -32 -40 -54 -40 -22 0 -35 -29 -18 -40 8 -4 -5 -10 -31 -14 -105
-16 -127 -16 -141 -2 -8 8 -31 16 -52 18 -45 4 -57 24 -23 37 22 9 21 10 -7 9
-46 -1 -70 -9 -55 -18 21 -13 -25 -50 -63 -50 -40 0 -71 -31 -61 -63 11 -38
25 -47 75 -47 39 0 55 6 82 30 l34 30 99 -14 c55 -8 156 -17 226 -20 107 -5
126 -3 122 9 -4 8 -20 14 -42 13 -20 0 -50 7 -67 16 -16 9 -50 16 -75 17 l-45
1 32 10 c24 8 48 7 97 -6 36 -9 80 -16 99 -16 19 0 56 -7 83 -15 64 -19 85
-19 78 0 -8 19 10 19 41 -1 23 -15 24 -15 14 13 -5 15 -11 35 -15 44 -6 17
-122 89 -144 89 -7 0 -23 11 -36 25 -24 27 -39 31 -49 15z"/>
<path d="M1463 2888 c-20 -28 -65 -142 -67 -171 -2 -44 38 -71 106 -70 42 1
48 -1 29 -8 -13 -5 -35 -8 -50 -7 -35 3 -84 -30 -75 -51 19 -47 24 -85 25
-183 0 -59 4 -108 7 -108 15 0 143 127 171 170 42 62 41 104 -4 152 -19 20
-35 39 -35 41 0 3 12 8 28 12 15 3 42 18 61 33 24 17 33 21 28 10 -9 -26 19
-29 68 -7 57 25 59 45 5 43 -26 -1 -40 2 -40 11 0 14 56 29 72 19 5 -3 4 3 -3
14 -18 28 -43 35 -116 32 -74 -2 -82 12 -30 56 32 27 32 27 2 9 -16 -10 -40
-29 -52 -44 -21 -24 -24 -25 -37 -8 -7 9 -18 17 -25 17 -14 0 -14 6 -1 31 10
17 7 19 -23 19 -19 0 -39 -6 -44 -12z"/>
<path d="M2025 2841 c-27 -6 -25 -7 25 -19 86 -21 91 -23 85 -32 -3 -4 -65 -8
-138 -7 -79 0 -141 -4 -153 -11 -15 -9 -16 -12 -4 -15 8 -3 23 -8 32 -11 10
-3 44 -1 75 5 53 10 59 9 74 -10 9 -11 19 -17 23 -14 3 3 1 12 -5 20 -9 10 -7
13 10 13 12 0 19 -4 16 -10 -4 -6 5 -10 20 -10 17 0 24 4 19 11 -4 8 0 9 15 4
12 -4 21 -2 21 4 0 6 15 11 33 11 24 0 28 3 17 10 -12 8 -11 10 7 10 12 0 25
5 28 10 4 6 11 7 17 4 7 -4 8 -2 4 4 -5 8 0 12 13 12 12 0 21 6 21 13 0 9 -30
12 -113 13 -61 1 -125 -2 -142 -5z"/>
<path d="M4397 2599 c-9 -6 -88 -35 -175 -65 -155 -55 -223 -79 -292 -104 -19
-7 -43 -19 -53 -25 -15 -11 -12 -12 25 -12 68 1 98 -4 183 -30 44 -14 88 -34
98 -46 15 -18 20 -19 28 -6 5 7 9 17 9 21 0 4 9 10 20 13 11 4 18 11 15 16 -3
5 0 6 8 3 8 -3 21 9 33 33 10 21 27 49 37 62 9 13 17 32 17 42 0 11 6 19 13
19 8 0 7 4 -3 10 -11 7 -12 10 -2 10 15 0 31 16 50 48 14 25 14 25 -11 11z"/>
<path d="M10962 2132 c-9 -6 -7 -13 10 -28 19 -16 20 -16 9 -1 -8 9 -11 21 -7
25 4 4 12 -1 17 -11 6 -9 18 -17 27 -18 11 0 12 -3 4 -6 -6 -2 -9 -9 -6 -14 3
-6 10 -6 17 -1 19 15 67 24 67 12 0 -5 10 -10 23 -10 22 -1 22 -1 -3 -15 -18
-11 -20 -14 -8 -15 21 0 70 21 80 35 5 6 8 3 8 -6 0 -18 55 -29 139 -29 33 0
42 3 31 10 -13 8 -12 10 3 10 9 0 17 5 17 10 0 6 -18 10 -40 10 -23 0 -54 7
-70 15 -19 10 -55 15 -107 14 -43 -1 -98 4 -123 10 -54 13 -71 13 -88 3z"/>
<path d="M10200 1916 c0 -3 20 -44 45 -90 25 -47 45 -92 45 -98 0 -7 -9 -19
-20 -26 -18 -11 -20 -23 -20 -102 0 -87 1 -90 22 -90 30 0 106 32 112 46 6 15
-41 154 -91 269 -34 79 -41 90 -66 93 -15 2 -27 1 -27 -2z"/>
<path d="M48 303 l-48 -4 0 -60 c0 -55 2 -59 23 -59 31 0 35 -5 29 -35 -3 -18
-11 -25 -28 -25 -23 0 -24 -3 -24 -60 l0 -60 65 0 65 0 0 90 0 90 30 0 30 0 0
65 0 65 -47 -2 c-27 -1 -69 -3 -95 -5z"/>
</g>
</svg>
