<?xml version="1.0" standalone="no"?>
<!DOCTYPE svg PUBLIC "-//W3C//DTD SVG 20010904//EN"
 "http://www.w3.org/TR/2001/REC-SVG-20010904/DTD/svg10.dtd">
<svg version="1.0" xmlns="http://www.w3.org/2000/svg"
 width="1215.000000pt" height="411.000000pt" viewBox="0 0 1215.000000 411.000000"
 preserveAspectRatio="xMidYMid meet">
<metadata>
Created by potrace 1.15, written by Peter Selinger 2001-2017
</metadata>
<g transform="translate(0.000000,411.000000) scale(0.100000,-0.100000)"
fill="#000000" stroke="none">
<path d="M2 3713 c0 -219 3 -383 5 -365 2 18 8 30 13 27 5 -3 7 -12 4 -19 -3
-8 0 -17 6 -21 14 -9 5 114 -9 128 -14 14 -14 87 -1 87 5 0 7 6 4 14 -8 21 14
56 35 56 10 0 30 9 45 21 14 11 26 17 26 13 0 -4 9 1 20 11 20 18 28 51 10 40
-5 -3 -10 -1 -10 5 0 6 -4 8 -10 5 -5 -3 -10 1 -10 9 0 9 9 16 20 16 27 0 26
26 -2 41 -17 9 -24 9 -33 -5 -11 -14 -14 -14 -25 -2 -6 9 -9 20 -5 26 3 5 0
10 -7 10 -7 0 -22 18 -32 40 -10 22 -23 37 -27 34 -5 -3 -9 1 -9 8 0 8 13 13
36 12 52 -2 71 20 64 73 -4 23 -12 48 -18 56 -7 8 -9 17 -5 20 3 4 2 7 -4 7
-6 0 -13 9 -16 20 -4 17 1 19 67 23 60 2 55 3 -31 5 l-103 2 2 -397z"/>
<path d="M1008 4103 c85 -3 93 -5 80 -20 -7 -9 -14 -37 -14 -62 -2 -63 -2 -61
-22 -61 -10 0 -23 -5 -30 -12 -9 -9 -12 -9 -12 3 0 8 5 20 11 26 8 8 7 13 -1
18 -8 5 -16 1 -22 -9 -13 -22 -27 -20 -54 9 -21 23 -56 35 -53 18 6 -40 -21
-44 -49 -8 -11 14 -23 25 -27 25 -4 0 -14 8 -21 18 -11 14 -13 15 -14 1 0 -8
7 -24 15 -35 21 -28 19 -53 -4 -47 -12 3 -20 -2 -23 -15 -4 -15 -12 -19 -30
-15 -20 4 -26 0 -31 -18 -5 -19 -8 -20 -21 -9 -14 10 -16 9 -16 -8 0 -27 -10
-52 -21 -52 -5 0 -9 11 -9 25 0 14 -4 25 -10 25 -16 0 -12 -50 5 -56 8 -4 15
-16 15 -28 0 -11 7 -33 14 -48 8 -15 11 -30 7 -32 -9 -6 -55 42 -64 65 -8 24
-49 28 -88 10 -29 -14 -33 -21 -35 -54 0 -24 5 -41 14 -46 10 -6 11 -10 3 -15
-17 -11 -13 -44 6 -54 14 -8 13 -12 -10 -33 -34 -28 -34 -41 -2 -33 23 6 25 4
25 -29 0 -51 41 -97 86 -97 19 0 34 4 34 9 0 4 15 13 33 18 20 6 31 15 28 24
-2 8 -6 21 -8 30 -3 11 3 18 22 21 14 3 23 3 21 0 -9 -9 14 -42 30 -42 8 0 13
-4 9 -9 -5 -9 33 -28 39 -19 1 1 7 15 14 31 11 26 11 27 -13 21 -20 -5 -25 -2
-31 21 -4 15 -2 30 3 34 22 14 22 41 0 62 l-22 21 40 -7 c22 -4 54 -10 71 -15
29 -7 33 -5 55 31 25 40 34 46 44 29 11 -17 23 -11 27 13 3 22 6 23 68 11 19
-4 27 0 35 17 12 27 35 37 35 15 0 -18 33 -38 52 -31 15 6 48 60 48 79 0 7 7
21 15 32 15 18 16 17 10 -13 -4 -20 -3 -33 4 -33 6 0 8 6 5 14 -4 9 6 16 31
20 36 7 75 36 75 57 0 7 -11 9 -31 5 -39 -8 -63 5 -79 44 -13 31 -30 40 -30
16 0 -8 5 -16 12 -18 9 -3 7 -15 -4 -44 l-16 -39 -10 25 c-6 15 -25 42 -44 60
-35 36 -53 67 -48 85 1 6 2 24 2 42 -1 30 1 32 41 36 23 2 -25 3 -108 3 -86 0
-110 -2 -57 -3z"/>
<path d="M7600 4101 l25 -7 -22 -12 c-13 -7 -23 -21 -23 -30 0 -10 -5 -23 -12
-30 -9 -9 -9 -12 0 -12 7 0 12 -9 12 -21 0 -12 -5 -19 -12 -16 -7 2 -13 9 -13
15 0 21 -12 22 -30 2 -13 -14 -16 -28 -11 -55 4 -19 12 -35 19 -35 7 0 21 -15
31 -34 18 -34 18 -35 -3 -64 -21 -31 -26 -53 -14 -66 10 -10 31 -74 38 -118 5
-30 3 -44 -11 -59 -21 -23 -36 -25 -27 -3 4 12 1 15 -12 13 -21 -5 -29 -40
-12 -51 7 -5 -5 -7 -26 -6 -21 1 -43 8 -49 15 -20 24 -35 13 -41 -29 -6 -46 0
-63 23 -63 10 0 14 -9 13 -27 -1 -18 3 -28 12 -28 7 0 15 -12 17 -27 2 -20 8
-27 20 -25 12 2 20 -6 24 -23 5 -22 15 -29 35 -27 4 1 14 -7 24 -18 13 -14 22
-17 34 -10 25 13 36 1 55 -57 17 -51 28 -63 40 -44 3 4 16 6 30 4 18 -4 26 0
30 15 8 24 34 36 51 22 7 -6 15 -6 22 1 8 8 17 7 31 -2 18 -11 24 -10 42 6 20
18 21 18 65 -4 24 -12 47 -30 50 -41 3 -10 19 -23 35 -29 17 -5 30 -14 30 -20
0 -5 13 -14 28 -19 26 -9 28 -14 24 -43 -3 -19 -9 -37 -14 -40 -6 -4 -4 -17 6
-31 40 -61 -15 -158 -100 -179 -25 -7 -48 -18 -50 -25 -2 -8 -6 -21 -9 -30 -3
-8 -9 -13 -14 -9 -6 3 -6 17 1 36 8 24 7 33 -4 42 -20 17 -61 77 -76 110 -7
16 -19 27 -31 27 -34 0 -51 12 -51 35 0 12 -6 27 -13 34 -11 8 -13 4 -9 -20 4
-29 4 -30 -17 -17 -20 11 -24 10 -41 -10 -10 -12 -21 -28 -24 -35 -4 -8 -10
-5 -21 9 -34 47 -75 -1 -72 -84 1 -36 6 -44 29 -55 16 -6 28 -18 28 -25 0 -7
7 -15 15 -18 8 -4 15 -12 15 -19 0 -28 57 -74 99 -81 31 -5 41 -11 41 -25 0
-11 7 -19 15 -19 8 0 15 9 15 20 0 11 -4 20 -10 20 -5 0 -10 8 -10 17 0 13 3
14 11 6 9 -9 16 -9 30 0 34 21 34 19 30 -178 -3 -92 -9 -140 -28 -205 -23 -79
-25 -102 -26 -321 -2 -164 1 -240 9 -250 8 -9 13 -75 15 -176 3 -127 7 -163
17 -163 8 0 12 -9 10 -22 -2 -16 -11 -24 -28 -26 -14 -2 -30 -10 -36 -18 -10
-13 -12 -13 -18 1 -7 20 -24 19 -28 -2 -2 -10 -12 -18 -23 -18 -17 0 -21 -8
-25 -55 -5 -53 -6 -55 -32 -52 -14 1 -29 -2 -33 -8 -8 -13 -45 -13 -45 0 0 6
-6 10 -13 10 -25 0 -77 31 -77 46 0 17 -26 19 -36 3 -3 -6 -22 -17 -40 -25
-19 -8 -34 -19 -34 -24 0 -6 -7 -10 -15 -10 -8 0 -15 4 -15 10 0 5 -10 18 -21
29 -21 19 -21 21 -5 46 21 32 18 89 -5 93 -11 2 -22 -10 -33 -39 -18 -44 -38
-69 -55 -69 -6 0 -11 7 -11 15 0 19 -14 19 -35 -1 -8 -9 -22 -14 -29 -11 -8 3
-18 -5 -25 -19 -6 -13 -19 -24 -30 -24 -10 0 -26 -11 -35 -25 -17 -25 -46 -25
-46 1 0 7 -6 11 -14 8 -10 -4 -19 11 -32 48 -15 44 -19 49 -23 30 -9 -36 -26
-21 -27 24 0 22 -4 46 -8 53 -5 7 -1 20 8 30 18 20 12 31 -16 31 -10 0 -18 -7
-18 -16 0 -12 -6 -15 -24 -10 -19 5 -25 1 -29 -17 -2 -12 -8 -30 -12 -39 -4
-11 -3 -18 5 -18 6 0 18 -7 26 -15 18 -18 14 -18 -22 -5 -21 8 -29 7 -39 -6
-8 -12 -14 -14 -19 -6 -13 21 -43 13 -73 -18 -15 -16 -32 -30 -37 -30 -5 0
-19 -8 -30 -19 -12 -10 -41 -21 -64 -24 -36 -4 -48 -1 -65 16 -12 12 -28 20
-36 19 -20 -5 -31 17 -31 68 -1 42 -2 44 -15 26 -8 -11 -15 -30 -15 -43 0 -28
-16 -30 -32 -3 -15 23 -40 27 -32 5 9 -22 -57 -20 -87 3 -13 10 -32 21 -41 25
-10 3 -28 22 -40 41 -13 20 -29 36 -35 37 -7 1 -19 2 -25 3 -7 1 -17 7 -21 14
-15 23 -37 13 -37 -17 0 -23 -5 -30 -22 -33 -18 -2 -23 -10 -23 -33 0 -27 -3
-30 -30 -30 -22 0 -33 6 -40 23 -9 21 -35 31 -35 14 0 -5 -10 -8 -22 -7 -20 2
-23 7 -21 41 1 21 -1 31 -3 22 -3 -10 -15 -18 -26 -18 -11 0 -22 -8 -25 -19
-5 -20 -49 -45 -63 -36 -5 3 -24 -2 -41 -11 -30 -15 -33 -15 -41 0 -8 15 -11
15 -31 1 -29 -20 -35 -19 -39 8 -2 17 -11 23 -36 25 -21 2 -34 -2 -38 -12 -8
-20 -31 -10 -38 18 -3 14 -14 22 -31 24 -14 1 -25 -3 -25 -8 0 -6 -6 -10 -14
-10 -8 0 -24 -12 -35 -27 -17 -23 -22 -25 -30 -13 -9 13 -11 12 -16 -1 -3 -9
-7 -33 -8 -54 -2 -22 -9 -41 -17 -44 -8 -3 -16 -13 -18 -21 -1 -8 -9 -31 -17
-50 -7 -19 -16 -46 -19 -60 -4 -17 -19 -31 -44 -42 -47 -22 -62 -23 -62 -4 0
8 -9 21 -20 29 -11 8 -23 29 -26 48 -11 59 -27 89 -41 77 -10 -8 -13 -3 -13
26 0 25 -4 36 -15 36 -8 0 -15 -6 -16 -12 -5 -58 -8 -142 -8 -185 0 -66 -12
-89 -53 -97 -29 -6 -36 -3 -61 26 -26 31 -29 32 -41 15 -12 -16 -14 -16 -20
-1 -3 8 -6 28 -6 44 0 36 -26 47 -42 17 -6 -12 -11 -23 -10 -24 1 -2 -1 -2 -5
0 -3 1 -7 22 -7 47 -1 41 -3 45 -33 54 -18 5 -33 14 -33 20 0 6 -19 11 -45 12
-50 1 -52 -1 -28 -28 15 -17 15 -18 -4 -18 -11 0 -25 -10 -31 -25 -13 -28 -32
-34 -32 -10 0 24 -18 17 -37 -15 -19 -32 -29 -37 -36 -17 -3 8 -18 -1 -43 -24
-34 -32 -74 -59 -87 -59 -10 0 -14 55 -6 84 7 23 5 34 -6 45 -13 14 -15 14
-15 0 0 -8 -15 -30 -33 -47 -33 -32 -33 -32 -52 -12 -24 27 -35 25 -35 -6 0
-17 -6 -28 -20 -31 -15 -4 -18 -11 -14 -37 l6 -31 -26 28 c-14 15 -26 36 -26
45 -1 9 -7 28 -14 41 l-13 24 -18 -26 c-20 -31 -35 -27 -35 9 0 15 -5 24 -12
22 -10 -4 -42 -55 -51 -83 -2 -6 -10 -5 -20 4 -10 7 -32 17 -50 20 -42 9 -59
44 -63 130 -1 36 -3 69 -3 74 -1 4 -12 12 -26 17 -14 5 -25 17 -25 27 -1 16
-3 15 -19 -5 -11 -12 -26 -22 -35 -22 -20 0 -20 -10 -1 -24 14 -10 14 -13 1
-31 -15 -19 -15 -19 -16 7 0 15 -5 30 -10 33 -6 4 -8 15 -5 25 4 12 -2 27 -14
39 -12 12 -21 24 -21 29 0 4 -7 15 -14 25 -13 16 -14 13 -13 -29 0 -35 -5 -51
-19 -63 -10 -9 -20 -27 -22 -41 -2 -14 -12 -31 -23 -39 -10 -7 -19 -20 -19
-27 0 -16 16 -19 25 -4 11 18 23 11 44 -26 14 -24 27 -34 40 -32 23 4 71 -39
71 -63 0 -10 4 -21 10 -24 26 -16 -16 -95 -51 -95 -29 0 -83 32 -119 71 l-31
34 7 -39 c5 -28 4 -37 -5 -32 -6 4 -11 13 -11 20 0 18 -43 56 -63 56 -17 0
-44 -50 -56 -105 -4 -16 -11 -29 -16 -27 -6 2 -9 10 -7 19 6 28 -25 49 -68 47
-35 -2 -41 1 -46 22 -3 13 -1 38 5 55 6 18 11 47 11 66 0 30 2 33 23 28 14 -4
28 -1 34 7 16 20 24 66 13 73 -5 3 -10 16 -11 28 0 12 -3 16 -6 10 -2 -7 -4
-15 -3 -19 3 -13 -45 -44 -61 -39 -10 4 -25 -3 -37 -15 -19 -21 -21 -21 -51
-5 -34 17 -51 13 -51 -11 0 -8 -11 -36 -25 -62 -14 -26 -25 -53 -25 -60 0 -9
-5 -10 -17 -4 -10 5 -24 7 -31 5 -7 -3 -19 0 -27 7 -26 22 -37 1 -30 -59 17
-146 -57 -147 -83 -2 -5 30 -16 58 -25 62 -12 7 -12 16 -4 49 6 22 14 40 18
40 12 0 21 -38 14 -60 -5 -15 -2 -20 11 -20 14 0 16 7 11 39 -5 41 6 61 33 61
41 0 47 97 9 151 -16 22 -25 26 -61 24 -24 -1 -63 -7 -87 -14 -23 -7 -50 -9
-60 -6 -9 3 -16 5 -16 4 0 -1 -16 5 -36 14 -68 28 -79 -28 -26 -132 38 -77 61
-92 52 -35 l-6 39 20 -25 c19 -23 22 -33 26 -81 0 -8 11 -28 23 -44 15 -19 22
-40 20 -60 -3 -27 0 -30 24 -30 42 -1 59 -22 56 -69 -3 -41 -3 -41 -41 -38
-37 4 -100 -18 -112 -38 -3 -6 -13 -10 -20 -10 -19 0 -55 31 -49 42 3 4 -2 8
-10 8 -22 0 -88 107 -81 131 8 24 24 24 41 1 11 -15 13 -16 19 -1 4 11 -3 26
-19 42 -14 15 -26 33 -26 42 0 8 -4 15 -8 15 -16 0 -32 -51 -32 -101 l0 -50
-45 31 c-28 19 -47 41 -51 58 -13 60 -15 63 -35 57 -15 -5 -19 -1 -19 20 0 14
-13 43 -28 63 -17 22 -30 51 -31 72 -1 20 -9 41 -20 50 -10 8 -26 30 -35 48
-20 38 -27 36 -57 -18 -25 -43 -44 -54 -30 -17 6 16 4 39 -8 73 -42 118 -50
125 -77 72 -22 -44 -21 -43 -41 -27 -14 11 -15 11 -9 0 7 -10 2 -12 -23 -6
-30 6 -31 5 -31 -27 0 -19 7 -43 15 -54 8 -10 15 -25 15 -33 0 -22 70 -123 82
-119 6 2 35 -21 65 -51 47 -48 54 -60 51 -88 -2 -18 0 -33 6 -33 5 0 1 -9 -9
-20 -16 -18 -16 -20 -2 -20 18 0 42 -47 51 -102 6 -31 2 -42 -22 -69 -21 -23
-38 -32 -63 -33 -19 -1 -40 -9 -49 -19 -14 -17 -18 -14 -53 46 -20 35 -46 72
-57 82 -11 10 -20 24 -20 30 0 10 -21 25 -35 25 -1 0 -5 -14 -9 -31 -6 -31
-34 -37 -28 -5 2 10 -4 16 -18 16 -17 0 -20 -6 -20 -50 0 -56 -17 -73 -51 -52
-10 7 -32 12 -49 12 -23 0 -33 7 -45 30 -8 16 -15 42 -16 57 0 15 -4 37 -8 48
-8 19 -9 19 -19 -5 -6 -14 -13 -33 -16 -42 -3 -11 -11 -15 -21 -12 -19 8 -20
-17 -1 -54 23 -47 38 -123 26 -137 -7 -9 -4 -28 11 -69 18 -46 19 -58 9 -71
-12 -14 -17 -13 -44 13 -17 16 -51 37 -76 47 -44 18 -74 43 -96 81 -9 16 -15
17 -37 7 -14 -7 -28 -22 -32 -34 -7 -22 -8 -22 -22 5 -11 21 -17 25 -28 16
-11 -9 -16 -7 -24 9 -23 43 -8 99 32 114 9 3 17 11 17 17 0 5 9 10 19 10 24 0
35 31 27 75 -9 45 4 49 45 14 37 -32 45 -27 29 16 -8 20 -15 26 -30 22 -22 -6
-35 7 -43 43 -8 33 7 96 21 93 7 -2 12 2 12 7 0 6 -4 10 -10 10 -5 0 -10 17
-10 39 0 21 -7 55 -15 76 -9 20 -13 46 -9 57 6 19 3 20 -31 14 -34 -7 -36 -6
-30 14 7 21 -28 69 -51 70 -7 0 -15 8 -18 17 -5 12 -9 14 -18 5 -7 -7 -22 -12
-35 -12 -13 0 -23 -6 -23 -13 0 -29 -77 -77 -124 -77 -12 0 -36 14 -54 31 -17
17 -36 28 -42 24 -12 -7 -49 32 -50 53 0 18 -17 15 -32 -7 -13 -18 -15 -18
-47 9 -28 24 -34 35 -35 73 -1 54 -12 69 -25 36 -6 -13 -19 -35 -30 -49 -18
-22 -20 -23 -26 -7 -4 9 -11 17 -16 17 -12 0 -12 -37 0 -45 14 -8 25 -135 13
-147 -14 -14 -72 -17 -73 -4 -1 6 -1 16 0 22 1 7 -8 14 -20 17 -21 6 -21 7 10
37 32 33 41 56 17 47 -26 -10 -56 22 -56 58 0 27 -7 39 -30 57 -20 14 -30 31
-30 47 l0 26 -20 -25 c-11 -14 -22 -37 -25 -52 -8 -34 -54 -55 -84 -38 -12 6
-25 9 -30 6 -4 -3 -17 1 -27 9 -24 18 -34 19 -34 3 0 -27 -17 -39 -43 -32 -15
3 -27 10 -27 15 0 5 11 7 24 3 19 -4 26 -1 31 17 5 14 3 25 -4 27 -6 2 -11 10
-11 18 0 8 -7 17 -15 20 -23 9 -19 51 6 57 12 3 20 13 19 24 -4 33 12 63 35
69 13 3 33 17 46 30 12 13 33 24 45 24 12 0 29 7 38 15 21 21 36 19 36 -5 0
-22 12 -29 56 -34 20 -2 33 -12 44 -34 18 -38 56 -43 83 -12 19 22 23 65 7 75
-5 3 -10 26 -10 51 0 40 2 44 24 44 13 0 26 6 29 14 8 20 -2 27 -29 20 -19 -5
-24 -2 -24 14 0 11 -6 22 -12 25 -10 3 -10 9 -2 23 9 15 8 22 -5 31 -14 11
-14 14 -2 22 12 8 13 12 1 26 -7 8 -18 14 -24 12 -6 -2 -18 6 -28 17 -17 21
-17 21 -18 -10 0 -38 -32 -74 -59 -67 -16 4 -21 -1 -27 -31 -6 -34 -8 -36 -23
-21 -9 8 -27 24 -41 34 -20 16 -23 22 -12 32 6 7 12 18 12 23 0 6 -5 5 -12 -2
-17 -17 -29 -15 -22 3 4 8 18 15 33 15 38 0 52 12 35 28 -8 7 -14 10 -14 6 0
-3 -7 -1 -15 6 -11 9 -12 17 -4 32 8 15 7 22 -7 33 -17 12 -16 13 4 24 21 11
31 51 14 51 -12 0 -1 72 14 95 8 11 14 31 14 45 0 15 8 35 18 46 10 10 24 28
30 39 9 16 11 17 12 4 0 -27 25 -42 40 -24 16 20 28 19 32 -2 5 -24 108 -26
108 -1 0 9 -6 18 -12 21 -7 2 -10 8 -6 12 4 4 13 2 20 -4 7 -6 26 -21 41 -32
17 -13 26 -27 23 -36 -8 -19 64 -113 86 -113 9 0 20 -4 23 -10 3 -5 17 -10 29
-10 16 0 32 -12 47 -35 26 -38 38 -44 40 -20 3 38 15 55 38 55 10 0 32 18 49
39 26 33 37 39 69 39 50 0 98 -47 88 -87 -3 -14 -10 -42 -14 -61 -5 -19 -12
-44 -16 -54 -8 -18 -9 -18 -17 3 -15 41 -30 12 -23 -44 7 -52 7 -53 -18 -48
-20 4 -28 -1 -41 -28 -9 -17 -16 -37 -16 -44 0 -20 -41 -50 -62 -47 -18 3 -19
0 -13 -40 9 -51 13 -60 26 -53 5 4 9 -2 9 -12 0 -21 59 -111 79 -118 20 -8 24
-1 23 50 -1 50 0 52 22 29 9 -8 16 -11 16 -6 0 6 9 8 20 5 16 -4 21 1 26 25 5
27 9 29 24 20 27 -17 68 34 66 82 -1 24 4 39 16 48 13 9 16 18 10 25 -5 7 -13
33 -16 59 -7 49 4 69 28 49 9 -8 22 -8 40 -1 26 10 30 17 26 58 -1 12 6 25 14
28 9 3 16 13 16 22 0 8 11 30 25 48 14 18 25 39 25 47 0 8 6 20 14 26 11 9 15
8 20 -4 9 -25 45 4 52 43 5 23 14 36 32 43 22 9 23 11 10 27 -20 23 -29 50
-19 57 5 2 7 31 5 64 -3 32 1 71 7 87 17 41 17 47 -2 61 -9 7 -20 25 -24 40
-8 27 -8 27 -14 5 -9 -33 -26 -27 -25 8 2 25 -3 31 -32 40 -19 7 -34 16 -34
20 0 5 -9 18 -20 28 -18 16 -28 18 -66 11 -28 -5 -53 -5 -64 1 -10 5 -33 8
-51 6 -18 -2 -41 1 -50 7 -13 8 -24 8 -42 -2 -18 -10 -37 -10 -82 -2 -79 15
-85 14 -85 -10 0 -18 -4 -20 -29 -14 -17 3 -32 2 -36 -4 -8 -14 -45 -14 -45
-1 0 24 -36 8 -47 -21 -9 -24 -17 -30 -32 -26 -15 3 -26 -5 -44 -32 -13 -20
-27 -47 -30 -61 -4 -14 -20 -33 -37 -42 -34 -19 -46 -21 -42 -6 1 5 -6 7 -17
3 -10 -3 -31 0 -46 7 -20 9 -26 17 -22 35 3 15 0 22 -7 20 -6 -2 -12 -13 -14
-25 -5 -31 -32 -28 -32 3 0 16 6 25 15 25 9 0 15 9 15 25 0 16 -6 25 -15 25
-8 0 -15 -9 -15 -20 0 -24 -15 -27 -24 -4 -9 24 -7 34 7 34 20 0 38 38 31 65
-7 27 -23 34 -25 10 -2 -19 -3 -25 -13 -52 -5 -17 -15 -23 -37 -23 l-31 0 20
33 c10 17 17 40 15 50 -3 11 1 17 12 17 15 0 16 2 4 17 -11 13 -11 17 -1 20 6
3 10 9 6 14 -8 14 -40 11 -54 -6 -18 -21 -30 -19 -30 6 0 16 -4 20 -18 14 -9
-3 -29 -9 -44 -12 -28 -6 -39 -35 -18 -48 13 -8 13 -25 1 -25 -6 0 -22 11 -37
25 -20 19 -30 22 -40 14 -7 -6 -18 -8 -24 -4 -5 3 -20 -1 -32 -9 -31 -22 -35
-20 -40 14 -3 17 -1 30 4 30 11 0 10 38 -2 45 -11 7 -14 28 -3 22 16 -9 53 13
53 32 0 19 -39 51 -63 51 -7 0 -20 11 -27 24 -15 28 -33 38 -56 29 -9 -3 -13
-12 -8 -22 14 -35 17 -54 7 -48 -6 4 -17 0 -24 -9 -10 -12 -10 -19 -1 -32 6
-10 27 -47 46 -85 33 -66 33 -68 14 -78 -11 -6 -48 -12 -81 -13 -57 -3 -64 -1
-88 25 -15 16 -36 29 -48 29 -12 0 -21 5 -21 10 0 6 -7 10 -15 10 -10 0 -15
10 -15 29 0 17 -4 32 -8 35 -5 3 -10 58 -11 123 -1 65 -4 120 -7 122 -2 2 -4
-198 -4 -446 0 -423 1 -451 17 -449 14 1 17 -6 15 -31 -2 -18 1 -33 6 -33 6 0
12 -6 15 -13 3 -9 -3 -13 -17 -13 -17 1 -22 9 -27 41 -3 22 -7 -57 -7 -177 -2
-212 -2 -216 18 -211 14 4 20 14 20 32 0 36 10 45 26 23 12 -15 15 -15 24 -2
6 8 8 23 6 32 -6 26 11 32 19 7 4 -11 22 -27 40 -35 35 -14 36 -16 55 -104 21
-97 30 -120 50 -120 10 0 22 -4 25 -10 4 -6 -5 -10 -19 -10 -14 0 -26 -4 -26
-9 0 -14 27 -20 38 -9 12 12 46 -8 37 -22 -3 -4 3 -7 12 -6 10 0 19 -7 21 -17
3 -14 -1 -18 -19 -15 -40 5 -35 -50 9 -104 17 -20 9 -48 -13 -48 -8 0 -15 -4
-15 -10 0 -5 7 -10 15 -10 17 0 19 -12 5 -26 -8 -8 -7 -19 1 -38 12 -25 10
-29 -29 -68 -38 -38 -44 -40 -68 -30 -13 7 -34 12 -44 12 -11 0 -25 9 -32 20
-7 11 -18 20 -24 20 -5 0 -20 14 -32 30 -27 37 -49 38 -62 5 -5 -14 -13 -25
-18 -25 -12 0 -10 93 1 101 5 4 6 16 2 28 -20 65 -25 -8 -25 -379 l0 -400 30
0 c23 0 31 -5 36 -24 3 -13 19 -36 35 -52 33 -32 35 -43 13 -100 -15 -39 -18
-42 -39 -32 -27 12 -44 44 -60 118 -11 48 -13 14 -14 -272 l-1 -328 2405 0
c1323 0 2405 3 2405 8 -1 4 -7 18 -15 32 -8 14 -14 31 -15 38 0 18 20 14 26
-5 3 -10 10 -30 16 -45 l10 -28 210 0 c256 0 247 -5 248 135 0 86 10 128 27
112 4 -4 10 -61 14 -125 4 -64 8 -118 8 -119 1 -2 70 -3 154 -3 l153 0 -4 35
c-2 19 -2 35 1 35 4 0 21 -16 40 -35 l34 -35 142 0 141 0 0 43 c0 24 -9 93
-20 153 -24 131 -23 124 -6 124 8 0 19 -15 25 -33 10 -30 51 -254 51 -278 0
-5 91 -9 221 -9 192 0 220 2 215 15 -3 9 0 15 8 15 8 0 17 -7 20 -15 5 -13 21
-15 83 -13 l78 3 3 35 c5 48 22 63 22 19 0 -43 15 -59 53 -59 20 0 28 4 24 13
-3 8 -8 39 -12 69 -6 45 -4 56 9 61 21 8 26 -2 33 -78 5 -53 9 -65 23 -65 17
0 35 25 32 43 -3 12 49 109 55 103 3 -3 1 -25 -5 -48 -27 -106 -29 -98 33 -98
54 0 54 0 45 26 -18 47 -14 56 25 48 35 -6 35 -6 35 30 0 20 4 36 9 36 11 0
32 -25 30 -36 -1 -5 -1 -30 0 -56 l1 -48 56 0 c45 0 55 3 51 14 -7 17 18 40
33 31 5 -3 10 -15 10 -26 0 -10 6 -19 14 -19 17 0 28 63 16 95 -12 30 -1 39
22 18 17 -15 18 -15 18 5 0 12 4 22 9 22 14 0 41 -41 41 -62 0 -39 20 -15 26
32 4 28 10 53 15 56 13 8 49 -19 49 -36 0 -9 5 -21 11 -27 8 -8 8 -13 0 -17
-15 -10 -14 -49 2 -44 16 6 21 52 7 78 -9 16 -8 25 1 36 12 14 8 122 -7 206
-4 24 -3 38 4 38 17 0 43 -68 49 -128 4 -31 12 -67 20 -79 12 -17 12 -25 1
-42 -7 -11 -19 -22 -28 -25 -11 -3 -9 -6 7 -11 14 -5 24 -18 28 -39 15 -75 17
-76 137 -76 98 0 108 2 108 18 0 10 -7 27 -15 38 -14 19 -14 18 -15 -3 0 -14
-6 -23 -15 -23 -8 0 -15 8 -15 18 0 11 -7 33 -16 51 -9 19 -13 42 -10 57 5 19
2 26 -17 33 -41 16 -76 2 -92 -35 -14 -35 -41 -49 -31 -16 3 9 12 53 21 97 12
65 13 91 4 138 -11 56 -6 273 6 285 11 11 14 -9 20 -128 5 -115 27 -280 40
-300 3 -5 11 -7 18 -4 7 2 28 -9 47 -26 19 -17 37 -27 41 -23 5 5 4 39 -1 76
-10 69 -5 101 11 76 5 -8 9 -24 9 -36 0 -13 6 -23 14 -23 16 0 50 -118 41
-142 -4 -9 5 -36 19 -63 31 -54 31 -52 9 -58 -13 -3 -11 -5 6 -6 22 -1 23 2
18 37 -4 37 -3 39 24 39 32 0 36 -8 14 -27 -8 -7 -15 -21 -15 -31 0 -15 7 -19
38 -19 21 0 43 5 50 12 9 9 12 9 12 0 0 -7 9 -12 20 -12 16 0 20 7 20 34 0 19
4 37 9 40 4 3 11 26 14 52 7 67 37 89 41 30 1 -33 20 -33 47 -2 12 14 28 22
35 19 22 -8 16 11 -7 25 -12 7 -19 16 -16 18 4 4 80 -18 138 -41 20 -8 32 29
18 54 -17 30 -79 185 -79 198 0 51 68 -68 90 -159 7 -27 14 -48 16 -48 1 0 19
9 38 21 22 13 43 18 56 14 15 -5 20 -2 20 12 0 11 -5 24 -12 31 -14 14 -4 27
14 18 39 -20 57 -35 88 -69 43 -49 29 -68 -24 -32 -41 28 -71 26 -119 -8 -25
-17 -28 -24 -22 -55 9 -47 60 -110 94 -114 18 -2 26 -9 25 -20 -1 -11 5 -18
15 -18 10 0 17 7 17 18 -1 26 19 30 22 5 4 -30 50 -31 75 -3 9 11 23 20 31 20
8 0 16 7 20 15 3 8 12 15 20 15 11 0 12 -8 6 -35 l-8 -35 43 0 c39 0 42 2 38
24 -7 36 13 40 33 6 16 -26 24 -30 60 -30 l41 0 34 73 c18 39 35 75 37 80 2 4
-3 7 -12 7 -9 0 -16 8 -16 17 0 9 -7 24 -14 32 -21 23 -4 50 18 32 9 -8 16
-22 16 -32 0 -44 33 -27 45 24 5 20 13 27 26 25 10 -2 25 6 33 17 13 18 11 23
-14 51 -17 20 -33 54 -39 86 -7 29 -14 63 -17 75 -5 19 -2 23 17 23 29 0 55
-51 64 -125 4 -28 10 -57 15 -64 12 -21 32 -2 29 27 -3 38 31 92 58 92 17 0
24 -8 29 -36 6 -34 0 -122 -12 -171 -5 -16 -2 -23 9 -23 22 0 26 -21 8 -52
-17 -29 -10 -47 11 -31 7 6 25 13 41 15 27 5 34 -6 28 -50 -1 -8 5 -22 15 -33
15 -17 15 -19 0 -25 -9 -3 -22 -1 -29 5 -10 8 -17 7 -25 -1 -25 -25 -13 -38
37 -38 l48 0 10 43 11 42 1 -42 1 -43 45 0 45 0 0 37 c0 23 9 50 25 73 22 32
25 48 27 121 1 130 -1 179 -10 179 -7 0 -42 -62 -42 -74 0 -2 9 -6 20 -9 22
-6 28 -27 7 -27 -7 0 -18 5 -24 11 -20 20 -40 3 -90 -72 -26 -40 -54 -75 -62
-77 -8 -3 -2 11 13 31 15 20 25 41 22 46 -4 5 2 16 12 23 26 19 129 169 151
221 11 24 24 48 30 51 6 4 11 16 11 27 0 11 7 19 16 19 12 0 15 -6 9 -22 -3
-13 -8 -59 -11 -103 -2 -44 -6 -86 -9 -92 -2 -7 3 -17 13 -22 12 -7 17 -24 18
-64 2 -67 11 -85 28 -61 19 26 31 -1 16 -37 -13 -30 -24 -36 -35 -19 -13 20
-23 8 -44 -52 -42 -116 -46 -108 53 -108 67 0 86 3 86 14 0 7 16 21 35 30 26
13 35 23 35 41 0 13 7 28 16 33 10 5 14 15 10 21 -6 9 -18 4 -43 -15 -19 -14
-36 -24 -39 -21 -9 9 8 35 25 40 12 3 21 18 25 41 7 35 30 49 39 24 2 -7 7
-10 11 -7 10 10 -5 39 -20 39 -8 0 -14 5 -14 10 0 6 5 10 11 10 8 0 10 18 5
59 -5 46 -3 61 9 71 18 15 17 15 39 -28 17 -32 18 -33 36 -17 10 9 24 31 31
48 7 18 21 52 32 76 16 38 17 46 5 55 -7 6 -19 30 -26 54 -11 37 -11 45 5 67
31 42 47 41 39 -2 -3 -21 -9 -48 -12 -60 -5 -17 -2 -23 10 -23 19 0 35 37 40
91 2 23 14 50 30 69 14 17 26 36 26 41 0 5 5 9 11 9 7 0 9 -12 5 -35 -4 -19
-3 -35 2 -35 4 0 16 16 25 35 17 35 46 51 32 18 -4 -10 -14 -38 -22 -63 -8
-25 -19 -54 -24 -65 -19 -42 -27 -73 -22 -79 7 -7 56 18 72 38 22 27 41 19 41
-16 1 -18 7 -44 15 -58 17 -29 17 -27 15 62 -1 40 3 69 10 73 17 11 23 -1 22
-42 -2 -53 11 -72 33 -50 22 22 39 22 30 0 -4 -10 -8 -25 -9 -33 -1 -8 -8 -34
-15 -58 -12 -42 -11 -45 14 -70 20 -20 28 -23 35 -13 16 27 27 0 29 -71 1 -39
3 -73 5 -75 5 -6 66 28 66 37 0 5 -5 12 -11 15 -6 5 -4 12 8 20 16 12 16 17 5
36 -10 16 -11 24 -2 29 6 4 11 35 12 76 0 38 7 99 15 136 l15 67 -31 46 c-17
25 -28 51 -25 58 3 8 -2 20 -11 27 -8 7 -15 23 -15 35 0 12 -8 33 -17 46 -10
13 -36 59 -58 102 -22 42 -47 79 -57 82 -9 3 -21 19 -27 36 -5 16 -24 41 -41
55 -16 14 -30 31 -30 38 0 13 -28 45 -71 82 -28 24 -79 85 -79 95 0 3 -18 18
-39 32 -43 28 -60 62 -41 81 8 8 24 -3 65 -44 30 -30 78 -75 106 -100 28 -25
62 -58 77 -74 111 -117 132 -143 132 -158 0 -10 4 -18 9 -18 5 0 17 -17 26
-37 10 -21 32 -53 49 -71 32 -33 76 -108 76 -128 0 -6 9 -19 20 -29 11 -10 20
-26 20 -35 0 -22 26 -45 34 -31 3 5 1 11 -6 13 -8 3 -9 12 0 36 13 37 7 62
-14 62 -10 0 -13 7 -9 23 4 15 1 28 -9 36 -9 8 -16 25 -16 40 0 18 -9 32 -30
46 -16 11 -30 28 -30 38 0 11 -9 30 -20 44 -11 14 -20 31 -20 38 0 16 -52 61
-79 70 -12 4 -17 12 -14 24 7 26 -12 57 -47 78 -17 9 -30 23 -30 31 0 7 -11
28 -25 46 -42 55 -26 73 35 41 22 -11 30 -23 30 -43 0 -22 7 -30 39 -43 27
-11 44 -28 56 -52 9 -19 32 -49 51 -66 19 -17 34 -37 34 -44 0 -14 63 -67 81
-67 6 0 9 -8 6 -19 -2 -11 5 -31 19 -47 13 -16 23 -36 24 -45 0 -9 7 -22 15
-29 8 -7 15 -18 15 -24 0 -6 9 -28 20 -49 11 -20 20 -44 20 -53 0 -14 3 -14
15 -4 21 18 30 5 26 -37 -3 -35 -2 -36 27 -30 24 5 36 -1 76 -38 l46 -44 36
19 c19 11 43 20 54 20 24 0 25 8 6 36 -8 11 -17 41 -21 68 -7 43 -5 50 21 77
24 25 27 32 16 49 -7 11 -12 35 -12 54 0 33 -20 63 -33 49 -11 -10 -8 17 4 39
9 17 8 24 -5 33 -18 13 -22 50 -6 60 28 17 -10 128 -56 164 -13 10 -24 28 -24
40 0 12 -6 24 -14 27 -7 3 -11 14 -9 28 3 15 -1 25 -12 30 -14 5 -16 1 -10
-24 4 -17 4 -30 2 -30 -12 0 -48 86 -45 109 2 27 -30 71 -53 71 -6 0 -8 8 -4
19 7 24 -18 45 -45 36 -26 -8 -26 -21 0 -28 11 -3 27 -21 35 -39 7 -19 21 -40
29 -48 9 -7 16 -28 16 -49 l-1 -36 -22 38 c-12 20 -32 40 -44 43 -26 7 -28 15
-10 33 10 10 8 16 -8 29 -11 9 -28 34 -38 54 -9 20 -23 38 -30 41 -6 2 -9 8
-5 12 4 4 14 2 22 -4 16 -13 36 -7 36 10 0 13 -52 58 -67 59 -6 0 -14 13 -18
30 -7 30 -41 63 -57 54 -4 -3 -19 6 -33 20 -14 15 -32 26 -40 26 -17 0 -19 12
-5 26 17 17 -22 57 -56 57 -25 0 -29 4 -31 30 -3 33 -19 57 -38 57 -7 0 -43
34 -80 75 -65 72 -105 100 -113 76 -5 -16 -22 -3 -22 18 0 21 -73 92 -118 115
-17 9 -35 22 -39 29 -4 7 -23 23 -41 36 -26 18 -31 27 -26 44 6 19 5 20 -9 9
-14 -12 -22 -8 -60 27 -24 23 -47 41 -51 41 -9 0 -30 17 -79 66 -23 22 -49 43
-57 46 -12 4 -12 8 -3 18 10 10 18 10 45 0 47 -19 66 -38 70 -68 2 -22 9 -28
38 -33 40 -6 71 -21 90 -43 7 -9 21 -16 31 -16 12 0 19 -7 19 -20 0 -11 8 -24
18 -27 40 -15 93 -57 87 -70 -3 -7 -7 -19 -10 -26 -4 -10 3 -12 29 -9 24 3 44
-2 63 -15 15 -11 36 -23 45 -26 11 -4 17 -15 15 -28 -2 -18 7 -25 48 -38 41
-13 55 -24 80 -63 17 -26 39 -50 50 -54 11 -4 24 -13 30 -20 5 -7 26 -17 45
-21 28 -7 36 -15 38 -36 2 -18 13 -32 32 -42 16 -8 33 -22 38 -31 17 -30 105
-114 119 -114 8 0 17 9 20 20 7 25 29 26 43 1 15 -29 12 -41 -9 -41 -17 0 -18
-3 -8 -25 7 -14 20 -25 29 -25 9 0 22 -8 27 -17 6 -10 11 -12 11 -5 0 6 6 12
14 12 19 0 33 -23 18 -28 -21 -7 -13 -57 11 -80 25 -24 37 -20 37 10 0 24 16
23 34 -4 11 -15 12 -26 6 -32 -25 -25 3 -99 33 -92 7 2 9 1 5 -1 -15 -8 -8
-29 15 -51 30 -28 37 -28 37 3 0 31 7 31 29 3 10 -11 23 -18 29 -14 15 9 4 34
-19 41 -14 5 -19 16 -19 41 0 26 -4 34 -18 34 -11 0 -23 13 -31 35 -7 19 -29
52 -49 72 -20 21 -35 44 -33 52 1 7 -12 29 -30 47 -32 33 -59 44 -59 24 0 -5
-5 -10 -11 -10 -7 0 -9 12 -5 33 5 28 2 38 -23 61 -16 15 -36 26 -46 24 -21
-4 -47 32 -27 39 21 8 13 42 -15 60 -35 21 -67 52 -80 76 -5 10 -27 29 -49 41
-21 12 -39 26 -39 31 -1 16 -37 65 -48 65 -6 0 -31 17 -56 38 -25 21 -58 45
-73 55 -15 9 -51 42 -81 72 -29 30 -58 55 -63 55 -5 0 -38 27 -72 60 -35 33
-68 60 -74 60 -6 0 -26 18 -45 39 -18 22 -49 45 -68 51 -43 14 -46 30 -5 30
43 0 109 -37 116 -66 4 -15 13 -24 26 -24 21 0 108 -56 107 -68 -3 -20 4 -28
34 -41 53 -23 107 -65 107 -83 0 -10 7 -18 16 -18 8 0 37 -23 64 -50 27 -28
72 -62 100 -76 27 -14 50 -32 50 -40 0 -8 9 -14 21 -14 14 0 24 -10 32 -29 6
-16 21 -35 34 -42 13 -7 23 -20 23 -29 0 -22 17 -36 52 -45 37 -9 61 -39 60
-75 0 -22 4 -30 17 -30 10 0 26 -9 36 -20 10 -11 30 -20 44 -20 19 0 22 -3 13
-12 -26 -26 -4 -66 31 -53 15 6 47 -48 47 -81 0 -13 4 -24 9 -24 13 0 23 34
15 54 -3 9 -1 16 5 16 6 0 11 6 11 13 0 19 -59 60 -76 53 -8 -3 -14 1 -14 8 0
8 6 16 12 18 8 3 -2 18 -25 39 -21 20 -44 46 -50 60 -7 13 -23 25 -35 27 -12
2 -22 8 -22 14 0 23 -67 98 -112 125 -26 15 -48 34 -48 40 0 19 -85 101 -115
113 -14 5 -29 18 -32 27 -4 10 -20 29 -37 43 -16 14 -43 40 -59 57 -17 18 -51
43 -77 56 -25 13 -45 27 -43 33 1 5 -1 14 -5 19 -10 15 -79 65 -89 65 -4 0
-27 17 -50 38 -24 20 -61 50 -83 67 -22 16 -47 39 -55 52 -9 13 -24 23 -35 23
-11 0 -34 15 -52 33 -18 18 -58 44 -88 59 -30 14 -66 38 -79 52 -14 14 -32 26
-42 26 -10 0 -21 5 -24 10 -3 6 -15 10 -25 10 -11 0 -26 10 -34 23 -9 12 -38
31 -67 42 -28 11 -56 27 -63 36 -6 9 -32 23 -56 30 -25 7 -56 22 -70 35 -14
12 -42 27 -62 32 -21 6 -50 20 -64 31 -15 11 -31 18 -36 15 -6 -4 -31 3 -57
14 -98 42 -128 52 -197 61 -39 5 -84 7 -100 4 -35 -6 -91 -30 -96 -42 -7 -18
-151 -81 -200 -87 -29 -4 -61 -11 -71 -16 -14 -7 -25 -4 -42 12 -14 13 -32 20
-47 18 -14 -2 -30 4 -41 16 -17 19 -18 19 -33 -2 -18 -26 -34 -20 -34 12 0 27
-24 51 -40 41 -5 -3 -10 -24 -10 -46 0 -38 0 -39 -37 -39 -43 0 -55 6 -71 35
-10 18 -11 18 -12 2 0 -10 -5 -15 -11 -11 -6 3 -8 17 -5 29 3 13 2 27 -4 30
-5 3 -10 19 -10 34 0 16 -7 34 -15 41 -8 7 -15 19 -15 26 0 8 -7 14 -15 14 -8
0 -15 7 -15 15 0 8 -7 15 -15 15 -8 0 -15 8 -15 19 0 10 -6 24 -14 31 -8 6
-16 21 -18 33 -4 30 -34 29 -31 -1 2 -13 -4 -25 -13 -29 -22 -8 -64 17 -64 38
0 10 -4 20 -9 23 -4 3 -6 18 -3 32 3 19 -1 31 -12 40 -20 14 -18 61 2 56 6 -1
12 2 12 8 0 5 -11 10 -25 10 -21 0 -24 3 -17 18 5 9 7 23 5 30 -3 7 1 20 8 28
7 9 14 41 14 73 1 31 7 66 13 78 16 29 15 33 -7 33 -14 0 -21 10 -26 33 -4 17
-14 40 -22 49 -9 10 -13 26 -10 38 5 18 1 20 -41 19 -37 -1 -41 -3 -22 -8z
m-7089 -1678 c16 -53 20 -233 5 -282 -15 -52 -22 -58 -45 -37 -16 15 -19 15
-24 1 -4 -8 -10 -15 -16 -15 -16 0 -19 39 -5 51 10 8 13 22 9 41 -5 20 -3 28
7 28 7 0 2 9 -11 19 -13 10 -21 23 -17 29 7 12 -10 52 -27 63 -6 4 -3 28 8 63
13 40 23 56 36 56 9 0 19 -5 21 -12 3 -7 11 -9 24 -3 17 7 17 8 2 12 -24 6
-23 23 2 23 13 0 22 -11 31 -37z m769 -1284 c10 -24 10 -35 0 -55 -12 -21 -11
-26 5 -38 13 -9 16 -20 11 -39 -3 -14 -1 -29 4 -32 6 -4 8 -10 5 -14 -2 -5 5
-17 17 -27 20 -19 21 -19 14 4 -6 18 -4 22 13 22 12 0 26 9 33 20 7 11 21 20
30 20 10 0 18 5 18 10 0 6 9 10 20 10 25 0 25 -8 -2 -70 -20 -46 -38 -65 -38
-40 0 6 -4 10 -10 10 -5 0 -10 -11 -10 -24 0 -13 -7 -29 -15 -36 -8 -7 -15
-18 -15 -25 0 -12 -21 -25 -41 -25 -5 0 -9 11 -9 24 0 29 -28 43 -36 18 -11
-35 -22 -47 -41 -44 -29 4 -48 -22 -28 -38 19 -16 19 -40 0 -40 -8 0 -15 7
-15 15 0 9 -7 18 -16 22 -11 4 -14 14 -10 34 7 35 -10 48 -18 14 -6 -24 -8
-25 -27 -11 -12 8 -28 12 -37 9 -12 -5 -14 -1 -10 15 4 12 2 25 -3 28 -6 4 -6
10 0 18 18 21 13 56 -20 134 l-14 33 -27 -20 c-40 -32 -65 -27 -83 16 -18 44
-5 66 19 32 9 -13 16 -30 16 -37 0 -28 25 -4 30 29 4 30 9 34 38 37 21 2 32
-1 32 -10 0 -7 9 -19 20 -26 18 -11 49 -68 54 -102 4 -23 29 -18 43 10 8 16 9
28 2 36 -5 6 -7 18 -4 26 7 19 60 49 70 40 4 -4 5 4 2 17 -7 27 2 81 13 81 4
0 13 -14 20 -31z m-807 -113 c20 -36 45 -67 55 -70 18 -6 44 -43 61 -89 10
-25 8 -27 -14 -27 -28 0 -65 33 -83 74 -11 24 -15 27 -22 16 -15 -25 -29 2
-34 64 -2 32 -9 63 -15 69 -15 15 -14 27 2 27 7 0 29 -29 50 -64z m8736 -166
c35 -82 79 -206 96 -270 32 -122 48 -337 30 -382 -11 -28 -35 -22 -35 8 0 19
-4 25 -15 20 -19 -7 -19 -1 1 29 39 59 9 216 -122 637 -12 40 25 4 45 -42z
m441 -139 c0 -9 7 -29 15 -45 27 -51 55 -148 55 -188 0 -42 5 -46 32 -21 24
22 36 8 14 -16 -15 -17 -16 -24 -5 -63 7 -23 17 -48 21 -55 6 -7 3 -22 -8 -38
-16 -25 -19 -26 -30 -10 -8 10 -11 30 -7 46 3 18 1 29 -5 29 -17 0 -26 -21
-32 -73 -7 -63 -26 -61 -22 2 3 37 0 51 -12 58 -14 8 -12 12 14 31 17 13 28
28 24 33 -4 6 -11 6 -20 -2 -20 -16 -30 -3 -39 49 -5 34 -4 42 9 42 24 0 28
18 12 47 -19 34 -46 144 -46 185 0 26 2 29 15 18 8 -7 15 -20 15 -29z m-1389
-75 c-12 -66 -45 -187 -91 -329 -11 -32 -17 -64 -14 -71 3 -7 -3 -19 -12 -27
-15 -12 -19 -11 -32 9 -8 12 -22 22 -31 22 -23 0 -105 40 -97 47 7 7 95 -17
102 -28 3 -5 9 -9 14 -9 9 0 52 126 115 335 47 156 46 153 52 136 3 -8 0 -46
-6 -85z"/>
<path d="M9758 4103 c14 -3 28 -17 37 -39 8 -19 21 -34 30 -34 8 0 20 -11 25
-25 5 -14 13 -25 18 -25 5 0 14 -18 21 -40 6 -22 15 -40 19 -40 4 0 15 12 24
28 l17 27 13 -32 c12 -33 31 -42 43 -23 13 22 22 8 19 -30 -3 -35 -1 -40 17
-40 11 0 17 5 14 10 -3 6 5 10 19 10 14 0 28 5 32 11 3 6 17 9 31 6 16 -3 27
1 30 10 3 8 15 13 27 12 11 -1 30 2 40 6 13 6 23 3 32 -10 8 -10 14 -16 14
-13 0 12 95 -13 102 -27 5 -8 28 -23 52 -34 26 -11 47 -28 51 -41 5 -16 10
-19 20 -10 18 15 71 4 79 -17 4 -10 15 -14 31 -10 14 2 28 0 31 -4 3 -5 18 -9
33 -9 21 0 28 5 27 18 -1 14 8 17 53 19 72 3 81 7 74 35 -5 19 -3 21 8 11 20
-19 29 -16 29 11 0 14 5 28 10 31 6 3 10 -1 10 -10 0 -24 35 -14 36 10 1 11 2
26 3 33 1 6 8 12 16 12 8 0 15 5 15 10 0 6 -11 10 -25 10 -14 0 -29 8 -36 21
-7 15 -18 20 -34 17 -17 -4 -29 3 -44 23 -12 16 -21 30 -21 33 0 9 -51 56 -60
56 -17 0 -90 34 -90 42 0 5 -206 7 -457 7 -252 -1 -448 -4 -435 -6z"/>
<path d="M11993 4103 c14 -4 16 -11 12 -36 -5 -25 0 -38 21 -62 46 -53 84
-113 84 -134 0 -23 25 -29 33 -8 3 8 6 66 6 130 l1 117 -87 -1 c-49 -1 -80 -3
-70 -6z"/>
<path d="M2300 3903 c-1 -29 -24 -51 -57 -54 -32 -4 -63 14 -63 37 0 18 -18
18 -37 -1 -11 -11 -19 -13 -27 -5 -9 7 -19 3 -36 -15 -13 -14 -31 -25 -40 -25
-9 0 -21 -5 -28 -12 -8 -8 -15 -8 -27 2 -14 11 -17 10 -22 -9 -4 -16 -9 -19
-19 -11 -11 10 -31 3 -73 -27 -2 -1 1 -9 8 -17 9 -11 8 -15 -4 -20 -23 -8 -19
-46 5 -46 11 0 20 -6 20 -13 0 -7 9 -23 20 -35 11 -12 20 -34 20 -50 0 -32 16
-52 42 -52 14 0 17 5 12 24 -8 35 9 39 40 11 15 -14 32 -23 37 -19 6 3 22 -7
37 -23 26 -28 27 -28 30 -6 6 39 74 71 85 41 3 -9 14 -3 31 16 25 26 28 27 44
12 16 -14 19 -13 31 6 l13 21 18 -23 18 -23 6 21 c9 26 21 28 30 5 8 -21 23
-6 28 27 2 14 13 29 25 35 12 5 24 17 26 27 3 10 12 18 21 18 13 0 15 8 12 35
-5 37 2 43 23 23 10 -11 15 -9 27 6 31 43 10 76 -50 78 -20 1 -36 6 -36 11 0
5 -6 4 -14 -2 -11 -9 -15 -9 -19 1 -4 10 -6 10 -6 1 -1 -19 -38 -16 -45 3 -3
9 -12 14 -19 11 -7 -3 -24 4 -38 14 -30 23 -49 24 -49 2z"/>
<path d="M6826 3834 c-24 -25 -30 -26 -88 -20 -54 5 -60 4 -43 -8 17 -12 15
-14 -21 -20 -51 -10 -68 -24 -53 -42 9 -11 8 -18 0 -28 -8 -10 -9 -16 -2 -21
7 -4 7 -12 -1 -25 -7 -10 -17 -16 -23 -12 -5 3 -4 -2 3 -10 8 -9 19 -15 25
-12 7 2 21 -13 32 -33 26 -52 55 -83 76 -83 9 0 19 -6 22 -12 3 -10 10 -8 25
5 13 12 28 16 41 12 16 -5 21 -2 22 12 0 14 2 13 10 -6 7 -18 15 -22 34 -19
15 3 30 -1 37 -9 7 -9 21 -12 34 -9 14 4 26 1 31 -7 4 -8 19 -20 32 -27 20
-10 25 -10 33 4 8 13 13 15 24 5 16 -13 48 -4 38 12 -7 12 -17 86 -17 132 0
22 -3 25 -13 16 -11 -9 -14 -6 -14 18 0 31 -38 98 -55 98 -6 1 -25 15 -44 33
-18 18 -44 35 -57 38 -14 4 -29 15 -35 25 -13 25 -21 24 -53 -7z"/>
<path d="M91 3621 c-18 -12 4 -55 25 -47 11 4 13 0 8 -18 -4 -17 0 -25 12 -30
10 -4 20 -3 23 2 4 6 16 6 29 1 17 -7 22 -14 17 -29 -4 -13 1 -25 14 -37 14
-11 21 -30 21 -51 0 -29 -2 -33 -14 -22 -8 6 -16 21 -18 33 -2 12 -11 23 -21
25 -17 3 -18 -1 -12 -30 11 -49 21 -57 78 -60 41 -2 54 -7 62 -25 8 -15 15
-19 25 -13 11 7 12 18 1 67 -7 32 -15 79 -18 106 -3 26 -10 47 -15 47 -6 0 -8
-12 -4 -30 7 -35 -17 -42 -34 -10 -8 15 -7 26 6 45 9 14 20 25 25 25 5 0 9 5
9 10 0 6 -7 10 -15 10 -8 0 -15 -4 -15 -10 0 -5 -7 -10 -15 -10 -8 0 -15 -7
-15 -15 0 -22 -6 -19 -45 22 -28 30 -37 34 -49 24 -17 -14 -36 -7 -36 15 0 16
-9 18 -29 5z"/>
<path d="M9395 3529 c-74 -7 -277 -45 -335 -63 -45 -14 -128 -52 -130 -61 -4
-12 29 -29 90 -46 25 -7 56 -21 69 -31 13 -10 33 -18 45 -18 40 -1 128 -38
175 -73 25 -19 63 -42 84 -51 20 -8 40 -22 43 -30 3 -8 21 -17 40 -21 19 -3
52 -21 72 -39 20 -18 53 -38 73 -45 20 -6 48 -25 64 -41 15 -16 52 -39 82 -51
37 -15 59 -31 69 -50 11 -22 24 -30 54 -35 27 -4 53 -20 87 -52 26 -24 69 -58
95 -74 26 -16 47 -34 45 -40 -1 -6 21 -25 50 -41 35 -21 56 -40 63 -60 7 -22
14 -28 27 -23 20 8 81 -22 88 -44 10 -31 64 -80 89 -80 17 0 37 -14 66 -49 44
-52 65 -66 83 -54 18 11 81 14 95 5 9 -6 10 -16 3 -33 -7 -19 -5 -30 9 -47 24
-30 33 -28 50 11 7 17 15 35 17 39 2 3 -5 9 -17 13 -14 4 -19 12 -16 22 4 8
-6 27 -24 45 -25 25 -28 33 -19 50 8 15 14 17 22 9 19 -19 37 -12 37 14 0 14
5 25 10 25 18 0 10 45 -10 58 -27 16 -16 34 16 26 35 -9 31 17 -6 39 -17 10
-30 27 -30 38 0 24 25 25 42 0 8 -11 27 -21 43 -23 25 -2 30 -8 30 -30 0 -14
3 -29 6 -33 8 -8 -30 -49 -53 -58 -10 -3 -19 -14 -19 -24 -5 -60 -4 -73 2 -73
4 0 12 14 18 30 8 24 16 30 40 30 20 0 36 8 48 23 l17 24 42 -31 c24 -17 43
-39 43 -48 1 -10 5 -18 11 -18 22 0 41 74 21 82 -5 2 -12 24 -16 51 -9 56 4
61 47 20 21 -20 31 -24 40 -15 8 8 4 14 -15 23 -22 10 -27 19 -27 49 0 21 -7
54 -15 73 -14 33 -17 35 -45 27 -21 -6 -28 -5 -24 2 4 6 1 14 -7 19 -8 5 -12
22 -10 47 2 28 -2 41 -13 45 -9 4 -16 14 -16 22 0 36 -266 281 -357 329 -75
40 -92 36 -74 -15 6 -17 11 -36 11 -41 0 -11 -80 1 -105 17 -15 9 -25 9 -37 1
-26 -16 -54 5 -50 38 2 23 -1 26 -28 26 -19 0 -37 8 -48 22 -43 53 -63 70 -75
60 -18 -14 -92 0 -93 18 -3 40 -4 41 -41 35 -25 -3 -31 -2 -19 3 14 6 16 11 8
16 -7 4 -12 4 -12 0 0 -3 -7 -1 -15 6 -8 7 -15 16 -15 20 0 10 69 -3 97 -18
12 -7 39 -13 60 -15 21 -1 43 -6 50 -10 6 -4 14 -3 17 2 10 15 -117 81 -143
74 -14 -4 -26 -1 -31 7 -5 8 -19 15 -32 17 -39 5 -71 12 -117 23 -24 6 -51 8
-58 5 -8 -3 -24 0 -36 7 -12 7 -47 13 -77 13 -30 1 -89 4 -130 7 -41 4 -115 2
-165 -3z m1320 -557 c4 -16 43 -42 60 -42 3 0 5 11 5 25 0 24 10 32 23 18 4
-3 3 -11 -3 -18 -6 -7 1 -26 20 -56 34 -50 37 -74 14 -87 -14 -8 -14 -12 -3
-30 16 -26 5 -40 -20 -25 -11 7 -21 9 -25 6 -11 -11 5 -23 30 -23 24 0 25 -3
19 -32 -9 -42 -14 -46 -28 -28 -7 8 -25 24 -41 34 -22 14 -30 15 -36 6 -4 -7
-13 -9 -20 -5 -10 6 -10 10 1 19 23 18 37 50 44 100 7 46 7 48 -34 82 -40 35
-55 74 -27 74 8 0 17 -8 21 -18z"/>
<path d="M433 3384 c-7 -7 -13 -17 -13 -22 0 -5 -7 -23 -16 -40 -15 -32 -44
-44 -44 -19 -1 7 -6 5 -14 -6 -10 -13 -15 -15 -19 -5 -2 7 -7 10 -11 7 -12
-11 11 -90 31 -104 15 -12 15 -14 2 -15 -8 0 -25 9 -37 20 -12 12 -22 16 -22
11 0 -5 -3 -16 -6 -25 -4 -11 -1 -16 10 -16 9 0 16 -7 16 -16 0 -10 7 -14 23
-12 24 3 60 40 48 48 -5 3 -11 24 -15 48 -6 38 -4 42 14 42 12 0 20 -7 20 -16
0 -9 7 -14 18 -12 12 2 17 13 18 36 1 42 11 50 29 26 18 -24 19 -10 2 38 -16
47 -19 49 -34 32z"/>
<path d="M11056 3198 c-3 -7 -6 -28 -9 -47 -3 -26 0 -35 15 -39 10 -2 18 -13
18 -23 0 -23 -48 -27 -56 -4 -4 8 -11 15 -16 15 -6 0 -7 -8 -4 -17 4 -9 2 -19
-4 -23 -15 -9 19 -140 38 -147 7 -3 19 2 26 12 14 19 36 13 36 -11 0 -8 4 -14
9 -14 5 0 17 -18 27 -40 10 -22 21 -40 26 -40 4 0 8 -6 8 -13 0 -7 16 -27 35
-45 34 -33 55 -35 55 -6 0 19 -44 89 -67 106 -31 23 -84 107 -90 141 -3 23 0
37 11 46 9 7 16 19 16 26 0 11 21 25 37 25 7 0 -2 -59 -11 -81 -9 -21 29 -60
50 -52 9 3 14 -1 14 -12 0 -12 -6 -16 -20 -12 -23 6 -25 -1 -6 -25 23 -31 66
-15 66 24 0 10 5 18 10 18 6 0 10 11 10 25 0 16 6 25 15 25 17 0 20 -26 4 -36
-7 -4 -2 -15 16 -31 20 -19 32 -23 53 -18 22 5 25 4 15 -6 -19 -19 -16 -39 7
-39 11 0 29 -9 41 -21 11 -11 22 -19 23 -17 1 2 7 15 14 31 6 15 17 27 23 27
15 0 69 -59 69 -76 0 -6 12 -15 26 -18 l27 -7 -22 -20 c-22 -21 -27 -58 -22
-175 2 -34 -2 -71 -8 -82 -8 -15 -8 -23 0 -28 6 -3 9 -17 6 -30 -2 -12 0 -29
4 -36 7 -10 12 -8 25 10 l16 23 35 -40 c23 -28 43 -41 60 -41 25 0 62 34 63
58 0 6 9 21 20 32 11 11 20 31 20 44 0 13 6 26 14 29 24 9 -7 93 -46 127 -28
24 -30 30 -19 44 12 14 11 19 -2 34 -9 9 -20 30 -26 45 -7 19 -15 26 -23 21
-24 -15 -48 -11 -48 8 0 11 -7 18 -20 18 -11 0 -27 11 -36 24 -8 14 -21 23
-27 20 -12 -4 -22 10 -48 66 -15 32 -72 62 -104 54 -25 -6 -65 10 -65 27 0 14
-61 71 -68 65 -3 -3 1 -12 8 -21 7 -8 9 -15 4 -15 -15 0 -36 17 -34 26 2 9
-13 19 -44 28 -12 4 -16 12 -12 22 11 28 -21 64 -54 64 -21 0 -30 -5 -30 -16
0 -9 -6 -14 -12 -11 -7 2 -13 10 -13 18 0 18 -44 25 -49 7z"/>
<path d="M2900 3190 c0 -5 -11 -10 -25 -10 -20 0 -25 -5 -25 -24 0 -17 -7 -27
-22 -32 -36 -11 -75 -60 -87 -109 -6 -25 -9 -50 -6 -55 3 -5 1 -11 -5 -15 -5
-3 -10 -1 -10 4 0 6 -7 11 -15 11 -8 0 -15 -3 -15 -7 0 -5 -11 -21 -24 -38
l-24 -30 -22 28 c-19 23 -24 26 -38 15 -12 -10 -16 -10 -19 0 -8 22 -38 13
-50 -15 -6 -16 -10 -55 -8 -88 3 -49 1 -62 -15 -78 -25 -23 -25 -43 -1 -50 19
-4 33 -50 24 -74 -3 -8 -23 -13 -57 -13 -29 0 -57 -5 -64 -12 -9 -9 -12 -8
-12 5 0 22 -19 22 -26 0 -18 -55 -28 -73 -45 -78 -14 -5 -19 -15 -18 -43 2
-64 13 -97 31 -97 10 0 26 -7 36 -16 10 -8 23 -14 29 -12 6 2 14 -1 18 -7 4
-6 14 -2 26 12 l19 23 19 -24 c11 -15 24 -22 34 -18 11 4 14 2 10 -9 -3 -8 1
-14 9 -14 8 0 18 -14 23 -32 8 -24 18 -34 41 -40 18 -5 35 -18 42 -33 13 -28
20 -30 57 -13 31 14 45 1 45 -44 0 -31 11 -36 30 -13 7 8 17 15 23 15 6 0 21
10 33 21 l23 22 12 -27 c9 -18 20 -26 39 -26 14 0 31 -5 38 -12 9 -9 13 -7 18
5 3 9 17 17 30 17 13 0 24 5 24 10 0 19 38 10 43 -11 3 -12 10 -18 17 -14 6 4
17 2 25 -5 8 -7 15 -7 19 -1 4 5 2 12 -4 16 -5 3 -10 12 -10 18 0 7 5 4 11 -5
5 -10 17 -18 24 -18 17 0 20 -16 5 -25 -15 -9 -2 -25 20 -25 10 0 21 -7 24
-15 5 -13 10 -14 28 -4 20 11 26 8 54 -25 25 -29 33 -33 38 -21 3 9 3 27 0 41
-5 18 -2 24 10 24 9 0 16 7 16 15 0 8 5 15 11 15 7 0 8 7 3 18 -12 28 -11 102
2 102 7 0 15 -11 18 -25 10 -38 55 -34 97 10 19 20 44 35 57 35 13 0 32 4 42
10 13 7 21 6 30 -5 7 -8 23 -15 35 -15 12 0 28 -7 35 -15 16 -19 36 -19 44 0
3 8 16 15 30 15 14 0 28 5 31 10 4 7 12 7 25 0 10 -5 39 -7 65 -3 41 5 47 9
52 34 3 16 12 29 20 29 9 0 12 -6 8 -19 -3 -10 1 -23 9 -30 11 -9 15 -6 20 15
l7 27 15 -29 c8 -15 12 -39 9 -52 -7 -27 18 -67 42 -67 10 0 24 -12 31 -27 16
-33 28 -36 35 -8 7 28 26 25 38 -7 l11 -28 17 22 c13 15 25 20 40 16 12 -3 21
-1 21 6 0 6 9 11 20 11 13 0 22 9 26 27 6 24 8 25 20 8 15 -20 44 -14 44 9 0
20 53 74 84 85 64 25 27 184 -39 167 -19 -5 -22 -3 -18 12 10 39 -38 52 -115
33 -32 -9 -48 -8 -65 1 -12 6 -35 11 -51 9 -16 -2 -33 3 -38 11 -7 10 -11 9
-23 -6 -8 -11 -15 -30 -15 -42 0 -13 -5 -35 -10 -50 -10 -26 -11 -26 -30 -9
-11 10 -17 22 -14 26 9 15 -33 10 -45 -5 -7 -8 -9 -25 -6 -38 5 -19 2 -24 -15
-25 -15 -1 -20 2 -16 13 3 9 -2 17 -12 21 -23 9 -46 42 -50 73 -2 14 -14 35
-28 48 -13 13 -24 26 -24 30 0 4 -11 9 -24 10 -36 3 -76 20 -76 33 0 7 -11 27
-25 45 -14 18 -25 39 -25 46 -1 8 -5 7 -14 -5 -9 -12 -16 -14 -21 -8 -10 17
-25 13 -33 -9 -5 -14 -11 -17 -22 -10 -12 8 -13 13 -2 30 15 24 15 30 2 30 -5
0 -10 -5 -10 -11 0 -6 -10 -22 -22 -34 -22 -23 -22 -23 -46 -4 -14 10 -28 16
-33 13 -5 -3 -15 -2 -21 3 -7 4 -19 8 -27 9 -7 2 -23 12 -36 24 l-23 21 -10
-30 c-13 -38 -22 -38 -54 -6 -21 21 -27 23 -32 10 -8 -21 -23 -19 -31 4 -3 11
-12 18 -20 15 -7 -3 -16 -1 -19 4 -3 6 -15 8 -26 5 -16 -4 -19 -2 -14 11 3 9
13 16 21 16 9 0 13 6 9 15 -8 21 3 45 20 45 9 0 14 11 14 28 1 45 24 122 35
114 6 -4 18 -19 28 -34 22 -35 54 -40 36 -6 -9 17 -9 24 3 32 8 6 17 19 21 29
11 29 27 19 27 -16 0 -18 7 -57 15 -85 12 -38 13 -62 7 -86 -8 -28 -6 -36 9
-50 22 -18 33 -21 24 -6 -4 6 -2 16 4 23 5 7 9 26 9 43 -1 17 2 37 7 43 10 17
36 -34 28 -55 -7 -19 44 -67 60 -57 6 4 4 11 -6 18 -21 15 -21 25 0 40 14 11
13 16 -16 58 -23 34 -31 57 -30 84 1 39 -8 130 -17 171 -5 26 -22 29 -40 5
-11 -15 -16 -16 -33 -5 -28 17 -58 15 -65 -4 -10 -25 -7 -66 4 -59 6 3 10 1
10 -5 0 -10 -19 -8 -72 7 -13 3 -16 0 -12 -11 7 -19 -7 -21 -25 -3 -11 10 -13
6 -9 -20 5 -38 6 -38 -34 -17 -30 15 -30 17 -24 70 5 43 3 54 -8 54 -8 0 -18
-5 -21 -10 -11 -18 -22 -1 -17 26 4 20 1 25 -9 22 -8 -2 -15 -17 -17 -31 -5
-37 -28 -34 -37 6 -8 30 -8 31 -12 7 -7 -39 -21 -46 -34 -17 -7 15 -16 24 -20
21 -5 -3 -14 6 -21 20 -11 25 -48 37 -48 16z"/>
<path d="M752 3153 c-9 -16 -30 -24 -62 -24 -43 0 -60 -10 -60 -34 0 -15 -7
-26 -21 -30 -16 -5 -20 -13 -16 -31 5 -29 -20 -47 -45 -33 -12 7 -17 3 -21
-19 -7 -35 10 -53 27 -30 7 10 16 14 20 10 4 -4 14 1 21 12 13 17 15 17 29 3
9 -9 16 -20 16 -26 0 -6 7 -11 15 -11 8 0 15 7 15 15 0 17 16 20 26 4 3 -6 16
-8 29 -5 15 4 25 1 29 -9 9 -24 24 -17 28 13 2 22 7 27 28 24 14 -1 26 -7 28
-12 4 -12 32 -1 32 14 0 6 -9 17 -20 24 -15 9 -18 17 -11 34 9 26 5 46 -17 71
-12 14 -17 15 -24 5 -6 -9 -7 -6 -4 7 8 28 -29 52 -42 28z"/>
<path d="M4193 2964 c-32 -37 -35 -54 -7 -54 8 0 14 -9 14 -20 0 -11 -5 -20
-10 -20 -7 0 -7 -7 0 -20 17 -33 33 -12 27 36 -5 49 3 56 23 19 8 -16 11 -41
7 -74 -5 -41 -3 -49 9 -44 7 3 14 12 14 20 0 14 3 14 23 0 25 -16 40 -12 50
15 4 11 13 15 26 11 16 -4 23 1 31 23 16 40 6 68 -30 81 -16 6 -30 17 -30 25
0 12 -70 38 -103 38 -6 0 -27 -16 -44 -36z"/>
<path d="M11849 2923 c-6 -30 -2 -60 9 -71 16 -17 7 -32 -19 -32 -11 0 -17 -4
-14 -10 3 -5 17 -10 30 -10 13 0 27 -5 31 -11 3 -6 17 -8 31 -4 24 6 24 4 18
-27 -10 -45 -11 -45 -44 -14 -16 16 -34 25 -40 22 -13 -8 -3 -36 13 -36 6 0
22 -16 34 -35 l24 -34 49 19 c48 19 48 19 63 -1 9 -13 16 -16 21 -10 8 14 -2
31 -20 31 -14 0 -25 21 -25 50 0 10 -9 20 -21 23 -12 3 -18 10 -14 17 13 20
-15 65 -47 78 -25 9 -29 14 -19 26 9 10 9 16 1 21 -6 4 -14 4 -17 1 -3 -3 -14
-1 -24 5 -11 5 -20 6 -20 2z"/>
<path d="M2225 2420 c-3 -5 -19 -7 -35 -3 -17 3 -30 2 -31 -3 -4 -48 -17 -67
-26 -36 -3 12 -10 22 -15 22 -5 0 -6 -5 -3 -10 4 -6 2 -16 -3 -23 -13 -15 -18
-99 -8 -115 4 -7 3 -18 -2 -25 -15 -19 -31 -97 -21 -103 5 -3 17 0 26 5 10 6
15 11 11 11 -4 0 0 21 9 46 11 32 18 42 24 33 4 -7 11 -10 16 -6 4 4 2 17 -5
27 -10 16 -8 26 8 55 11 20 18 40 15 46 -4 5 0 9 8 9 16 0 67 51 67 68 0 14
-26 16 -35 2z"/>
<path d="M2038 2403 c-7 -10 -19 -18 -25 -19 -26 -2 -29 -5 -47 -39 -20 -37
-49 -46 -64 -19 -8 15 -12 14 -43 -2 l-34 -18 35 -11 c80 -25 109 -51 141
-122 14 -34 23 -40 34 -23 3 6 1 10 -5 10 -15 0 -11 87 7 122 13 27 9 58 -8
58 -5 0 -9 5 -9 11 0 6 9 8 20 4 17 -6 20 -2 20 29 0 41 -3 43 -22 19z"/>
<path d="M11491 2207 c-13 -32 -14 -70 -4 -81 15 -15 42 -141 31 -147 -6 -4
-7 -12 -4 -18 12 -19 -4 -51 -25 -51 -16 0 -19 -5 -14 -20 6 -19 3 -20 -28
-17 -19 2 -47 11 -61 21 -15 9 -31 14 -36 11 -6 -3 -10 2 -10 12 -1 10 -7 32
-14 48 l-14 30 -15 -36 c-17 -39 -15 -141 3 -147 5 -2 10 -14 10 -27 0 -13 10
-29 25 -39 14 -9 25 -23 25 -31 0 -8 7 -15 15 -15 8 0 21 -13 30 -30 15 -29
35 -40 35 -20 0 6 11 8 25 4 20 -5 33 2 67 35 30 31 43 39 49 29 19 -28 6
-108 -17 -108 -14 0 -20 -31 -9 -42 4 -3 17 -1 30 6 22 10 24 16 23 79 -1 57
2 71 20 90 14 13 22 17 22 8 0 -8 6 -11 15 -7 10 3 15 -1 15 -11 0 -9 9 -26
20 -38 19 -20 19 -21 -10 -82 -22 -45 -35 -62 -52 -65 -24 -3 -24 -5 -42 -143
-3 -16 -7 -37 -11 -46 -7 -18 10 -35 20 -20 3 5 8 29 11 53 4 24 13 47 20 51
8 4 23 26 34 48 11 21 25 39 30 39 16 0 22 -20 10 -35 -6 -8 -9 -23 -5 -34 3
-12 -1 -31 -11 -46 -16 -25 -16 -27 5 -41 17 -13 20 -19 10 -30 -8 -10 -8 -14
0 -14 6 0 11 -4 11 -10 0 -16 -42 -53 -49 -44 -3 5 -17 15 -29 22 -21 12 -26
11 -38 -5 -13 -17 -15 -17 -34 7 -11 14 -20 32 -20 41 0 15 -30 49 -42 49 -15
0 -14 -30 3 -66 10 -21 18 -42 19 -46 0 -5 9 -17 20 -28 12 -12 20 -33 20 -53
0 -26 6 -36 25 -45 28 -13 39 -45 33 -102 -2 -26 1 -41 9 -44 13 -5 12 -74 -1
-94 -6 -11 -44 -5 -62 9 -18 14 -23 -1 -17 -50 6 -53 -8 -91 -35 -91 -9 -1
-32 -14 -50 -29 l-34 -29 21 -21 c22 -22 25 -30 15 -55 -7 -19 -30 -21 -37 -3
-2 6 -8 9 -12 5 -4 -4 2 -24 14 -44 12 -20 24 -56 28 -80 6 -46 17 -62 28 -44
13 22 21 8 21 -37 -1 -40 2 -48 16 -45 23 4 32 -16 16 -36 -29 -36 -54 -112
-36 -112 6 0 6 -6 -2 -15 -6 -8 -13 -34 -15 -57 -2 -24 -4 -45 -6 -48 -1 -3
-3 -9 -4 -15 -2 -5 -4 -12 -5 -15 -2 -3 -4 -26 -5 -52 l-2 -48 125 0 c106 0
123 2 118 15 -7 20 18 20 38 0 22 -22 33 -18 40 15 3 17 10 30 16 30 5 0 7
-13 4 -30 -5 -23 -3 -30 10 -30 13 0 16 11 16 54 0 80 11 147 24 143 17 -5 19
-56 5 -115 -7 -28 -10 -54 -8 -56 2 -2 15 -6 28 -8 21 -2 28 5 50 49 14 29 32
52 39 53 16 0 16 0 -8 -55 -25 -59 -25 -67 3 -63 19 3 22 9 22 45 1 23 4 45 8
49 4 4 7 19 7 33 0 30 16 59 26 48 4 -4 8 -32 10 -62 1 -30 8 -69 16 -85 11
-26 18 -30 50 -30 l38 0 0 244 0 243 -27 -4 c-65 -10 -68 -9 -71 22 -3 24 -1
28 9 18 7 -7 17 -13 21 -13 15 0 8 53 -9 73 -17 18 -17 19 1 32 19 15 19 35 0
138 -4 23 -3 37 4 37 10 0 15 -12 53 -115 l18 -50 1 128 0 128 -25 -28 c-21
-24 -24 -25 -25 -9 0 10 -11 29 -25 42 -21 20 -25 32 -25 83 0 67 12 84 33 46
12 -24 15 -25 26 -11 8 9 20 16 27 16 10 0 14 13 14 41 0 22 -4 38 -9 35 -4
-3 -15 2 -23 12 -13 14 -16 56 -9 111 1 2 10 -4 21 -14 20 -18 20 -17 20 13 0
18 -4 32 -9 32 -5 0 -14 14 -21 30 -12 29 -30 41 -30 20 0 -16 -27 -11 -34 6
-9 24 -8 26 15 19 18 -6 20 -4 14 28 -10 52 2 80 31 74 24 -4 33 6 14 18 -7 4
-5 14 5 28 11 16 15 51 15 149 0 110 -2 128 -17 137 -16 9 -16 12 -3 20 13 9
12 12 -5 25 -20 15 -20 15 3 31 16 12 22 26 22 56 0 47 -32 91 -52 71 -7 -7
-24 -12 -39 -12 -15 0 -31 -5 -34 -11 -5 -6 -12 -4 -21 8 -12 17 -13 17 -14 1
0 -10 -6 -18 -13 -18 -9 0 -18 22 -24 58 -9 47 -8 61 4 81 22 35 2 49 -32 22
-28 -21 -45 -20 -45 3 0 18 -35 56 -52 56 -26 0 -38 -23 -38 -72 0 -34 -5 -50
-15 -54 -17 -7 -20 -49 -5 -59 23 -14 10 -63 -28 -101 -21 -22 -41 -47 -45
-56 -11 -29 -29 -19 -42 22 -19 64 -30 90 -37 90 -4 0 -8 -10 -8 -22 0 -16 -3
-19 -11 -11 -11 11 -12 26 -4 190 6 121 4 126 -49 129 -16 1 -32 8 -37 15 -6
10 -11 6 -18 -14z m309 -699 c22 3 29 0 25 -11 -3 -7 1 -20 10 -27 11 -9 12
-16 4 -26 -13 -16 -4 -34 17 -34 19 0 18 -29 -1 -36 -8 -4 -22 -1 -30 6 -12
10 -16 9 -22 -5 -4 -11 0 -22 10 -30 10 -7 17 -17 17 -23 0 -15 26 -22 39 -9
16 16 22 5 24 -44 2 -39 0 -44 -18 -41 -29 5 -71 49 -82 85 -6 22 -15 32 -28
32 -18 0 -20 8 -21 85 -1 89 3 111 17 89 5 -8 21 -13 39 -11z m80 -581 c0 -18
5 -38 12 -45 13 -13 -4 -62 -22 -62 -5 0 -10 -10 -9 -22 l0 -23 11 23 c13 26
34 24 31 -4 -4 -52 -31 -175 -42 -187 -6 -8 -8 -27 -5 -46 7 -35 -8 -61 -38
-61 -24 0 -38 37 -27 75 5 16 9 45 9 62 0 18 5 33 10 33 6 0 10 11 10 25 0 26
-15 34 -23 13 -3 -7 -6 -4 -6 7 -1 12 4 26 10 32 16 16 3 64 -15 57 -17 -7
-36 25 -36 60 0 16 6 26 15 26 9 0 15 9 15 24 0 40 18 39 38 -1 l20 -38 12 43
c16 50 30 55 30 9z m-176 -183 c4 -69 11 -137 17 -150 6 -16 5 -32 -1 -44 -5
-10 -10 -31 -10 -45 0 -22 -4 -26 -22 -23 -29 4 -36 31 -37 154 -1 74 3 105
14 120 8 10 15 40 15 67 0 26 4 47 9 47 4 0 11 -57 15 -126z"/>
<path d="M2669 1893 c-1 -4 -1 -12 0 -16 1 -5 -7 -6 -18 -2 -17 5 -22 -1 -31
-36 -7 -23 -9 -57 -5 -76 3 -20 2 -33 -5 -33 -5 0 -10 -4 -10 -10 0 -5 7 -10
15 -10 8 0 17 -12 20 -27 4 -16 8 -38 11 -50 2 -13 0 -23 -6 -23 -5 0 -10 -15
-10 -32 l1 -33 15 28 c8 15 19 27 24 27 6 0 10 7 10 15 0 20 17 19 29 -2 7
-14 11 -10 17 22 4 22 13 45 21 50 17 13 26 115 9 115 -6 0 -22 21 -36 47 -23
43 -48 66 -51 46z"/>
<path d="M4266 1891 c-4 -6 -12 -9 -17 -6 -14 10 -11 0 10 -23 10 -12 23 -22
28 -22 5 0 16 -11 23 -25 10 -19 11 -36 1 -81 -23 -117 -8 -253 26 -240 8 4
13 -3 13 -19 0 -13 5 -27 12 -31 21 -13 101 -7 113 9 6 9 24 17 40 19 17 1 30
8 30 13 1 6 6 20 13 33 15 26 8 57 -13 66 -8 3 -15 11 -15 17 0 8 4 8 15 -1
12 -10 13 -5 8 42 -3 29 -9 57 -14 62 -5 6 -9 20 -9 32 0 15 -8 25 -22 29 -53
16 -98 41 -104 59 -5 14 -13 17 -34 12 -23 -4 -35 1 -63 30 -22 23 -37 32 -41
25z"/>
<path d="M4065 1800 c-4 -6 -12 -10 -18 -8 -23 4 -55 -13 -71 -37 -9 -14 -22
-22 -30 -19 -8 3 -19 -3 -26 -15 -11 -21 -40 -29 -40 -12 0 5 -16 12 -36 15
-43 9 -66 -7 -62 -43 2 -18 -2 -27 -14 -29 -15 -3 -18 4 -18 37 0 44 -17 54
-40 26 -8 -10 -30 -15 -61 -15 -49 0 -49 0 -49 -34 0 -24 -5 -35 -18 -38 -14
-4 -17 -13 -14 -41 4 -37 33 -72 67 -80 18 -4 18 -5 -2 -6 -27 -1 -31 -36 -10
-66 17 -23 37 -12 37 21 0 17 5 24 20 24 18 0 39 33 54 86 4 13 14 20 29 20
13 -1 22 5 22 14 0 8 5 18 12 23 7 4 10 14 7 22 -4 10 0 15 14 15 30 0 67 -56
80 -120 15 -77 29 -110 47 -110 8 0 15 5 15 10 0 16 21 12 43 -7 19 -17 20
-17 31 1 11 19 29 39 60 64 10 8 16 30 16 60 1 26 9 71 19 101 21 61 14 103
-23 133 -24 20 -32 22 -41 8z"/>
<path d="M11386 1383 c-20 -37 -36 -75 -36 -85 0 -22 -26 -24 -34 -2 -3 8 -10
12 -16 9 -16 -10 0 -117 21 -141 11 -11 19 -32 19 -47 0 -16 8 -30 20 -37 11
-6 20 -17 20 -25 0 -9 5 -24 12 -35 7 -10 9 -22 6 -26 -11 -10 -28 6 -28 25 0
10 -6 24 -14 30 -12 10 -16 8 -22 -11 -4 -13 -7 -33 -5 -46 1 -13 -3 -29 -9
-37 -6 -8 -9 -23 -5 -34 3 -10 1 -22 -5 -26 -16 -10 -12 -29 10 -53 31 -33 36
-74 11 -96 -24 -22 -34 -16 -68 37 -14 23 -31 45 -37 49 -13 8 -34 -43 -35
-84 -1 -21 3 -25 18 -21 14 4 20 -2 24 -27 6 -28 10 -31 39 -28 25 2 38 11 53
36 11 18 41 58 66 87 42 50 47 63 73 177 15 68 32 134 37 147 13 30 3 40 -15
15 -14 -18 -15 -18 -26 8 -9 20 -19 26 -38 25 -45 -3 -38 26 13 51 25 12 45
26 45 32 0 6 -10 30 -22 53 -14 28 -22 59 -21 95 0 28 -3 52 -8 52 -4 0 -24
-30 -43 -67z"/>
<path d="M10643 688 c-24 -26 -29 -38 -23 -54 5 -12 13 -25 19 -29 16 -9 13
-35 -4 -35 -8 0 -15 -8 -15 -19 0 -10 -6 -24 -14 -30 -13 -11 -46 -97 -46
-121 0 -7 6 -8 19 -1 14 8 22 6 35 -8 9 -9 16 -23 16 -29 0 -26 21 -19 62 21
35 33 48 55 62 106 21 75 15 106 -22 125 -16 8 -34 21 -41 30 -10 12 -8 17 9
26 12 6 23 10 24 8 1 -2 8 -16 16 -32 8 -17 25 -40 36 -53 l22 -24 21 27 c12
15 21 30 21 34 0 6 -94 57 -160 88 -3 1 -20 -12 -37 -30z"/>
<path d="M10930 636 c0 -15 -7 -27 -19 -31 -20 -6 -71 -66 -71 -84 0 -6 7 -11
15 -11 17 0 116 -65 127 -83 4 -7 11 -7 22 2 26 22 19 80 -19 159 -35 74 -55
91 -55 48z"/>
<path d="M10803 490 c-13 -5 -23 -14 -23 -20 0 -13 17 -13 22 0 4 13 45 1 51
-14 3 -7 -1 -42 -9 -77 -8 -35 -16 -73 -19 -84 -2 -11 -18 -36 -35 -55 -58
-64 -30 -65 30 0 41 43 58 70 55 81 -3 10 0 21 6 25 9 5 10 2 6 -9 -11 -28 7
-19 48 24 26 27 35 43 27 46 -6 3 -39 25 -72 49 -33 24 -61 44 -63 43 -1 0
-12 -4 -24 -9z"/>
<path d="M11395 484 c-10 -8 -27 -14 -37 -14 -24 0 -23 -19 7 -86 40 -90 32
-118 -19 -68 l-26 27 0 -27 c0 -15 7 -38 16 -51 25 -38 12 -75 -27 -75 -17 0
-32 6 -35 15 -7 16 -34 21 -34 6 0 -5 -3 -17 -7 -27 -4 -11 -3 -15 4 -11 16
10 63 -10 63 -25 0 -15 -34 -31 -97 -48 -24 -6 -43 -12 -43 -14 0 -2 5 -17 11
-35 7 -20 18 -31 31 -31 10 0 16 -4 13 -10 -4 -6 28 -10 88 -10 92 0 95 1 90
21 -6 20 -11 21 -69 16 -35 -2 -64 -3 -64 0 0 9 70 33 96 33 26 0 26 0 22 65
-3 55 -1 65 12 64 32 -3 38 2 44 42 4 23 14 55 22 71 9 16 13 35 11 42 -3 7
-2 31 3 53 8 46 6 52 -30 75 -22 14 -28 14 -45 2z"/>
<path d="M11112 448 c-9 -22 -8 -36 3 -69 8 -23 15 -56 15 -74 0 -20 6 -35 15
-39 19 -7 20 -36 2 -36 -8 0 -22 -9 -32 -20 -10 -11 -25 -20 -34 -20 -12 0
-12 3 -3 12 18 18 15 28 -10 37 -29 11 -48 -23 -48 -85 0 -43 1 -44 28 -38 41
10 62 23 62 38 0 8 7 16 15 20 8 3 15 12 15 21 0 8 9 15 20 15 13 0 20 -7 20
-20 0 -31 17 -23 37 18 14 28 23 36 41 35 25 -3 29 9 7 27 -8 7 -15 19 -15 27
0 7 -7 16 -15 19 -8 4 -15 13 -15 21 0 22 -26 43 -53 43 -20 0 -25 7 -34 48
-9 47 -9 47 -21 20z"/>
<path d="M10012 428 c-7 -7 -12 -27 -12 -45 0 -26 -5 -36 -23 -42 -17 -7 -28
-23 -37 -56 -7 -25 -21 -50 -31 -56 -25 -13 -24 -25 3 -32 18 -5 19 -8 9 -21
-11 -13 -10 -17 4 -22 15 -6 84 47 108 84 4 7 16 20 26 30 9 9 34 38 54 63 35
43 36 47 19 61 -9 9 -27 21 -40 27 -18 10 -23 9 -28 -4 -8 -19 -24 -20 -24 -1
0 21 -15 27 -28 14z"/>
<path d="M11041 406 c-9 -11 -9 -19 1 -35 10 -17 10 -23 -1 -33 -11 -11 -12
-9 -6 12 7 22 6 23 -9 11 -9 -7 -16 -20 -16 -27 0 -20 -27 -17 -39 3 -8 14
-12 15 -25 4 -9 -7 -16 -20 -16 -27 0 -8 -6 -14 -14 -14 -8 0 -17 -4 -20 -9
-3 -5 2 -8 12 -7 13 1 17 -7 17 -36 0 -20 3 -40 8 -44 4 -4 7 -15 7 -23 0 -9
8 -21 19 -28 16 -10 19 -6 30 43 7 29 10 58 7 63 -7 11 13 61 25 61 4 0 9 -7
13 -15 12 -32 23 -12 22 40 -1 30 2 55 6 55 5 0 8 5 8 10 0 15 -16 12 -29 -4z"/>
<path d="M10530 328 c-11 -24 -20 -51 -20 -60 0 -10 -11 -19 -29 -23 -16 -3
-37 -17 -45 -31 -9 -13 -22 -24 -29 -24 -28 -1 -39 -20 -42 -71 -2 -30 -6 -63
-11 -74 -7 -18 -6 -19 12 -5 10 8 16 11 12 6 -3 -4 2 -16 13 -27 25 -25 84
-26 99 -1 8 12 13 13 16 4 7 -15 24 -6 24 13 0 14 -36 15 -58 1 -19 -12 -30 1
-24 30 3 15 13 29 23 31 18 5 28 43 11 43 -4 0 -13 9 -20 21 -11 18 -11 24 5
41 11 12 26 18 40 15 17 -3 23 0 23 14 0 12 7 19 20 19 10 0 28 10 40 22 l20
22 0 -33 c0 -19 4 -30 10 -26 6 3 10 14 10 24 0 10 9 26 20 36 26 24 26 39 -1
25 -11 -7 -22 -10 -23 -8 -1 2 -7 15 -14 31 -8 19 -19 27 -37 27 -21 0 -30 -9
-45 -42z"/>
<path d="M10180 263 c-49 -58 -70 -104 -33 -70 11 10 29 33 39 52 25 46 34 44
34 -7 0 -33 3 -39 12 -30 36 36 38 -13 3 -68 -30 -47 -40 -51 -32 -11 4 20 1
37 -11 51 -17 21 -17 21 -36 -15 -17 -31 -18 -38 -6 -45 12 -7 12 -12 3 -21
-15 -15 -43 5 -43 31 0 22 -9 30 -26 23 -17 -6 -18 -36 -2 -80 13 -37 20 -40
38 -18 18 22 30 18 30 -10 0 -18 5 -25 20 -25 11 0 20 -4 20 -10 0 -5 19 -10
43 -10 36 0 44 4 55 28 23 45 31 81 21 87 -5 4 -6 23 -3 44 4 28 2 42 -11 54
-15 16 -15 18 0 23 14 6 14 8 1 23 -8 9 -15 20 -15 25 0 5 -12 15 -28 21 -27
11 -30 10 -73 -42z"/>
<path d="M10073 223 c-13 -2 -23 -8 -23 -13 0 -16 -94 -100 -112 -100 -21 0
-22 -5 -6 -65 l12 -45 46 0 46 0 2 38 c4 64 30 143 51 159 20 14 29 34 14 32
-5 -1 -18 -4 -30 -6z"/>
</g>
</svg>
