<?xml version="1.0" standalone="no"?>
<!DOCTYPE svg PUBLIC "-//W3C//DTD SVG 20010904//EN"
 "http://www.w3.org/TR/2001/REC-SVG-20010904/DTD/svg10.dtd">
<svg version="1.0" xmlns="http://www.w3.org/2000/svg"
 width="1215.000000pt" height="411.000000pt" viewBox="0 0 1215.000000 411.000000"
 preserveAspectRatio="xMidYMid meet">
<metadata>
Created by potrace 1.15, written by Peter Selinger 2001-2017
</metadata>
<g transform="translate(0.000000,411.000000) scale(0.100000,-0.100000)"
fill="#000000" stroke="none">
<path d="M5620 4050 c0 -53 2 -61 16 -56 9 4 180 6 380 6 200 0 370 3 379 6
19 8 20 54 1 54 -8 0 -18 -4 -21 -10 -3 -5 1 -10 9 -10 9 0 16 -4 16 -10 0
-11 -148 -13 -502 -4 -220 6 -258 9 -258 22 0 13 19 14 140 9 77 -3 140 -2
140 2 0 11 66 12 95 1 15 -6 26 -6 30 0 4 6 11 10 16 10 6 0 8 -4 4 -9 -9 -16
26 -21 143 -19 86 1 112 5 112 15 0 17 30 17 30 1 0 -7 5 -5 11 5 5 9 19 17
29 17 11 0 20 7 20 15 0 16 -139 16 -625 1 -91 -3 -144 -1 -152 6 -10 8 -13
-2 -13 -52z"/>
<path d="M8028 4088 c5 -19 7 -20 10 -5 3 16 14 18 88 16 46 -2 84 -7 84 -11
0 -5 -4 -6 -10 -3 -5 3 -10 1 -10 -4 0 -13 -21 -12 285 -16 138 -2 346 -5 462
-7 l213 -3 0 28 0 27 -564 0 -564 0 6 -22z"/>
<path d="M9972 4083 c3 -23 7 -27 36 -26 17 1 33 2 35 2 1 1 199 2 440 3 241
1 441 6 443 10 3 4 -64 8 -148 7 -394 -2 -715 3 -728 11 -9 6 157 10 441 10
l456 0 -5 -26 c-3 -19 -1 -25 7 -20 6 4 11 18 11 32 l0 24 -496 0 -495 0 3
-27z"/>
<path d="M1779 4043 c-10 -27 0 -69 25 -103 23 -31 47 -80 39 -80 -4 0 -18 18
-31 40 -32 56 -47 40 -18 -18 13 -26 26 -59 30 -74 3 -15 23 -44 43 -65 21
-21 42 -51 48 -68 7 -21 17 -30 32 -30 11 0 25 -4 29 -8 5 -4 0 -5 -11 -2 -15
5 -13 1 8 -17 25 -22 27 -29 27 -104 0 -49 5 -87 13 -99 7 -11 20 -36 27 -55
14 -36 104 -191 193 -334 28 -44 71 -122 96 -175 l46 -96 -1 -265 c0 -146 -4
-286 -8 -312 -6 -33 -5 -57 4 -78 11 -25 10 -34 -5 -56 -14 -22 -16 -40 -11
-103 4 -42 9 -132 12 -201 4 -98 9 -128 22 -137 8 -7 24 -45 34 -85 10 -40 29
-88 42 -108 23 -33 106 -203 106 -216 0 -4 20 -33 45 -66 25 -33 45 -66 45
-73 0 -7 6 -18 14 -24 22 -19 54 -121 61 -201 10 -102 28 -151 89 -238 67 -97
62 -87 81 -162 10 -36 26 -77 35 -91 13 -19 17 -37 13 -72 -5 -39 -3 -47 11
-47 15 0 20 14 19 48 -1 6 0 12 1 12 0 0 16 4 34 9 17 5 32 6 32 1 0 -4 -9
-10 -20 -13 -20 -5 -28 -27 -10 -27 6 0 10 -6 10 -14 0 -17 24 -28 45 -20 8 4
15 12 15 20 0 8 5 14 10 14 6 0 15 11 20 24 5 15 20 27 37 30 23 5 31 15 41
49 17 55 6 128 -19 134 -22 6 -40 50 -43 105 -1 24 -3 54 -4 67 -1 13 -17 38
-35 55 -18 17 -46 49 -62 70 -29 38 -29 39 -7 34 34 -9 28 21 -13 69 -19 23
-35 51 -35 63 0 11 -7 35 -16 53 -12 23 -19 77 -25 202 -5 93 -14 203 -19 244
-7 53 -7 78 0 85 8 8 14 5 22 -9 6 -11 29 -37 50 -58 l39 -37 -6 -83 c-7 -88
2 -131 35 -154 10 -7 28 -39 40 -71 11 -31 30 -69 40 -84 32 -44 39 -96 22
-163 -13 -54 -13 -68 3 -158 10 -54 22 -100 27 -103 4 -3 8 -18 8 -33 0 -15 6
-33 13 -40 6 -6 12 -26 13 -44 2 -80 4 -86 49 -128 25 -24 45 -48 45 -55 0 -6
6 -17 14 -23 7 -6 16 -28 19 -49 10 -57 44 -67 172 -46 48 8 65 20 65 45 0 21
-5 23 -74 19 -43 -2 -51 2 -77 29 -15 17 -34 31 -43 31 -9 0 -12 7 -9 20 4 14
-2 23 -20 31 -21 10 -24 15 -17 30 13 23 13 59 1 59 -5 0 -11 -5 -13 -12 -2
-6 -10 -8 -16 -4 -9 5 -6 18 11 46 26 48 34 50 35 10 0 -16 4 -34 7 -40 11
-19 27 2 20 27 -5 20 -2 24 12 21 10 -2 19 -14 21 -28 5 -34 22 -51 22 -21 0
16 9 25 30 32 37 13 40 39 5 39 -16 0 -25 6 -25 16 0 8 -9 35 -20 60 -17 37
-19 51 -11 82 11 38 20 222 11 222 -3 -1 -24 -42 -48 -93 -34 -74 -42 -103
-42 -147 1 -58 11 -79 48 -99 13 -7 21 -15 18 -18 -11 -12 -58 30 -73 65 -23
56 -12 121 36 213 54 103 80 201 88 325 5 94 4 105 -20 155 -20 43 -27 76 -31
151 -3 53 -10 116 -16 139 -9 32 -9 53 0 85 10 35 10 52 -1 90 -8 26 -18 48
-24 50 -10 4 -94 -16 -127 -30 -12 -6 -21 0 -33 23 -11 22 -22 30 -38 29 -41
-3 -126 33 -184 78 -61 48 -71 66 -38 72 49 9 35 22 -25 22 -35 0 -61 2 -59 4
2 2 41 9 86 16 45 6 108 18 140 27 32 8 65 15 73 15 8 -1 34 4 58 10 39 10 42
13 42 43 0 20 -6 35 -15 39 -13 4 -12 9 2 35 16 28 16 32 0 66 -12 26 -14 41
-7 54 5 10 6 21 2 25 -3 4 -7 32 -7 62 -1 44 3 58 22 76 l23 21 0 -42 c0 -23
7 -56 16 -74 15 -28 75 -107 111 -145 20 -21 50 -96 58 -143 5 -27 20 -58 40
-82 18 -21 36 -50 40 -65 8 -31 72 -149 86 -158 5 -3 9 -15 9 -28 0 -13 9 -31
20 -41 11 -10 20 -23 20 -29 1 -17 42 -60 71 -74 14 -8 34 -29 44 -48 23 -42
49 -42 52 1 0 17 4 41 9 54 7 22 5 23 -19 17 -21 -5 -27 -3 -27 9 0 9 12 18
30 21 50 10 57 30 25 64 -18 18 -25 35 -21 45 4 11 -5 32 -25 57 -24 29 -29
42 -20 51 23 23 7 84 -37 139 -9 10 -12 27 -8 45 5 22 2 34 -14 48 -11 10 -20
28 -20 39 -1 12 -9 39 -20 61 -11 22 -19 49 -20 61 0 30 -34 128 -54 159 -10
15 -23 24 -31 21 -8 -3 -17 -1 -20 5 -4 5 1 12 9 15 23 9 20 34 -4 34 -11 0
-20 5 -20 10 0 6 4 10 9 10 16 0 22 33 8 49 -7 9 -24 40 -37 69 -23 52 -44 64
-68 40 -17 -17 -40 7 -34 37 3 20 9 24 23 20 30 -10 23 17 -15 58 -40 44 -59
46 -82 12 -18 -28 -23 -125 -9 -159 6 -14 5 -18 -6 -14 -7 2 -22 34 -33 71
-18 65 -18 66 1 99 10 18 29 37 41 43 12 5 22 12 22 15 0 3 -19 25 -43 48 -40
39 -45 41 -76 32 -19 -5 -50 -20 -70 -33 l-36 -24 1 -106 c1 -59 -2 -105 -7
-102 -4 3 -25 37 -44 74 -30 56 -42 70 -66 75 -44 9 -48 34 -9 64 37 29 60 77
59 124 0 27 -4 22 -22 -34 -15 -48 -28 -70 -45 -77 -51 -24 -90 -9 -118 45
-10 18 -8 28 8 54 22 37 18 48 -14 33 -16 -7 -30 -7 -45 0 -26 12 -30 27 -7
27 23 0 13 35 -11 36 -11 1 -28 2 -37 3 -21 1 -24 21 -4 21 9 0 12 7 10 18 -4
14 2 17 36 17 43 1 51 -8 23 -24 -16 -9 -16 -10 -2 -11 9 0 24 10 32 23 16 21
16 21 17 -23 1 -65 19 -29 26 52 5 63 -7 107 -33 115 -7 3 -7 -9 3 -38 17 -48
12 -59 -14 -36 -10 9 -33 22 -50 28 -33 11 -43 29 -17 29 8 0 15 5 15 10 0 6
7 10 16 10 8 0 12 5 9 10 -3 6 -15 10 -25 10 -32 0 -43 34 -20 63 25 32 25 35
-2 56 -21 18 -21 18 -2 45 18 25 22 27 77 22 38 -4 68 -13 85 -27 25 -19 27
-19 33 -2 5 16 7 16 17 -4 7 -12 12 -29 12 -37 0 -8 8 -31 17 -50 14 -31 15
-41 3 -75 -17 -53 -6 -67 28 -33 15 15 39 33 54 39 26 11 28 16 25 60 -5 69
-28 115 -81 159 -51 42 -104 57 -207 58 -53 0 -59 -3 -112 -50 -31 -27 -57
-55 -57 -62 0 -7 -9 -32 -20 -54 -18 -39 -19 -43 -4 -60 15 -16 16 -27 3 -108
-8 -55 -17 -90 -25 -90 -6 0 -17 -7 -24 -15 -16 -19 -44 -19 -60 0 -7 8 -28
17 -49 21 -20 4 -42 11 -49 17 -9 7 -16 7 -24 -1 -15 -15 -28 -15 -28 -2 0 13
-75 90 -88 90 -6 0 -8 -10 -5 -21 4 -16 2 -20 -8 -17 -9 3 -13 16 -11 37 2 18
-2 39 -10 48 -11 14 -13 13 -18 -6 -3 -12 -9 -21 -15 -21 -5 1 -8 7 -6 13 2 7
5 29 8 49 4 30 1 41 -19 60 -26 24 -149 210 -161 242 -6 16 -12 13 -46 -25
-22 -24 -42 -41 -47 -37 -4 5 0 16 8 25 30 36 32 46 7 38 -21 -7 -22 -6 -10 9
7 9 19 16 26 16 6 0 20 18 30 39 l17 39 -34 35 c-19 19 -38 42 -41 51 -3 8
-18 18 -32 22 -20 5 -30 1 -42 -15 -10 -15 -21 -20 -34 -16 -14 5 -17 3 -13
-9 3 -9 12 -16 18 -16 22 0 54 -44 56 -75 3 -47 2 -47 -41 -18 -45 30 -76 87
-58 109 8 9 0 30 -30 80 -23 37 -41 71 -41 76 0 21 18 2 49 -52 19 -33 40 -60
48 -60 18 0 17 5 -14 58 -36 62 -73 112 -84 112 -5 0 -14 -12 -20 -27z m976
-1123 c19 -37 38 -31 25 8 -22 59 19 -10 50 -87 35 -85 63 -146 126 -272 40
-81 41 -86 20 -82 -13 3 -27 16 -33 34 -8 19 -18 29 -32 29 -18 0 -21 6 -22
48 0 26 -4 56 -8 67 -7 18 -9 17 -22 -10 -18 -36 -39 -44 -46 -16 -6 22 -18
27 -28 11 -6 -9 -47 -4 -69 8 -15 9 19 22 59 22 78 1 81 27 5 40 -23 3 -36 11
-38 23 -4 20 24 57 43 57 17 0 26 27 19 56 -4 17 -13 24 -30 24 -23 0 -44 25
-44 54 0 24 8 19 25 -14z m151 -71 c10 -11 44 -57 75 -102 48 -71 59 -82 85
-82 21 0 30 5 33 20 3 16 1 17 -12 7 -12 -11 -16 -8 -21 14 -4 14 -19 44 -33
66 -15 22 -27 48 -28 59 -3 38 22 17 61 -51 21 -38 42 -70 46 -70 4 0 20 -19
34 -42 20 -31 24 -46 16 -58 -5 -9 -6 -23 -2 -31 12 -20 0 -99 -14 -98 -20 1
-185 219 -226 299 -10 19 -27 44 -39 54 -12 11 -21 23 -21 28 0 15 27 8 46
-13z m82 -391 c7 -7 12 -20 12 -30 0 -11 7 -18 19 -18 11 0 21 -9 25 -22 l6
-23 20 25 c17 21 21 23 30 10 8 -13 11 -13 22 3 9 11 20 16 31 11 24 -9 21
-16 -15 -37 -31 -18 -32 -19 -13 -33 10 -8 25 -14 32 -14 7 0 13 -4 13 -9 0
-19 -18 -20 -52 -3 -22 11 -42 15 -54 11 -43 -17 -54 -11 -54 31 0 22 -4 40
-9 40 -5 0 -17 7 -26 16 -9 9 -18 14 -21 11 -3 -3 4 -15 16 -27 17 -17 19 -24
9 -36 -17 -20 -57 -17 -69 5 -12 24 3 37 20 16 7 -8 17 -12 22 -9 5 3 0 15
-11 25 -27 25 -26 34 1 53 27 19 31 19 46 4z"/>
<path d="M5620 3938 c0 -10 79 -12 382 -10 209 1 388 7 397 12 10 5 -137 9
-381 10 -315 0 -398 -2 -398 -12z"/>
<path d="M583 3451 c-17 -5 -43 -18 -58 -30 -15 -11 -36 -21 -45 -21 -25 0
-100 -85 -100 -113 0 -16 9 -28 25 -35 14 -6 25 -19 25 -28 0 -13 6 -15 31
-10 29 6 30 5 27 -27 -3 -28 -6 -32 -30 -29 -31 3 -33 0 -16 -28 10 -15 10
-26 0 -52 -7 -20 -8 -36 -2 -43 6 -7 5 -16 -3 -24 -9 -10 -7 -16 10 -30 16
-14 19 -21 11 -29 -9 -9 -6 -18 10 -35 12 -13 22 -31 22 -40 0 -15 -68 -67
-88 -67 -5 0 -31 -21 -58 -46 -27 -25 -61 -52 -76 -60 -16 -8 -38 -35 -50 -62
-19 -40 -23 -66 -25 -166 -1 -66 -4 -125 -7 -132 -6 -16 21 -205 31 -215 4 -4
63 -11 131 -15 98 -5 122 -10 122 -22 0 -13 -16 -14 -107 -8 -96 7 -105 6 -94
-8 10 -11 11 -41 7 -113 -3 -54 -3 -92 0 -85 3 6 12 12 19 12 18 0 17 -68 -1
-95 -8 -12 -13 -37 -12 -56 2 -27 -2 -36 -19 -44 -30 -13 -29 -23 5 -31 15 -4
41 -13 57 -22 58 -29 63 -31 69 -25 3 4 6 18 6 33 0 18 10 33 30 48 29 22 30
22 30 3 0 -11 4 -22 9 -25 5 -3 12 -30 16 -61 4 -32 20 -81 40 -117 32 -62 33
-63 18 -111 -30 -103 0 -238 113 -507 86 -205 94 -231 98 -333 5 -104 0 -99
114 -116 l53 -8 20 46 c19 41 20 58 14 161 -3 63 -8 131 -10 150 -4 46 -33
146 -55 190 -10 19 -21 62 -25 94 -4 33 -11 70 -16 83 -10 26 4 52 68 125 41
48 50 95 29 160 -26 81 -23 96 22 96 33 1 40 -4 55 -31 25 -50 47 -108 47
-126 0 -41 71 -160 144 -241 88 -97 284 -281 366 -343 30 -23 78 -62 106 -87
29 -25 80 -66 115 -91 55 -39 66 -52 76 -92 9 -33 26 -59 60 -92 l48 -46 60 5
c33 3 62 5 64 5 2 1 1 7 -2 15 -3 8 2 16 14 19 10 3 19 10 19 17 0 7 -8 9 -20
5 -19 -6 -28 10 -20 40 3 11 7 58 11 120 1 22 -4 54 -11 71 -11 26 -11 36 3
64 10 18 17 35 17 37 0 3 -32 3 -71 2 l-71 -4 -13 32 c-7 17 -26 38 -42 46
-15 8 -48 38 -72 67 -24 28 -45 49 -48 46 -3 -3 9 -22 26 -42 31 -39 34 -52 7
-37 -25 14 -156 192 -156 213 0 10 -9 21 -20 25 -11 3 -44 33 -73 66 -30 32
-59 59 -65 59 -19 0 -29 32 -36 115 -4 44 -12 98 -17 120 -54 210 -55 280 -4
303 40 18 34 65 -14 113 -21 22 -48 39 -59 39 -19 0 -21 4 -15 49 4 36 1 55
-11 72 -10 15 -16 44 -16 82 0 38 -7 71 -20 97 -14 27 -20 62 -22 119 -3 98 8
115 52 83 16 -12 36 -22 45 -22 9 0 34 -18 56 -40 46 -47 69 -49 120 -14 35
24 89 93 89 113 0 14 -40 77 -76 119 -17 21 -38 51 -47 67 -17 34 -110 125
-127 125 -6 0 -28 11 -48 25 -20 14 -46 25 -57 25 -11 0 -44 11 -73 25 -81 38
-99 34 -166 -32 -32 -32 -64 -71 -71 -88 -8 -16 -28 -44 -47 -62 -26 -25 -39
-30 -61 -26 l-27 5 35 40 c20 21 40 50 45 64 16 42 12 116 -10 156 -12 22 -16
40 -10 43 14 9 12 25 -3 25 -10 0 -12 26 -9 119 6 171 0 200 -55 261 -55 61
-70 70 -131 74 -26 2 -63 6 -82 9 -19 3 -49 2 -67 -2z"/>
<path d="M10598 3418 c-43 -57 -46 -128 -6 -128 20 0 20 0 -1 -17 -34 -28 -44
-189 -15 -245 8 -16 16 -48 17 -71 2 -41 2 -42 -38 -47 -67 -10 -155 -67 -155
-101 0 -10 -9 -27 -20 -36 -11 -10 -20 -28 -20 -40 0 -16 -6 -23 -19 -23 -13
0 -38 -28 -78 -86 -50 -74 -58 -92 -56 -128 1 -36 -2 -44 -28 -58 -24 -14 -29
-15 -29 -3 0 20 -3 19 -43 -8 -18 -12 -32 -27 -30 -33 2 -6 -24 -10 -67 -11
-38 -1 -70 2 -70 6 0 10 -85 31 -129 31 -66 0 -95 -47 -43 -69 52 -22 65 -37
52 -60 -6 -12 -20 -21 -31 -21 -33 0 -16 -24 24 -33 27 -7 42 -5 53 4 14 11
13 15 -7 29 -15 12 -18 19 -10 24 7 4 18 2 26 -4 11 -9 30 -10 77 -2 35 6 88
14 118 17 82 9 201 53 226 83 23 28 100 55 157 53 28 0 37 3 37 16 0 13 3 14
11 6 6 -6 18 -9 25 -6 10 4 14 -5 14 -34 0 -21 5 -44 12 -51 6 -6 9 -15 5 -18
-4 -4 -18 5 -31 21 -13 15 -28 25 -34 21 -6 -3 -16 -32 -23 -64 -7 -31 -19
-63 -28 -71 -12 -10 -13 -14 -3 -18 17 -7 5 -23 -18 -23 -23 0 -47 -42 -56
-99 -4 -23 -11 -44 -15 -47 -13 -7 -11 -44 1 -44 23 0 -27 -39 -60 -47 l-35
-9 0 -90 c0 -49 -4 -97 -9 -106 -4 -10 -6 -23 -4 -30 3 -7 -2 -19 -11 -26 -10
-9 -12 -15 -5 -18 6 -3 20 -12 30 -20 18 -14 16 -15 -19 -10 -35 5 -38 3 -58
-37 -35 -72 -45 -111 -38 -145 5 -27 4 -31 -8 -21 -21 18 -41 -4 -23 -26 10
-12 10 -15 -3 -15 -17 0 -34 -60 -22 -79 3 -6 2 -11 -3 -11 -5 0 -12 -13 -15
-29 -3 -15 -22 -55 -41 -87 -24 -40 -34 -65 -30 -81 4 -13 -1 -33 -10 -48 -9
-13 -16 -30 -16 -36 0 -7 -36 -49 -81 -94 -67 -69 -90 -101 -135 -191 -30 -60
-66 -138 -80 -174 -13 -36 -33 -82 -44 -102 -27 -50 -25 -70 8 -89 33 -19 52
-14 52 12 0 22 22 25 39 5 9 -11 6 -16 -16 -24 -45 -15 -104 -82 -73 -82 6 0
10 -4 10 -10 0 -5 -7 -10 -15 -10 -8 0 -15 -4 -15 -10 0 -5 7 -7 15 -4 8 4 22
1 30 -6 8 -7 26 -10 40 -6 l26 7 -21 -21 c-11 -11 -20 -29 -20 -40 0 -11 -5
-20 -10 -20 -18 0 -88 39 -92 50 -2 6 -21 14 -43 16 -31 5 -45 1 -62 -15 -12
-12 -27 -21 -33 -21 -5 0 -10 -13 -10 -28 0 -23 7 -32 35 -45 20 -9 46 -17 58
-17 12 0 31 -6 42 -13 11 -8 55 -22 98 -32 95 -22 101 -18 103 73 2 83 13 110
64 164 22 24 40 49 40 56 0 50 72 197 113 231 10 7 17 19 17 26 0 6 8 19 18
28 10 9 40 67 67 129 57 133 72 157 119 189 20 13 36 29 36 34 0 6 14 37 31
69 30 57 46 77 135 176 23 25 58 75 78 111 20 36 47 71 60 79 23 12 29 10 74
-28 35 -30 61 -65 94 -129 25 -48 49 -99 53 -113 18 -61 85 -188 113 -214 28
-26 36 -28 90 -24 36 2 71 12 88 23 36 25 114 44 177 45 l47 0 0 -37 c-1 -63
2 -72 37 -99 25 -19 41 -24 62 -19 33 7 65 38 80 77 6 16 17 28 24 28 31 0 43
121 16 171 -17 32 -29 21 -29 -28 0 -48 -6 -55 -12 -13 -2 14 -7 30 -10 36 -4
6 -4 24 1 40 4 16 6 35 3 43 -3 9 0 11 7 7 33 -21 61 58 42 117 -23 70 -97
103 -179 79 -102 -28 -203 -48 -214 -41 -7 5 -14 30 -16 56 -17 301 -16 294
-54 368 -36 69 -62 141 -38 103 17 -27 42 -23 34 5 -4 17 4 38 26 70 17 26 35
49 41 52 18 12 36 71 31 103 -2 18 2 52 11 75 21 58 31 99 28 119 -3 21 24 75
52 106 37 40 106 22 234 -61 49 -31 82 -35 81 -9 -1 16 75 137 95 149 14 8
-12 -37 -46 -80 l-30 -38 23 -44 c13 -25 32 -48 44 -51 12 -4 34 -18 51 -32
28 -23 34 -24 128 -20 103 5 195 -8 234 -33 17 -10 25 -11 34 -2 7 7 24 9 40
6 l29 -5 0 100 c0 68 -4 103 -12 109 -19 15 -74 -3 -96 -32 -20 -26 -33 -26
-116 -6 -27 7 -44 6 -57 -2 -16 -10 -24 -6 -57 26 -22 22 -58 44 -83 51 -33
10 -45 19 -47 35 -2 13 -11 32 -20 43 -17 20 -126 78 -148 78 -6 0 -19 9 -28
19 -10 11 -30 24 -45 31 -15 6 -52 41 -83 78 -38 47 -72 77 -111 97 l-56 30
-28 -21 c-15 -11 -34 -33 -41 -47 -11 -23 -10 -32 4 -63 11 -22 28 -40 46 -46
33 -12 39 -33 6 -22 -93 29 -120 110 -57 170 31 30 38 54 14 54 -8 0 -43 -11
-78 -24 -34 -13 -83 -27 -107 -31 -25 -4 -57 -14 -72 -23 -26 -15 -29 -15 -45
2 -17 17 -17 19 7 34 48 33 98 83 110 111 10 24 9 33 -5 55 -18 27 -35 26 -35
0 0 -25 -23 -11 -33 20 -7 21 -5 32 8 46 16 18 29 90 27 155 -3 100 -31 165
-73 165 -10 0 -23 9 -29 20 -9 18 -21 20 -99 20 -88 0 -89 0 -113 -32z"/>
<path d="M5963 3335 c-20 -8 -52 -41 -84 -84 -32 -44 -59 -71 -70 -71 -11 0
-19 -7 -19 -17 0 -32 -32 -148 -45 -161 -9 -10 -21 -11 -48 -4 -49 14 -110 0
-198 -44 -58 -29 -94 -58 -167 -133 -87 -89 -221 -270 -236 -319 -4 -12 -20
-34 -37 -49 -16 -15 -29 -33 -29 -39 0 -6 -20 -33 -45 -60 -25 -26 -45 -51
-45 -54 0 -4 -22 -28 -49 -53 -31 -29 -56 -65 -67 -94 -10 -27 -30 -61 -44
-76 -15 -15 -32 -38 -37 -50 -16 -34 -34 -119 -27 -126 9 -9 46 42 80 109 29
59 44 74 44 45 0 -31 -43 -100 -98 -157 -55 -58 -55 -58 -55 -120 0 -35 6 -76
12 -92 15 -36 8 -107 -22 -226 -13 -52 -27 -113 -31 -135 -9 -49 -30 -90 -67
-133 -16 -18 -29 -39 -29 -46 0 -20 -89 -96 -112 -96 -14 0 -3 15 41 56 67 62
80 98 34 92 -20 -2 -33 -13 -45 -37 -19 -38 -67 -91 -81 -91 -17 0 -99 -51
-93 -58 4 -3 12 0 18 6 14 14 28 16 28 3 0 -11 -95 -71 -112 -71 -6 0 -3 9 7
20 15 16 15 20 3 20 -8 0 -29 -18 -47 -40 -18 -23 -51 -52 -74 -67 -23 -14
-54 -37 -69 -50 -24 -23 -33 -25 -92 -21 -35 2 -64 1 -64 -2 1 -3 -9 -26 -21
-52 -25 -54 -34 -153 -17 -181 9 -15 7 -20 -9 -29 -36 -21 -85 -76 -85 -96 0
-11 10 -33 23 -49 13 -15 27 -36 30 -47 5 -12 14 -17 27 -13 13 3 32 -4 51
-20 28 -24 31 -24 48 -9 18 16 19 16 17 -8 0 -14 -4 -26 -7 -26 -3 0 -5 -17
-4 -37 1 -33 4 -39 33 -47 47 -13 63 7 71 88 5 48 12 70 27 81 25 19 38 19 30
0 -3 -9 -8 -47 -12 -86 l-6 -71 28 4 29 3 0 103 c0 118 -14 97 132 205 217
162 256 186 300 187 52 0 165 50 188 82 80 113 112 155 127 166 26 19 33 70
12 93 -17 18 -16 20 6 44 13 14 51 43 84 65 47 30 67 52 89 93 34 66 175 222
234 260 l44 28 60 -36 c33 -19 63 -35 66 -35 4 0 14 -7 24 -16 10 -9 23 -13
30 -8 8 5 1 12 -21 23 -39 19 -59 64 -41 93 6 10 11 26 11 36 0 13 19 28 63
50 34 17 71 38 82 47 20 16 19 16 -5 9 -25 -7 -25 -7 -6 15 35 39 0 21 -68
-35 -37 -31 -70 -53 -73 -50 -4 3 1 14 9 23 9 10 33 50 53 90 21 40 46 79 55
88 34 30 185 42 246 18 8 -3 14 0 14 6 0 10 -95 81 -153 114 -18 10 -31 22
-30 27 2 5 18 24 37 42 19 18 46 54 60 79 l27 47 -49 12 c-27 6 -53 10 -58 9
-15 -4 -59 17 -73 35 -7 9 -24 16 -37 16 -16 0 -22 4 -18 14 9 22 -34 31 -56
11 -29 -27 -33 0 -5 41 33 49 32 56 -12 52 l-38 -3 -1 78 c0 84 10 107 27 58
12 -34 24 -39 33 -16 10 27 68 17 77 -14 4 -10 13 -6 36 13 36 30 39 31 47 10
3 -8 2 -12 -4 -9 -5 3 -7 0 -4 -9 3 -8 20 -20 37 -27 17 -7 69 -49 115 -94 94
-91 192 -155 192 -125 0 5 -22 21 -50 35 -27 14 -50 31 -50 38 0 6 22 31 50
55 59 51 62 50 144 -39 53 -57 58 -60 75 -45 20 18 57 21 66 6 3 -5 18 -10 33
-10 15 0 38 -7 51 -16 17 -12 26 -13 34 -5 16 16 24 14 30 -11 6 -20 7 -20 31
-5 31 21 32 21 40 1 9 -23 -4 -65 -18 -57 -6 3 -4 -2 5 -13 8 -10 21 -32 28
-48 11 -26 10 -28 -3 -17 -21 18 -46 7 -46 -20 0 -20 -1 -21 -22 -5 -38 27
-48 29 -61 12 -9 -13 -20 -16 -40 -10 -28 6 -28 7 -9 28 28 32 54 77 48 83 -7
7 -43 -35 -51 -59 -7 -20 -45 -24 -74 -9 -13 7 -22 5 -33 -9 -15 -17 -13 -20
37 -54 29 -19 66 -51 81 -71 45 -60 58 -62 120 -20 29 20 56 45 59 55 9 27 31
31 81 14 45 -15 47 -15 84 11 21 15 59 49 84 76 52 56 58 86 26 134 -11 17
-20 33 -20 36 0 4 38 32 83 62 46 31 91 67 101 81 9 14 23 26 31 26 8 0 47 22
87 49 40 27 96 63 123 82 288 190 391 258 426 279 130 78 129 77 129 117 0 22
-12 60 -27 90 -24 45 -32 53 -57 53 -23 0 -26 -3 -17 -14 10 -12 -7 -27 -91
-83 -134 -90 -128 -87 -128 -69 0 9 7 16 15 16 20 0 19 19 -1 27 -8 3 -23 -2
-32 -11 -13 -13 -14 -20 -5 -35 11 -17 4 -24 -55 -65 -37 -25 -88 -60 -113
-78 -50 -36 -232 -164 -423 -298 -115 -81 -121 -88 -121 -120 0 -43 -22 -97
-42 -104 -13 -5 -13 -9 -2 -22 11 -14 10 -15 -11 -12 -22 3 -25 7 -22 39 3 29
-1 37 -17 42 -11 2 -21 15 -23 28 -2 19 -8 23 -27 21 -39 -4 -51 -21 -51 -73
0 -48 -7 -58 -26 -39 -6 6 -23 6 -47 -2 -20 -6 -40 -8 -44 -4 -11 11 18 26 50
26 l29 0 -22 36 c-11 20 -19 43 -16 50 3 7 -6 26 -19 42 -16 19 -26 46 -29 77
-3 27 -9 51 -13 54 -14 11 -53 70 -53 82 0 21 -42 69 -61 69 -10 0 -19 4 -19
9 0 5 -11 16 -24 25 -22 14 -28 14 -53 1 -15 -8 -39 -14 -53 -14 -22 1 -21 2
7 10 28 8 67 49 47 49 -3 0 1 12 11 26 9 14 15 34 12 43 -2 10 2 26 9 36 12
17 14 17 14 2 0 -23 12 -21 28 3 18 29 32 25 32 -10 0 -32 9 -36 41 -20 12 7
19 21 19 38 0 15 9 46 21 67 29 57 29 187 -2 247 -30 59 -58 88 -88 88 -29 0
-84 16 -124 36 -36 18 -93 17 -134 -1z m592 -1053 c-4 -19 -1 -33 9 -41 8 -6
12 -22 9 -34 -4 -20 -3 -21 10 -4 13 16 16 16 41 -4 30 -24 31 -28 12 -54 -12
-17 -16 -17 -31 -5 -14 12 -18 12 -25 0 -11 -17 -4 -30 16 -30 8 0 14 -10 14
-25 0 -21 -3 -24 -18 -16 -9 5 -26 19 -37 31 -11 12 -32 28 -48 36 -21 12 -25
18 -18 32 5 9 7 29 4 43 -3 15 0 30 6 33 6 4 11 16 11 26 0 17 23 39 43 40 5
0 6 -13 2 -28z"/>
<path d="M7331 2579 c-136 -26 -241 -136 -227 -235 5 -38 2 -48 -30 -89 -35
-47 -37 -65 -6 -65 10 0 33 -8 52 -18 28 -13 34 -22 32 -41 -2 -13 0 -27 5
-30 12 -9 43 -71 43 -87 0 -8 5 -14 10 -14 6 0 10 -7 10 -15 0 -8 7 -15 15
-15 8 0 15 5 15 11 0 5 5 7 10 4 6 -3 7 -17 4 -31 -8 -32 12 -39 67 -20 43 15
44 15 69 -9 32 -30 60 -33 60 -5 0 11 5 20 10 20 6 0 10 -4 10 -10 0 -5 9 -10
20 -10 10 0 31 -5 45 -12 20 -9 25 -17 20 -32 -4 -12 -9 -33 -12 -48 -3 -16
-9 -28 -14 -28 -4 0 -15 -16 -24 -35 -8 -19 -22 -51 -31 -70 -20 -47 -10 -130
23 -193 24 -46 136 -162 156 -162 6 0 18 6 26 14 9 8 30 18 46 22 27 7 29 6
16 -10 -11 -13 -11 -20 -3 -28 7 -7 12 -16 12 -20 0 -12 -35 -9 -48 4 -9 9
-16 9 -28 -4 -16 -15 -14 -20 15 -59 39 -54 32 -59 -81 -60 l-83 -2 -1 -37
c-2 -44 18 -58 100 -67 60 -7 115 -40 116 -69 0 -12 12 -38 26 -59 25 -37 26
-46 35 -254 5 -119 6 -253 3 -298 -5 -59 -3 -87 5 -97 7 -8 10 -20 6 -26 -6
-10 12 -13 68 -12 33 1 35 -11 5 -32 -29 -20 -49 -21 -42 -1 5 11 2 13 -9 9
-9 -3 -13 -12 -10 -20 5 -14 -1 -18 -49 -28 -34 -8 -37 -26 -4 -26 39 0 86
-12 86 -22 0 -5 -16 -16 -35 -24 -34 -14 -40 -42 -7 -29 10 3 61 10 115 15 89
8 105 12 169 49 39 23 76 41 84 41 19 0 44 11 44 20 0 4 -15 10 -32 13 -75 13
-98 20 -98 27 0 14 36 21 65 14 18 -4 30 -2 36 7 13 20 11 29 -6 29 -18 0 -19
9 -1 32 12 17 14 17 29 0 15 -17 97 -165 97 -176 0 -5 -30 -14 -102 -32 -22
-5 -28 -3 -28 10 0 22 -18 20 -64 -7 -78 -44 -40 -50 284 -47 136 2 169 7 375
58 l110 28 7 155 c4 85 10 174 13 199 3 25 7 56 9 70 1 14 6 36 9 50 4 14 18
72 31 129 14 56 30 109 36 115 5 7 8 15 5 17 -2 3 0 23 6 45 13 48 62 101 101
109 19 5 28 13 28 26 0 25 -21 24 -54 -2 -15 -12 -29 -20 -31 -17 -2 2 5 35
16 73 10 39 26 110 35 159 13 77 13 90 1 105 -42 47 -58 124 -38 176 7 18 10
15 28 -20 28 -55 38 -89 24 -81 -7 5 -11 -3 -11 -20 0 -25 1 -26 18 -11 22 20
32 13 62 -40 17 -31 22 -51 17 -82 -4 -34 -2 -41 14 -46 10 -4 19 -11 19 -16
0 -20 38 -8 65 21 29 30 29 54 0 30 -22 -19 -45 5 -45 46 0 44 -78 200 -121
243 -42 42 -48 33 -12 -21 40 -59 103 -176 103 -191 0 -12 -6 -4 -89 135 -25
40 -58 85 -74 101 -28 26 -29 29 -13 46 9 9 39 28 66 41 28 13 50 28 50 33 0
5 -7 6 -16 3 -9 -3 -21 -6 -28 -6 -7 0 -34 -16 -60 -35 -25 -20 -46 -33 -46
-30 0 19 23 44 52 55 64 26 64 27 -34 121 -87 83 -192 153 -221 147 -7 -1 -24
6 -39 16 -15 9 -48 23 -75 30 -26 7 -80 27 -120 44 -39 18 -76 32 -82 32 -6 0
-11 6 -11 14 0 8 -12 17 -27 21 -16 4 -36 15 -46 26 -10 10 -25 19 -34 19 -19
0 -71 16 -125 38 -50 20 -167 12 -233 -17 -75 -34 -133 -85 -145 -131 -6 -22
-16 -43 -23 -47 -15 -10 -28 -31 -64 -105 -19 -40 -34 -58 -50 -61 -26 -5 -27
-3 -11 26 22 41 48 162 48 224 0 54 -3 65 -28 90 -16 15 -42 33 -58 38 -25 10
-29 15 -26 46 2 30 -2 37 -24 47 -31 15 -44 8 -44 -24 0 -15 -6 -24 -15 -24
-8 0 -15 -9 -15 -19 0 -20 18 -31 50 -31 13 0 17 -5 13 -20 -5 -19 -19 -20
-70 -5 -7 2 -15 0 -18 -6 -4 -5 -12 -6 -18 -2 -7 4 -16 8 -22 8 -5 0 -13 18
-16 40 -7 41 3 65 27 65 17 0 29 19 17 31 -4 4 -24 9 -43 10 -37 3 -60 15 -60
31 0 6 7 7 16 4 9 -4 23 -1 30 5 10 8 22 8 41 1 35 -13 100 -22 107 -15 8 9
-55 92 -87 115 -28 20 -138 59 -160 57 -7 -1 -32 -5 -56 -10z m938 -901 c31
-22 58 -43 60 -45 3 -2 0 -8 -7 -15 -8 -8 -17 -7 -36 6 -14 9 -33 16 -43 16
-14 -1 -12 -5 10 -22 27 -20 27 -21 10 -38 -13 -12 -23 -15 -36 -8 -23 12 -40
0 -34 -23 9 -34 -20 -21 -59 26 -50 62 -36 76 41 40 32 -14 60 -24 62 -21 2 2
-16 19 -41 38 -25 18 -45 37 -46 41 0 5 19 6 43 2 41 -7 42 -7 25 12 -19 20
-23 33 -11 33 3 0 31 -19 62 -42z m585 -132 c-6 -15 -92 -56 -116 -56 -21 0
-160 -53 -278 -105 -58 -26 -132 -57 -165 -69 -33 -13 -71 -28 -83 -35 -13 -7
-27 -10 -30 -6 -10 9 35 44 67 52 14 3 58 21 97 39 120 56 342 143 383 150 21
3 56 16 77 28 41 24 57 24 48 2z"/>
<path d="M1660 2394 c-13 -20 -43 -45 -66 -57 -30 -14 -40 -25 -36 -36 7 -17
61 -80 110 -124 17 -17 32 -36 32 -42 0 -18 126 -223 183 -299 30 -39 64 -90
77 -113 13 -24 27 -43 30 -43 4 0 15 10 26 22 18 21 18 21 0 15 -12 -5 -23 -1
-32 10 -17 23 -17 33 -1 29 6 -1 9 -1 4 2 -11 6 -128 245 -122 250 10 10 36
-10 45 -35 6 -16 15 -36 20 -46 6 -10 8 -22 5 -27 -4 -6 1 -10 9 -10 9 0 16
-7 16 -15 0 -8 3 -15 8 -15 4 0 16 -19 27 -41 10 -23 25 -44 32 -46 7 -3 13
-11 13 -18 0 -12 40 -29 48 -20 2 2 -6 17 -19 34 -13 18 -25 54 -30 87 -10 73
-136 325 -199 398 -25 28 -65 80 -90 114 -25 34 -49 62 -55 62 -5 0 -21 -16
-35 -36z"/>
<path d="M5965 1685 c-27 -13 -55 -24 -62 -25 -18 0 -46 -32 -35 -39 6 -3 12
-15 14 -26 2 -16 -2 -19 -22 -17 -30 3 -38 -3 -68 -45 l-23 -33 30 0 c42 0 81
-20 81 -41 0 -9 6 -20 13 -23 15 -7 -80 3 -99 11 -8 3 -14 0 -14 -5 0 -6 23
-17 51 -26 40 -11 56 -12 70 -3 15 9 28 7 65 -11 43 -21 48 -22 64 -7 16 15
18 14 24 0 14 -37 8 -43 -35 -34 -23 5 -54 16 -70 24 -32 17 -39 18 -39 6 0
-11 119 -69 157 -77 27 -5 31 -3 38 23 4 15 11 70 14 122 4 68 10 96 20 99 21
7 9 -189 -14 -224 -36 -55 -51 -64 -92 -53 -63 17 -132 53 -133 69 0 11 -5 9
-18 -7 -12 -17 -24 -21 -42 -17 -23 5 -24 4 -7 -9 17 -14 16 -15 -3 -20 -28
-7 -26 -37 2 -34 17 1 24 -4 26 -21 2 -12 7 -20 12 -17 8 5 176 -47 187 -59 3
-3 -32 -3 -78 0 -60 5 -88 11 -97 23 -11 14 -14 14 -22 1 -18 -29 -10 -39 45
-51 31 -7 58 -15 60 -19 5 -8 -39 -130 -47 -130 -4 0 -15 11 -24 24 -8 14 -21
23 -28 20 -7 -3 -20 4 -30 15 -14 15 -15 24 -7 40 6 11 11 26 11 33 0 7 -13
-12 -29 -42 -19 -37 -36 -56 -52 -60 -22 -6 -24 -10 -20 -56 1 -27 7 -57 12
-66 6 -12 6 -25 -1 -37 -13 -25 -13 -77 0 -101 15 -28 2 -50 -29 -50 -38 0
-51 -17 -51 -65 0 -29 6 -47 19 -59 21 -19 19 -39 -9 -71 -17 -19 -23 -42 -39
-145 -4 -25 -13 -55 -20 -68 -22 -40 -7 -54 52 -52 107 5 127 2 127 -20 0 -10
-8 -23 -17 -29 -16 -8 -15 -11 11 -21 39 -14 52 -8 70 34 15 36 21 39 125 52
69 8 61 -9 -11 -26 -89 -21 -100 -27 -89 -47 8 -15 25 -18 88 -20 102 -1 174
18 207 57 21 26 24 35 15 58 -6 14 -16 30 -22 34 -24 16 -66 7 -98 -19 -21
-18 -34 -24 -37 -15 -3 9 -22 10 -73 6 -76 -8 -83 -2 -44 40 24 25 65 36 65
16 0 -5 9 -10 21 -10 11 0 18 4 14 9 -3 6 3 14 13 20 12 6 23 31 31 68 7 32
32 130 55 218 61 225 76 284 87 333 9 47 32 94 62 129 32 37 48 144 47 318 -1
95 -6 165 -12 172 -12 15 -87 16 -162 4 -54 -9 -88 -39 -85 -75 3 -44 -2 -51
-17 -23 -18 33 -33 31 -54 -6 -13 -23 -13 -30 3 -61 18 -40 13 -43 -38 -22
-35 15 -48 47 -25 61 6 4 19 24 31 46 12 25 38 52 67 70 63 40 71 64 29 89
-38 24 -31 24 -92 -5z"/>
<path d="M155 1549 c-38 -8 -89 -35 -105 -54 -18 -21 0 -20 71 6 55 20 60 21
84 5 28 -19 32 -31 10 -40 -8 -3 -15 -12 -15 -21 0 -9 -9 -33 -20 -55 -11 -22
-20 -44 -20 -50 0 -21 17 -9 33 26 24 50 69 104 87 104 12 0 12 -2 1 -9 -10
-6 -11 -13 -2 -29 6 -11 11 -39 11 -62 0 -56 23 -48 32 11 16 105 25 115 75
82 21 -14 25 -15 19 -3 -25 44 -36 48 -97 43 -55 -5 -63 -4 -97 24 -30 24 -43
28 -67 22z"/>
<path d="M7280 1275 c-22 -23 -22 -25 -6 -49 9 -14 27 -33 41 -42 l25 -16 -25
-20 c-35 -28 -31 -45 13 -52 123 -20 115 -20 140 13 13 17 20 36 17 41 -8 13
-35 13 -35 0 0 -12 -45 -24 -59 -16 -6 4 -6 18 0 39 8 27 6 34 -13 49 -19 15
-21 19 -8 27 12 8 12 13 -4 30 -25 28 -57 26 -86 -4z"/>
<path d="M509 1215 c-16 -27 6 -237 41 -400 5 -27 8 -63 4 -80 -3 -17 1 -46
11 -69 9 -21 15 -50 14 -65 -2 -35 11 -91 22 -91 5 0 9 -11 9 -25 0 -14 5 -25
11 -25 7 0 9 -10 5 -27 -5 -17 -3 -29 6 -34 22 -14 29 -10 26 13 -2 12 3 23
11 26 10 3 12 0 8 -12 -10 -26 20 -19 39 9 13 20 15 44 12 127 -5 100 -7 107
-65 238 -61 136 -140 354 -145 400 -2 14 -6 21 -9 15z"/>
<path d="M9338 669 c-25 -10 -26 -11 -12 -37 20 -38 18 -51 -16 -101 -17 -24
-30 -50 -30 -58 0 -8 -11 -13 -30 -13 -28 0 -30 2 -30 39 0 34 -7 50 -47 101
-8 9 -22 -25 -18 -41 3 -9 -1 -62 -10 -118 -8 -55 -15 -132 -15 -171 0 -63 -2
-70 -20 -70 -24 0 -25 -6 -5 -27 9 -8 13 -23 10 -34 -8 -24 19 -31 123 -33 61
-1 84 3 112 20 52 30 63 63 67 189 2 61 8 132 13 158 6 26 10 68 10 93 0 38
-4 46 -25 56 -19 9 -23 16 -19 35 7 26 -10 29 -58 12z"/>
<path d="M833 261 c-17 -11 -37 -32 -45 -47 -7 -16 -37 -42 -65 -59 -89 -51
-70 -55 87 -20 41 9 84 25 95 34 11 10 28 21 38 24 24 9 21 26 -10 59 -31 33
-56 35 -100 9z"/>
<path d="M2958 177 c-13 -14 -36 -29 -52 -33 -22 -5 -27 -11 -24 -32 3 -25 4
-25 103 -27 97 -2 155 11 155 35 0 5 -12 22 -27 39 -22 23 -40 31 -80 37 -47
6 -54 4 -75 -19z"/>
</g>
</svg>
